{
  "header": {
    "keySignatures": [],
    "meta": [],
    "name": "",
    "ppq": 480,
    "tempos": [
      {
        "bpm": 120,
        "ticks": 0
      }
    ],
    "timeSignatures": []
  },
  "tracks": [
    {
      "channel": 0,
      "controlChanges": {},
      "pitchBends": [],
      "instrument": {
        "family": "piano",
        "number": 4,
        "name": "electric piano 1"
      },
      "name": "",
      "notes": [
        {
          "duration": 0.19687500000000002,
          "durationTicks": 189,
          "midi": 72,
          "name": "C5",
          "ticks": 11,
          "time": 0.011458333333333333,
          "velocity": 0.4881889763779528
        },
        {
          "duration": 0.4989583333333333,
          "durationTicks": 479,
          "midi": 48,
          "name": "C3",
          "ticks": 11,
          "time": 0.011458333333333333,
          "velocity": 0.6377952755905512
        },
        {
          "duration": 0.5104166666666666,
          "durationTicks": 490,
          "midi": 55,
          "name": "G3",
          "ticks": 178,
          "time": 0.18541666666666667,
          "velocity": 0.5669291338582677
        },
        {
          "duration": 0.3479166666666667,
          "durationTicks": 334,
          "midi": 62,
          "name": "D4",
          "ticks": 357,
          "time": 0.371875,
          "velocity": 0.5590551181102362
        },
        {
          "duration": 0.34791666666666665,
          "durationTicks": 334,
          "midi": 64,
          "name": "E4",
          "ticks": 535,
          "time": 0.5572916666666666,
          "velocity": 0.6062992125984252
        },
        {
          "duration": 0.18541666666666667,
          "durationTicks": 178,
          "midi": 60,
          "name": "C4",
          "ticks": 713,
          "time": 0.7427083333333333,
          "velocity": 0.7401574803149606
        },
        {
          "duration": 0.17395833333333321,
          "durationTicks": 167,
          "midi": 67,
          "name": "G4",
          "ticks": 892,
          "time": 0.9291666666666667,
          "velocity": 0.7795275590551181
        },
        {
          "duration": 0.2906249999999999,
          "durationTicks": 279,
          "midi": 60,
          "name": "C4",
          "ticks": 892,
          "time": 0.9291666666666667,
          "velocity": 0.44881889763779526
        },
        {
          "duration": 0.3718750000000002,
          "durationTicks": 357,
          "midi": 74,
          "name": "D5",
          "ticks": 1059,
          "time": 1.103125,
          "velocity": 0.6771653543307087
        },
        {
          "duration": 0.18541666666666679,
          "durationTicks": 178,
          "midi": 67,
          "name": "G4",
          "ticks": 1059,
          "time": 1.103125,
          "velocity": 0.6299212598425197
        },
        {
          "duration": 0.18541666666666656,
          "durationTicks": 178,
          "midi": 76,
          "name": "E5",
          "ticks": 1237,
          "time": 1.2885416666666667,
          "velocity": 0.7952755905511811
        },
        {
          "duration": 0.18541666666666656,
          "durationTicks": 178,
          "midi": 67,
          "name": "G4",
          "ticks": 1237,
          "time": 1.2885416666666667,
          "velocity": 0.6141732283464567
        },
        {
          "duration": 0.19687500000000013,
          "durationTicks": 189,
          "midi": 76,
          "name": "E5",
          "ticks": 1415,
          "time": 1.4739583333333333,
          "velocity": 0.7007874015748031
        },
        {
          "duration": 0.19687500000000013,
          "durationTicks": 189,
          "midi": 74,
          "name": "D5",
          "ticks": 1415,
          "time": 1.4739583333333333,
          "velocity": 0.7007874015748031
        },
        {
          "duration": 0.19687500000000013,
          "durationTicks": 189,
          "midi": 67,
          "name": "G4",
          "ticks": 1415,
          "time": 1.4739583333333333,
          "velocity": 0.5354330708661418
        },
        {
          "duration": 0.31458333333333344,
          "durationTicks": 302,
          "midi": 76,
          "name": "E5",
          "ticks": 1605,
          "time": 1.671875,
          "velocity": 0.5118110236220472
        },
        {
          "duration": 0.3958333333333335,
          "durationTicks": 380,
          "midi": 74,
          "name": "D5",
          "ticks": 1605,
          "time": 1.671875,
          "velocity": 0.5511811023622047
        },
        {
          "duration": 0.18541666666666656,
          "durationTicks": 178,
          "midi": 67,
          "name": "G4",
          "ticks": 1605,
          "time": 1.671875,
          "velocity": 0.7716535433070866
        },
        {
          "duration": 0.17500000000000004,
          "durationTicks": 168,
          "midi": 67,
          "name": "G4",
          "ticks": 1783,
          "time": 1.8572916666666666,
          "velocity": 0.7086614173228346
        },
        {
          "duration": 0.17500000000000004,
          "durationTicks": 168,
          "midi": 60,
          "name": "C4",
          "ticks": 1783,
          "time": 1.8572916666666666,
          "velocity": 0.7086614173228346
        },
        {
          "duration": 0.3020833333333335,
          "durationTicks": 290,
          "midi": 67,
          "name": "G4",
          "ticks": 1952,
          "time": 2.033333333333333,
          "velocity": 0.5748031496062992
        },
        {
          "duration": 0.18541666666666679,
          "durationTicks": 178,
          "midi": 64,
          "name": "E4",
          "ticks": 1952,
          "time": 2.033333333333333,
          "velocity": 0.7401574803149606
        },
        {
          "duration": 0.2666666666666666,
          "durationTicks": 256,
          "midi": 60,
          "name": "C4",
          "ticks": 1952,
          "time": 2.033333333333333,
          "velocity": 0.5118110236220472
        },
        {
          "duration": 0.1968749999999999,
          "durationTicks": 189,
          "midi": 62,
          "name": "D4",
          "ticks": 2119,
          "time": 2.207291666666667,
          "velocity": 0.6771653543307087
        },
        {
          "duration": 0.2906249999999999,
          "durationTicks": 279,
          "midi": 64,
          "name": "E4",
          "ticks": 2130,
          "time": 2.21875,
          "velocity": 0.47244094488188976
        },
        {
          "duration": 0.1625000000000001,
          "durationTicks": 156,
          "midi": 62,
          "name": "D4",
          "ticks": 2308,
          "time": 2.404166666666667,
          "velocity": 0.5354330708661418
        },
        {
          "duration": 0.18541666666666634,
          "durationTicks": 178,
          "midi": 55,
          "name": "G3",
          "ticks": 2308,
          "time": 2.404166666666667,
          "velocity": 0.7795275590551181
        },
        {
          "duration": 0.18541666666666634,
          "durationTicks": 178,
          "midi": 55,
          "name": "G3",
          "ticks": 2487,
          "time": 2.590625,
          "velocity": 0.6614173228346457
        },
        {
          "duration": 0.37187499999999973,
          "durationTicks": 357,
          "midi": 48,
          "name": "C3",
          "ticks": 2487,
          "time": 2.590625,
          "velocity": 0.6692913385826772
        },
        {
          "duration": 0.18541666666666679,
          "durationTicks": 178,
          "midi": 55,
          "name": "G3",
          "ticks": 2665,
          "time": 2.7760416666666665,
          "velocity": 0.7716535433070866
        },
        {
          "duration": 0.18541666666666679,
          "durationTicks": 178,
          "midi": 55,
          "name": "G3",
          "ticks": 2843,
          "time": 2.9614583333333333,
          "velocity": 0.6929133858267716
        },
        {
          "duration": 0.18541666666666679,
          "durationTicks": 178,
          "midi": 48,
          "name": "C3",
          "ticks": 2843,
          "time": 2.9614583333333333,
          "velocity": 0.7952755905511811
        },
        {
          "duration": 0.17395833333333321,
          "durationTicks": 167,
          "midi": 55,
          "name": "G3",
          "ticks": 3022,
          "time": 3.1479166666666667,
          "velocity": 0.5590551181102362
        },
        {
          "duration": 0.34791666666666643,
          "durationTicks": 334,
          "midi": 48,
          "name": "C3",
          "ticks": 3022,
          "time": 3.1479166666666667,
          "velocity": 0.6535433070866141
        },
        {
          "duration": 0.18541666666666634,
          "durationTicks": 178,
          "midi": 62,
          "name": "D4",
          "ticks": 3200,
          "time": 3.3333333333333335,
          "velocity": 0.7322834645669292
        },
        {
          "duration": 0.18541666666666679,
          "durationTicks": 178,
          "midi": 65,
          "name": "F4",
          "ticks": 3378,
          "time": 3.51875,
          "velocity": 0.7637795275590551
        },
        {
          "duration": 0.2781250000000002,
          "durationTicks": 267,
          "midi": 62,
          "name": "D4",
          "ticks": 3378,
          "time": 3.51875,
          "velocity": 0.5118110236220472
        },
        {
          "duration": 0.18541666666666679,
          "durationTicks": 178,
          "midi": 60,
          "name": "C4",
          "ticks": 3546,
          "time": 3.69375,
          "velocity": 0.7716535433070866
        },
        {
          "duration": 0.17395833333333366,
          "durationTicks": 167,
          "midi": 65,
          "name": "F4",
          "ticks": 3557,
          "time": 3.705208333333333,
          "velocity": 0.6771653543307087
        },
        {
          "duration": 0.17499999999999938,
          "durationTicks": 168,
          "midi": 72,
          "name": "C5",
          "ticks": 3724,
          "time": 3.879166666666667,
          "velocity": 0.5826771653543307
        },
        {
          "duration": 0.2687499999999994,
          "durationTicks": 258,
          "midi": 65,
          "name": "F4",
          "ticks": 3724,
          "time": 3.879166666666667,
          "velocity": 0.4251968503937008
        },
        {
          "duration": 0.18749999999999956,
          "durationTicks": 180,
          "midi": 60,
          "name": "C4",
          "ticks": 3724,
          "time": 3.879166666666667,
          "velocity": 0.7322834645669292
        },
        {
          "duration": 0.18541666666666679,
          "durationTicks": 178,
          "midi": 74,
          "name": "D5",
          "ticks": 3892,
          "time": 4.054166666666666,
          "velocity": 0.7637795275590551
        },
        {
          "duration": 0.18541666666666679,
          "durationTicks": 178,
          "midi": 72,
          "name": "C5",
          "ticks": 3892,
          "time": 4.054166666666666,
          "velocity": 0.3779527559055118
        },
        {
          "duration": 0.2781250000000002,
          "durationTicks": 267,
          "midi": 60,
          "name": "C4",
          "ticks": 3903,
          "time": 4.065625,
          "velocity": 0.4645669291338583
        },
        {
          "duration": 0.7541666666666673,
          "durationTicks": 724,
          "midi": 77,
          "name": "F5",
          "ticks": 4071,
          "time": 4.240625,
          "velocity": 0.5433070866141733
        },
        {
          "duration": 0.18541666666666679,
          "durationTicks": 178,
          "midi": 74,
          "name": "D5",
          "ticks": 4071,
          "time": 4.240625,
          "velocity": 0.6692913385826772
        },
        {
          "duration": 0.18541666666666679,
          "durationTicks": 178,
          "midi": 72,
          "name": "C5",
          "ticks": 4071,
          "time": 4.240625,
          "velocity": 0.36220472440944884
        },
        {
          "duration": 0.15104166666666696,
          "durationTicks": 145,
          "midi": 65,
          "name": "F4",
          "ticks": 4071,
          "time": 4.240625,
          "velocity": 0.4015748031496063
        },
        {
          "duration": 0.18541666666666679,
          "durationTicks": 178,
          "midi": 74,
          "name": "D5",
          "ticks": 4249,
          "time": 4.426041666666666,
          "velocity": 0.7086614173228346
        },
        {
          "duration": 0.18541666666666679,
          "durationTicks": 178,
          "midi": 72,
          "name": "C5",
          "ticks": 4249,
          "time": 4.426041666666666,
          "velocity": 0.3228346456692913
        },
        {
          "duration": 0.18541666666666679,
          "durationTicks": 178,
          "midi": 74,
          "name": "D5",
          "ticks": 4427,
          "time": 4.611458333333333,
          "velocity": 0.6141732283464567
        },
        {
          "duration": 0.19687500000000036,
          "durationTicks": 189,
          "midi": 72,
          "name": "C5",
          "ticks": 4427,
          "time": 4.611458333333333,
          "velocity": 0.6220472440944882
        },
        {
          "duration": 0.3604166666666666,
          "durationTicks": 346,
          "midi": 74,
          "name": "D5",
          "ticks": 4606,
          "time": 4.797916666666667,
          "velocity": 0.4881889763779528
        },
        {
          "duration": 0.19687500000000036,
          "durationTicks": 189,
          "midi": 60,
          "name": "C4",
          "ticks": 4606,
          "time": 4.797916666666667,
          "velocity": 0.7322834645669292
        },
        {
          "duration": 0.5104166666666661,
          "durationTicks": 490,
          "midi": 65,
          "name": "F4",
          "ticks": 4795,
          "time": 4.994791666666667,
          "velocity": 0.5118110236220472
        },
        {
          "duration": 0.18541666666666679,
          "durationTicks": 178,
          "midi": 60,
          "name": "C4",
          "ticks": 4795,
          "time": 4.994791666666667,
          "velocity": 0.6614173228346457
        },
        {
          "duration": 0.19687499999999947,
          "durationTicks": 189,
          "midi": 62,
          "name": "D4",
          "ticks": 4962,
          "time": 5.16875,
          "velocity": 0.6614173228346457
        },
        {
          "duration": 0.17395833333333321,
          "durationTicks": 167,
          "midi": 60,
          "name": "C4",
          "ticks": 4973,
          "time": 5.180208333333334,
          "velocity": 0.48031496062992124
        },
        {
          "duration": 0.19687499999999947,
          "durationTicks": 189,
          "midi": 60,
          "name": "C4",
          "ticks": 5141,
          "time": 5.355208333333334,
          "velocity": 0.6771653543307087
        },
        {
          "duration": 0.29062500000000036,
          "durationTicks": 279,
          "midi": 62,
          "name": "D4",
          "ticks": 5152,
          "time": 5.366666666666666,
          "velocity": 0.4645669291338583
        },
        {
          "duration": 0.19687499999999947,
          "durationTicks": 189,
          "midi": 48,
          "name": "C3",
          "ticks": 5319,
          "time": 5.540625,
          "velocity": 0.7637795275590551
        },
        {
          "duration": 0.17395833333333321,
          "durationTicks": 167,
          "midi": 60,
          "name": "C4",
          "ticks": 5330,
          "time": 5.552083333333333,
          "velocity": 0.2677165354330709
        },
        {
          "duration": 0.20937500000000053,
          "durationTicks": 201,
          "midi": 60,
          "name": "C4",
          "ticks": 5497,
          "time": 5.726041666666666,
          "velocity": 0.5826771653543307
        },
        {
          "duration": 0.18541666666666679,
          "durationTicks": 178,
          "midi": 48,
          "name": "C3",
          "ticks": 5508,
          "time": 5.7375,
          "velocity": 0.7086614173228346
        },
        {
          "duration": 0.17499999999999982,
          "durationTicks": 168,
          "midi": 48,
          "name": "C3",
          "ticks": 5687,
          "time": 5.923958333333333,
          "velocity": 0.7952755905511811
        },
        {
          "duration": 0.3718749999999993,
          "durationTicks": 357,
          "midi": 55,
          "name": "G3",
          "ticks": 5844,
          "time": 6.0875,
          "velocity": 0.6456692913385826
        },
        {
          "duration": 0.3135416666666666,
          "durationTicks": 301,
          "midi": 48,
          "name": "C3",
          "ticks": 5855,
          "time": 6.098958333333333,
          "velocity": 0.5511811023622047
        },
        {
          "duration": 0.46458333333333357,
          "durationTicks": 446,
          "midi": 64,
          "name": "E4",
          "ticks": 6022,
          "time": 6.272916666666666,
          "velocity": 0.5905511811023622
        },
        {
          "duration": 0.18541666666666679,
          "durationTicks": 178,
          "midi": 67,
          "name": "G4",
          "ticks": 6201,
          "time": 6.459375,
          "velocity": 0.8346456692913385
        },
        {
          "duration": 0.29062500000000036,
          "durationTicks": 279,
          "midi": 55,
          "name": "G3",
          "ticks": 6201,
          "time": 6.459375,
          "velocity": 0.44881889763779526
        },
        {
          "duration": 0.18541666666666679,
          "durationTicks": 178,
          "midi": 67,
          "name": "G4",
          "ticks": 6379,
          "time": 6.644791666666666,
          "velocity": 0.6771653543307087
        },
        {
          "duration": 0.19687500000000036,
          "durationTicks": 189,
          "midi": 60,
          "name": "C4",
          "ticks": 6379,
          "time": 6.644791666666666,
          "velocity": 0.7244094488188977
        },
        {
          "duration": 0.18541666666666679,
          "durationTicks": 178,
          "midi": 67,
          "name": "G4",
          "ticks": 6557,
          "time": 6.830208333333333,
          "velocity": 0.8188976377952756
        },
        {
          "duration": 0.30208333333333304,
          "durationTicks": 290,
          "midi": 60,
          "name": "C4",
          "ticks": 6568,
          "time": 6.841666666666667,
          "velocity": 0.5196850393700787
        },
        {
          "duration": 0.18541666666666679,
          "durationTicks": 178,
          "midi": 67,
          "name": "G4",
          "ticks": 6736,
          "time": 7.016666666666667,
          "velocity": 0.8110236220472441
        },
        {
          "duration": 0.18541666666666679,
          "durationTicks": 178,
          "midi": 71,
          "name": "B4",
          "ticks": 6914,
          "time": 7.202083333333333,
          "velocity": 0.7952755905511811
        },
        {
          "duration": 0.18541666666666679,
          "durationTicks": 178,
          "midi": 67,
          "name": "G4",
          "ticks": 6914,
          "time": 7.202083333333333,
          "velocity": 0.6850393700787402
        },
        {
          "duration": 0.18541666666666679,
          "durationTicks": 178,
          "midi": 76,
          "name": "E5",
          "ticks": 7092,
          "time": 7.3875,
          "velocity": 0.6850393700787402
        },
        {
          "duration": 0.18541666666666679,
          "durationTicks": 178,
          "midi": 71,
          "name": "B4",
          "ticks": 7092,
          "time": 7.3875,
          "velocity": 0.7637795275590551
        },
        {
          "duration": 0.18541666666666679,
          "durationTicks": 178,
          "midi": 67,
          "name": "G4",
          "ticks": 7092,
          "time": 7.3875,
          "velocity": 0.6299212598425197
        },
        {
          "duration": 0.17395833333333321,
          "durationTicks": 167,
          "midi": 79,
          "name": "G5",
          "ticks": 7271,
          "time": 7.573958333333334,
          "velocity": 0.5511811023622047
        },
        {
          "duration": 0.17395833333333321,
          "durationTicks": 167,
          "midi": 76,
          "name": "E5",
          "ticks": 7271,
          "time": 7.573958333333334,
          "velocity": 0.5984251968503937
        },
        {
          "duration": 0.3604166666666666,
          "durationTicks": 346,
          "midi": 71,
          "name": "B4",
          "ticks": 7271,
          "time": 7.573958333333334,
          "velocity": 0.6535433070866141
        },
        {
          "duration": 0.18541666666666679,
          "durationTicks": 178,
          "midi": 67,
          "name": "G4",
          "ticks": 7271,
          "time": 7.573958333333334,
          "velocity": 0.6141732283464567
        },
        {
          "duration": 0.18541666666666679,
          "durationTicks": 178,
          "midi": 79,
          "name": "G5",
          "ticks": 7438,
          "time": 7.747916666666667,
          "velocity": 0.5511811023622047
        },
        {
          "duration": 0.18541666666666679,
          "durationTicks": 178,
          "midi": 76,
          "name": "E5",
          "ticks": 7438,
          "time": 7.747916666666667,
          "velocity": 0.7244094488188977
        },
        {
          "duration": 0.1854166666666659,
          "durationTicks": 178,
          "midi": 67,
          "name": "G4",
          "ticks": 7449,
          "time": 7.759375,
          "velocity": 0.5590551181102362
        },
        {
          "duration": 0.12916666666666643,
          "durationTicks": 124,
          "midi": 79,
          "name": "G5",
          "ticks": 7616,
          "time": 7.933333333333334,
          "velocity": 0.44881889763779526
        },
        {
          "duration": 0.17499999999999893,
          "durationTicks": 168,
          "midi": 76,
          "name": "E5",
          "ticks": 7616,
          "time": 7.933333333333334,
          "velocity": 0.6771653543307087
        },
        {
          "duration": 0.17499999999999893,
          "durationTicks": 168,
          "midi": 71,
          "name": "B4",
          "ticks": 7616,
          "time": 7.933333333333334,
          "velocity": 0.7874015748031497
        },
        {
          "duration": 0.16354166666666625,
          "durationTicks": 157,
          "midi": 67,
          "name": "G4",
          "ticks": 7627,
          "time": 7.944791666666666,
          "velocity": 0.5905511811023622
        },
        {
          "duration": 0.46458333333333357,
          "durationTicks": 446,
          "midi": 76,
          "name": "E5",
          "ticks": 7785,
          "time": 8.109375,
          "velocity": 0.4251968503937008
        },
        {
          "duration": 0.5229166666666671,
          "durationTicks": 502,
          "midi": 71,
          "name": "B4",
          "ticks": 7785,
          "time": 8.109375,
          "velocity": 0.5590551181102362
        },
        {
          "duration": 0.20937499999999964,
          "durationTicks": 201,
          "midi": 67,
          "name": "G4",
          "ticks": 7785,
          "time": 8.109375,
          "velocity": 0.7952755905511811
        },
        {
          "duration": 0.17395833333333321,
          "durationTicks": 167,
          "midi": 67,
          "name": "G4",
          "ticks": 7985,
          "time": 8.317708333333334,
          "velocity": 0.7401574803149606
        },
        {
          "duration": 0.17395833333333321,
          "durationTicks": 167,
          "midi": 60,
          "name": "C4",
          "ticks": 7985,
          "time": 8.317708333333334,
          "velocity": 0.7086614173228346
        },
        {
          "duration": 0.18541666666666679,
          "durationTicks": 178,
          "midi": 67,
          "name": "G4",
          "ticks": 8152,
          "time": 8.491666666666667,
          "velocity": 0.8188976377952756
        },
        {
          "duration": 0.30208333333333215,
          "durationTicks": 290,
          "midi": 60,
          "name": "C4",
          "ticks": 8152,
          "time": 8.491666666666667,
          "velocity": 0.4566929133858268
        },
        {
          "duration": 0.39479166666666643,
          "durationTicks": 379,
          "midi": 67,
          "name": "G4",
          "ticks": 8331,
          "time": 8.678125,
          "velocity": 0.5590551181102362
        },
        {
          "duration": 0.6500000000000004,
          "durationTicks": 624,
          "midi": 64,
          "name": "E4",
          "ticks": 8331,
          "time": 8.678125,
          "velocity": 0.5196850393700787
        },
        {
          "duration": 0.6614583333333339,
          "durationTicks": 635,
          "midi": 53,
          "name": "F3",
          "ticks": 8509,
          "time": 8.863541666666666,
          "velocity": 0.5669291338582677
        },
        {
          "duration": 0.18541666666666679,
          "durationTicks": 178,
          "midi": 60,
          "name": "C4",
          "ticks": 8687,
          "time": 9.048958333333333,
          "velocity": 0.7086614173228346
        },
        {
          "duration": 0.185416666666665,
          "durationTicks": 178,
          "midi": 60,
          "name": "C4",
          "ticks": 8866,
          "time": 9.235416666666667,
          "velocity": 0.7401574803149606
        },
        {
          "duration": 0.19687499999999858,
          "durationTicks": 189,
          "midi": 65,
          "name": "F4",
          "ticks": 9033,
          "time": 9.409375,
          "velocity": 0.5826771653543307
        },
        {
          "duration": 0.3020833333333339,
          "durationTicks": 290,
          "midi": 60,
          "name": "C4",
          "ticks": 9044,
          "time": 9.420833333333333,
          "velocity": 0.5354330708661418
        },
        {
          "duration": 0.19687499999999858,
          "durationTicks": 189,
          "midi": 67,
          "name": "G4",
          "ticks": 9211,
          "time": 9.594791666666667,
          "velocity": 0.7874015748031497
        },
        {
          "duration": 0.17395833333333321,
          "durationTicks": 167,
          "midi": 65,
          "name": "F4",
          "ticks": 9222,
          "time": 9.60625,
          "velocity": 0.49606299212598426
        },
        {
          "duration": 0.1875,
          "durationTicks": 180,
          "midi": 65,
          "name": "F4",
          "ticks": 9390,
          "time": 9.78125,
          "velocity": 0.7322834645669292
        },
        {
          "duration": 0.17499999999999893,
          "durationTicks": 168,
          "midi": 67,
          "name": "G4",
          "ticks": 9401,
          "time": 9.792708333333334,
          "velocity": 0.6614173228346457
        },
        {
          "duration": 0.18541666666666679,
          "durationTicks": 178,
          "midi": 69,
          "name": "A4",
          "ticks": 9569,
          "time": 9.967708333333333,
          "velocity": 0.7795275590551181
        },
        {
          "duration": 0.24375000000000036,
          "durationTicks": 234,
          "midi": 67,
          "name": "G4",
          "ticks": 9569,
          "time": 9.967708333333333,
          "velocity": 0.3779527559055118
        },
        {
          "duration": 0.18541666666666679,
          "durationTicks": 178,
          "midi": 65,
          "name": "F4",
          "ticks": 9569,
          "time": 9.967708333333333,
          "velocity": 0.6614173228346457
        },
        {
          "duration": 0.18541666666666679,
          "durationTicks": 178,
          "midi": 72,
          "name": "C5",
          "ticks": 9747,
          "time": 10.153125,
          "velocity": 0.7952755905511811
        },
        {
          "duration": 0.47604166666666714,
          "durationTicks": 457,
          "midi": 69,
          "name": "A4",
          "ticks": 9747,
          "time": 10.153125,
          "velocity": 0.5748031496062992
        },
        {
          "duration": 0.17395833333333321,
          "durationTicks": 167,
          "midi": 65,
          "name": "F4",
          "ticks": 9747,
          "time": 10.153125,
          "velocity": 0.4330708661417323
        },
        {
          "duration": 0.3718749999999993,
          "durationTicks": 357,
          "midi": 77,
          "name": "F5",
          "ticks": 9915,
          "time": 10.328125,
          "velocity": 0.6299212598425197
        },
        {
          "duration": 0.18541666666666679,
          "durationTicks": 178,
          "midi": 65,
          "name": "F4",
          "ticks": 9915,
          "time": 10.328125,
          "velocity": 0.4881889763779528
        },
        {
          "duration": 0.18541666666666679,
          "durationTicks": 178,
          "midi": 72,
          "name": "C5",
          "ticks": 9926,
          "time": 10.339583333333334,
          "velocity": 0.7244094488188977
        },
        {
          "duration": 0.18541666666666679,
          "durationTicks": 178,
          "midi": 79,
          "name": "G5",
          "ticks": 10093,
          "time": 10.513541666666667,
          "velocity": 0.6771653543307087
        },
        {
          "duration": 0.17395833333333321,
          "durationTicks": 167,
          "midi": 72,
          "name": "C5",
          "ticks": 10104,
          "time": 10.525,
          "velocity": 0.5511811023622047
        },
        {
          "duration": 0.18541666666666679,
          "durationTicks": 178,
          "midi": 79,
          "name": "G5",
          "ticks": 10271,
          "time": 10.698958333333334,
          "velocity": 0.6456692913385826
        },
        {
          "duration": 0.46458333333333357,
          "durationTicks": 446,
          "midi": 77,
          "name": "F5",
          "ticks": 10271,
          "time": 10.698958333333334,
          "velocity": 0.5196850393700787
        },
        {
          "duration": 0.18541666666666679,
          "durationTicks": 178,
          "midi": 72,
          "name": "C5",
          "ticks": 10271,
          "time": 10.698958333333334,
          "velocity": 0.5590551181102362
        },
        {
          "duration": 0.3135416666666675,
          "durationTicks": 301,
          "midi": 79,
          "name": "G5",
          "ticks": 10450,
          "time": 10.885416666666666,
          "velocity": 0.4094488188976378
        },
        {
          "duration": 0.18541666666666679,
          "durationTicks": 178,
          "midi": 72,
          "name": "C5",
          "ticks": 10450,
          "time": 10.885416666666666,
          "velocity": 0.7165354330708661
        },
        {
          "duration": 0.32500000000000107,
          "durationTicks": 312,
          "midi": 72,
          "name": "C5",
          "ticks": 10628,
          "time": 11.070833333333333,
          "velocity": 0.5433070866141733
        },
        {
          "duration": 0.18541666666666679,
          "durationTicks": 178,
          "midi": 67,
          "name": "G4",
          "ticks": 10806,
          "time": 11.25625,
          "velocity": 0.7086614173228346
        },
        {
          "duration": 0.17395833333333321,
          "durationTicks": 167,
          "midi": 71,
          "name": "B4",
          "ticks": 10940,
          "time": 11.395833333333334,
          "velocity": 0.4330708661417323
        },
        {
          "duration": 0.19687499999999858,
          "durationTicks": 189,
          "midi": 69,
          "name": "A4",
          "ticks": 10985,
          "time": 11.442708333333334,
          "velocity": 0.6377952755905512
        },
        {
          "duration": 0.19687499999999858,
          "durationTicks": 189,
          "midi": 67,
          "name": "G4",
          "ticks": 10985,
          "time": 11.442708333333334,
          "velocity": 0.49606299212598426
        },
        {
          "duration": 0.19687500000000036,
          "durationTicks": 189,
          "midi": 69,
          "name": "A4",
          "ticks": 11174,
          "time": 11.639583333333333,
          "velocity": 0.5039370078740157
        },
        {
          "duration": 0.220833333333335,
          "durationTicks": 212,
          "midi": 67,
          "name": "G4",
          "ticks": 11174,
          "time": 11.639583333333333,
          "velocity": 0.5748031496062992
        },
        {
          "duration": 2.6729166666666657,
          "durationTicks": 2566,
          "midi": 36,
          "name": "C2",
          "ticks": 11341,
          "time": 11.813541666666667,
          "velocity": 0.6614173228346457
        },
        {
          "duration": 0.5354166666666682,
          "durationTicks": 514,
          "midi": 64,
          "name": "E4",
          "ticks": 11352,
          "time": 11.825,
          "velocity": 0.5669291338582677
        },
        {
          "duration": 0.15208333333333357,
          "durationTicks": 146,
          "midi": 48,
          "name": "C3",
          "ticks": 11352,
          "time": 11.825,
          "velocity": 0.5354330708661418
        },
        {
          "duration": 0.4989583333333325,
          "durationTicks": 479,
          "midi": 55,
          "name": "G3",
          "ticks": 11510,
          "time": 11.989583333333334,
          "velocity": 0.3700787401574803
        },
        {
          "duration": 0.3249999999999993,
          "durationTicks": 312,
          "midi": 62,
          "name": "D4",
          "ticks": 11688,
          "time": 12.175,
          "velocity": 0.5511811023622047
        },
        {
          "duration": 0.185416666666665,
          "durationTicks": 178,
          "midi": 64,
          "name": "E4",
          "ticks": 11866,
          "time": 12.360416666666667,
          "velocity": 0.6535433070866141
        },
        {
          "duration": 0.1395833333333325,
          "durationTicks": 134,
          "midi": 60,
          "name": "C4",
          "ticks": 11900,
          "time": 12.395833333333334,
          "velocity": 0.4094488188976378
        },
        {
          "duration": 0.18541666666666679,
          "durationTicks": 178,
          "midi": 64,
          "name": "E4",
          "ticks": 12045,
          "time": 12.546875,
          "velocity": 0.6929133858267716
        },
        {
          "duration": 0.18541666666666679,
          "durationTicks": 178,
          "midi": 60,
          "name": "C4",
          "ticks": 12045,
          "time": 12.546875,
          "velocity": 0.7165354330708661
        },
        {
          "duration": 0.18541666666666679,
          "durationTicks": 178,
          "midi": 67,
          "name": "G4",
          "ticks": 12223,
          "time": 12.732291666666667,
          "velocity": 0.7874015748031497
        },
        {
          "duration": 0.3718749999999993,
          "durationTicks": 357,
          "midi": 64,
          "name": "E4",
          "ticks": 12223,
          "time": 12.732291666666667,
          "velocity": 0.48031496062992124
        },
        {
          "duration": 0.5229166666666671,
          "durationTicks": 502,
          "midi": 60,
          "name": "C4",
          "ticks": 12223,
          "time": 12.732291666666667,
          "velocity": 0.3937007874015748
        },
        {
          "duration": 0.41770833333333357,
          "durationTicks": 401,
          "midi": 48,
          "name": "C3",
          "ticks": 12290,
          "time": 12.802083333333334,
          "velocity": 0.2992125984251969
        },
        {
          "duration": 0.38333333333333286,
          "durationTicks": 368,
          "midi": 74,
          "name": "D5",
          "ticks": 12390,
          "time": 12.90625,
          "velocity": 0.5984251968503937
        },
        {
          "duration": 0.18541666666666679,
          "durationTicks": 178,
          "midi": 67,
          "name": "G4",
          "ticks": 12401,
          "time": 12.917708333333334,
          "velocity": 0.5354330708661418
        },
        {
          "duration": 0.3249999999999993,
          "durationTicks": 312,
          "midi": 55,
          "name": "G3",
          "ticks": 12401,
          "time": 12.917708333333334,
          "velocity": 0.41732283464566927
        },
        {
          "duration": 0.6968750000000004,
          "durationTicks": 669,
          "midi": 76,
          "name": "E5",
          "ticks": 12568,
          "time": 13.091666666666667,
          "velocity": 0.5433070866141733
        },
        {
          "duration": 0.37187500000000107,
          "durationTicks": 357,
          "midi": 67,
          "name": "G4",
          "ticks": 12580,
          "time": 13.104166666666666,
          "velocity": 0.3937007874015748
        },
        {
          "duration": 0.19687500000000036,
          "durationTicks": 189,
          "midi": 64,
          "name": "E4",
          "ticks": 12580,
          "time": 13.104166666666666,
          "velocity": 0.5433070866141733
        },
        {
          "duration": 0.18541666666666679,
          "durationTicks": 178,
          "midi": 74,
          "name": "D5",
          "ticks": 12758,
          "time": 13.289583333333333,
          "velocity": 0.6062992125984252
        },
        {
          "duration": 0.38333333333333464,
          "durationTicks": 368,
          "midi": 62,
          "name": "D4",
          "ticks": 12758,
          "time": 13.289583333333333,
          "velocity": 0.6456692913385826
        },
        {
          "duration": 0.17395833333333321,
          "durationTicks": 167,
          "midi": 64,
          "name": "E4",
          "ticks": 12769,
          "time": 13.301041666666666,
          "velocity": 0.5354330708661418
        },
        {
          "duration": 0.19687500000000036,
          "durationTicks": 189,
          "midi": 74,
          "name": "D5",
          "ticks": 12936,
          "time": 13.475,
          "velocity": 0.5118110236220472
        },
        {
          "duration": 0.18541666666666679,
          "durationTicks": 178,
          "midi": 67,
          "name": "G4",
          "ticks": 12936,
          "time": 13.475,
          "velocity": 0.5826771653543307
        },
        {
          "duration": 0.18541666666666679,
          "durationTicks": 178,
          "midi": 64,
          "name": "E4",
          "ticks": 12936,
          "time": 13.475,
          "velocity": 0.5590551181102362
        },
        {
          "duration": 0.18541666666666679,
          "durationTicks": 178,
          "midi": 55,
          "name": "G3",
          "ticks": 12936,
          "time": 13.475,
          "velocity": 0.28346456692913385
        },
        {
          "duration": 0.47708333333333286,
          "durationTicks": 458,
          "midi": 67,
          "name": "G4",
          "ticks": 13115,
          "time": 13.661458333333334,
          "velocity": 0.3779527559055118
        },
        {
          "duration": 0.18541666666666679,
          "durationTicks": 178,
          "midi": 64,
          "name": "E4",
          "ticks": 13115,
          "time": 13.661458333333334,
          "velocity": 0.3464566929133858
        },
        {
          "duration": 0.26874999999999893,
          "durationTicks": 258,
          "midi": 60,
          "name": "C4",
          "ticks": 13115,
          "time": 13.661458333333334,
          "velocity": 0.4330708661417323
        },
        {
          "duration": 0.546875,
          "durationTicks": 525,
          "midi": 55,
          "name": "G3",
          "ticks": 13115,
          "time": 13.661458333333334,
          "velocity": 0.3937007874015748
        },
        {
          "duration": 0.20937499999999964,
          "durationTicks": 201,
          "midi": 74,
          "name": "D5",
          "ticks": 13126,
          "time": 13.672916666666667,
          "velocity": 0.36220472440944884
        },
        {
          "duration": 0.34999999999999964,
          "durationTicks": 336,
          "midi": 62,
          "name": "D4",
          "ticks": 13126,
          "time": 13.672916666666667,
          "velocity": 0.7086614173228346
        },
        {
          "duration": 0.17499999999999893,
          "durationTicks": 168,
          "midi": 64,
          "name": "E4",
          "ticks": 13293,
          "time": 13.846875,
          "velocity": 0.5039370078740157
        },
        {
          "duration": 0.19687500000000036,
          "durationTicks": 189,
          "midi": 64,
          "name": "E4",
          "ticks": 13461,
          "time": 14.021875,
          "velocity": 0.5984251968503937
        },
        {
          "duration": 0.7541666666666664,
          "durationTicks": 724,
          "midi": 62,
          "name": "D4",
          "ticks": 13461,
          "time": 14.021875,
          "velocity": 0.5826771653543307
        },
        {
          "duration": 0.19687499999999858,
          "durationTicks": 189,
          "midi": 55,
          "name": "G3",
          "ticks": 13640,
          "time": 14.208333333333334,
          "velocity": 0.6377952755905512
        },
        {
          "duration": 0.17395833333333321,
          "durationTicks": 167,
          "midi": 64,
          "name": "E4",
          "ticks": 13651,
          "time": 14.219791666666667,
          "velocity": 0.5826771653543307
        },
        {
          "duration": 0.18541666666666679,
          "durationTicks": 178,
          "midi": 31,
          "name": "G1",
          "ticks": 13796,
          "time": 14.370833333333334,
          "velocity": 0.6299212598425197
        },
        {
          "duration": 0.18541666666666679,
          "durationTicks": 178,
          "midi": 64,
          "name": "E4",
          "ticks": 13818,
          "time": 14.39375,
          "velocity": 0.4645669291338583
        },
        {
          "duration": 0.23229166666666679,
          "durationTicks": 223,
          "midi": 48,
          "name": "C3",
          "ticks": 13818,
          "time": 14.39375,
          "velocity": 0.5669291338582677
        },
        {
          "duration": 0.2906249999999986,
          "durationTicks": 279,
          "midi": 43,
          "name": "G2",
          "ticks": 13818,
          "time": 14.39375,
          "velocity": 0.3464566929133858
        },
        {
          "duration": 0.173958333333335,
          "durationTicks": 167,
          "midi": 55,
          "name": "G3",
          "ticks": 13829,
          "time": 14.405208333333333,
          "velocity": 0.3937007874015748
        },
        {
          "duration": 0.24375000000000036,
          "durationTicks": 234,
          "midi": 31,
          "name": "G1",
          "ticks": 13974,
          "time": 14.55625,
          "velocity": 0.5905511811023622
        },
        {
          "duration": 0.15104166666666607,
          "durationTicks": 145,
          "midi": 64,
          "name": "E4",
          "ticks": 13996,
          "time": 14.579166666666667,
          "velocity": 0.4881889763779528
        },
        {
          "duration": 0.19687499999999858,
          "durationTicks": 189,
          "midi": 55,
          "name": "G3",
          "ticks": 13996,
          "time": 14.579166666666667,
          "velocity": 0.5984251968503937
        },
        {
          "duration": 0.5458333333333325,
          "durationTicks": 524,
          "midi": 65,
          "name": "F4",
          "ticks": 14186,
          "time": 14.777083333333334,
          "velocity": 0.7086614173228346
        },
        {
          "duration": 0.3604166666666657,
          "durationTicks": 346,
          "midi": 62,
          "name": "D4",
          "ticks": 14186,
          "time": 14.777083333333334,
          "velocity": 0.5669291338582677
        },
        {
          "duration": 0.2666666666666657,
          "durationTicks": 256,
          "midi": 55,
          "name": "G3",
          "ticks": 14186,
          "time": 14.777083333333334,
          "velocity": 0.4015748031496063
        },
        {
          "duration": 0.1395833333333325,
          "durationTicks": 134,
          "midi": 43,
          "name": "G2",
          "ticks": 14186,
          "time": 14.777083333333334,
          "velocity": 0.3543307086614173
        },
        {
          "duration": 2.5322916666666657,
          "durationTicks": 2431,
          "midi": 36,
          "name": "C2",
          "ticks": 14208,
          "time": 14.8,
          "velocity": 0.6377952755905512
        },
        {
          "duration": 0.18541666666666679,
          "durationTicks": 178,
          "midi": 62,
          "name": "D4",
          "ticks": 14531,
          "time": 15.136458333333334,
          "velocity": 0.5826771653543307
        },
        {
          "duration": 0.37187500000000107,
          "durationTicks": 357,
          "midi": 65,
          "name": "F4",
          "ticks": 14710,
          "time": 15.322916666666666,
          "velocity": 0.7637795275590551
        },
        {
          "duration": 0.18541666666666679,
          "durationTicks": 178,
          "midi": 62,
          "name": "D4",
          "ticks": 14710,
          "time": 15.322916666666666,
          "velocity": 0.6614173228346457
        },
        {
          "duration": 0.18541666666666679,
          "durationTicks": 178,
          "midi": 62,
          "name": "D4",
          "ticks": 14888,
          "time": 15.508333333333333,
          "velocity": 0.5118110236220472
        },
        {
          "duration": 0.18541666666666679,
          "durationTicks": 178,
          "midi": 60,
          "name": "C4",
          "ticks": 14888,
          "time": 15.508333333333333,
          "velocity": 0.6220472440944882
        },
        {
          "duration": 0.19687500000000036,
          "durationTicks": 189,
          "midi": 72,
          "name": "C5",
          "ticks": 15055,
          "time": 15.682291666666666,
          "velocity": 0.6614173228346457
        },
        {
          "duration": 0.18541666666666679,
          "durationTicks": 178,
          "midi": 65,
          "name": "F4",
          "ticks": 15066,
          "time": 15.69375,
          "velocity": 0.6850393700787402
        },
        {
          "duration": 0.17395833333333321,
          "durationTicks": 167,
          "midi": 62,
          "name": "D4",
          "ticks": 15066,
          "time": 15.69375,
          "velocity": 0.44881889763779526
        },
        {
          "duration": 0.30312499999999964,
          "durationTicks": 291,
          "midi": 60,
          "name": "C4",
          "ticks": 15066,
          "time": 15.69375,
          "velocity": 0.4251968503937008
        },
        {
          "duration": 0.361458333333335,
          "durationTicks": 347,
          "midi": 74,
          "name": "D5",
          "ticks": 15233,
          "time": 15.867708333333333,
          "velocity": 0.6062992125984252
        },
        {
          "duration": 0.1750000000000007,
          "durationTicks": 168,
          "midi": 62,
          "name": "D4",
          "ticks": 15233,
          "time": 15.867708333333333,
          "velocity": 0.47244094488188976
        },
        {
          "duration": 0.17499999999999893,
          "durationTicks": 168,
          "midi": 72,
          "name": "C5",
          "ticks": 15245,
          "time": 15.880208333333334,
          "velocity": 0.4330708661417323
        },
        {
          "duration": 0.17499999999999893,
          "durationTicks": 168,
          "midi": 65,
          "name": "F4",
          "ticks": 15245,
          "time": 15.880208333333334,
          "velocity": 0.6850393700787402
        },
        {
          "duration": 0.6510416666666661,
          "durationTicks": 625,
          "midi": 55,
          "name": "G3",
          "ticks": 15256,
          "time": 15.891666666666667,
          "velocity": 0.33070866141732286
        },
        {
          "duration": 0.38333333333333286,
          "durationTicks": 368,
          "midi": 77,
          "name": "F5",
          "ticks": 15402,
          "time": 16.04375,
          "velocity": 0.5354330708661418
        },
        {
          "duration": 0.18541666666666856,
          "durationTicks": 178,
          "midi": 62,
          "name": "D4",
          "ticks": 15402,
          "time": 16.04375,
          "velocity": 0.41732283464566927
        },
        {
          "duration": 0.173958333333335,
          "durationTicks": 167,
          "midi": 72,
          "name": "C5",
          "ticks": 15413,
          "time": 16.055208333333333,
          "velocity": 0.4645669291338583
        },
        {
          "duration": 0.5572916666666679,
          "durationTicks": 535,
          "midi": 65,
          "name": "F4",
          "ticks": 15413,
          "time": 16.055208333333333,
          "velocity": 0.6614173228346457
        },
        {
          "duration": 0.19687499999999858,
          "durationTicks": 189,
          "midi": 74,
          "name": "D5",
          "ticks": 15580,
          "time": 16.229166666666668,
          "velocity": 0.6614173228346457
        },
        {
          "duration": 0.19687499999999858,
          "durationTicks": 189,
          "midi": 72,
          "name": "C5",
          "ticks": 15580,
          "time": 16.229166666666668,
          "velocity": 0.36220472440944884
        },
        {
          "duration": 0.19687499999999858,
          "durationTicks": 189,
          "midi": 62,
          "name": "D4",
          "ticks": 15580,
          "time": 16.229166666666668,
          "velocity": 0.5590551181102362
        },
        {
          "duration": 0.220833333333335,
          "durationTicks": 212,
          "midi": 77,
          "name": "F5",
          "ticks": 15770,
          "time": 16.427083333333332,
          "velocity": 0.5039370078740157
        },
        {
          "duration": 0.4989583333333343,
          "durationTicks": 479,
          "midi": 74,
          "name": "D5",
          "ticks": 15770,
          "time": 16.427083333333332,
          "velocity": 0.4330708661417323
        },
        {
          "duration": 0.20937500000000142,
          "durationTicks": 201,
          "midi": 72,
          "name": "C5",
          "ticks": 15770,
          "time": 16.427083333333332,
          "velocity": 0.6220472440944882
        },
        {
          "duration": 0.173958333333335,
          "durationTicks": 167,
          "midi": 62,
          "name": "D4",
          "ticks": 15770,
          "time": 16.427083333333332,
          "velocity": 0.5748031496062992
        },
        {
          "duration": 0.19687499999999858,
          "durationTicks": 189,
          "midi": 62,
          "name": "D4",
          "ticks": 15937,
          "time": 16.601041666666667,
          "velocity": 0.47244094488188976
        },
        {
          "duration": 0.185416666666665,
          "durationTicks": 178,
          "midi": 65,
          "name": "F4",
          "ticks": 15948,
          "time": 16.6125,
          "velocity": 0.6299212598425197
        },
        {
          "duration": 0.185416666666665,
          "durationTicks": 178,
          "midi": 60,
          "name": "C4",
          "ticks": 15948,
          "time": 16.6125,
          "velocity": 0.7322834645669292
        },
        {
          "duration": 0.2666666666666657,
          "durationTicks": 256,
          "midi": 55,
          "name": "G3",
          "ticks": 15948,
          "time": 16.6125,
          "velocity": 0.2992125984251969
        },
        {
          "duration": 0.18541666666666856,
          "durationTicks": 178,
          "midi": 65,
          "name": "F4",
          "ticks": 16126,
          "time": 16.797916666666666,
          "velocity": 0.7480314960629921
        },
        {
          "duration": 0.173958333333335,
          "durationTicks": 167,
          "midi": 62,
          "name": "D4",
          "ticks": 16126,
          "time": 16.797916666666666,
          "velocity": 0.3937007874015748
        },
        {
          "duration": 0.18541666666666856,
          "durationTicks": 178,
          "midi": 60,
          "name": "C4",
          "ticks": 16126,
          "time": 16.797916666666666,
          "velocity": 0.6299212598425197
        },
        {
          "duration": 0.3718749999999993,
          "durationTicks": 357,
          "midi": 62,
          "name": "D4",
          "ticks": 16294,
          "time": 16.972916666666666,
          "velocity": 0.5748031496062992
        },
        {
          "duration": 0.185416666666665,
          "durationTicks": 178,
          "midi": 65,
          "name": "F4",
          "ticks": 16305,
          "time": 16.984375,
          "velocity": 0.6220472440944882
        },
        {
          "duration": 0.185416666666665,
          "durationTicks": 178,
          "midi": 60,
          "name": "C4",
          "ticks": 16305,
          "time": 16.984375,
          "velocity": 0.4094488188976378
        },
        {
          "duration": 0.18541666666666856,
          "durationTicks": 178,
          "midi": 65,
          "name": "F4",
          "ticks": 16483,
          "time": 17.169791666666665,
          "velocity": 0.6220472440944882
        },
        {
          "duration": 0.20937500000000142,
          "durationTicks": 201,
          "midi": 60,
          "name": "C4",
          "ticks": 16483,
          "time": 17.169791666666665,
          "velocity": 0.5826771653543307
        },
        {
          "duration": 0.20937500000000142,
          "durationTicks": 201,
          "midi": 31,
          "name": "G1",
          "ticks": 16539,
          "time": 17.228125,
          "velocity": 0.4015748031496063
        },
        {
          "duration": 0.3718749999999993,
          "durationTicks": 357,
          "midi": 64,
          "name": "E4",
          "ticks": 16661,
          "time": 17.355208333333334,
          "velocity": 0.7637795275590551
        },
        {
          "duration": 0.3718749999999993,
          "durationTicks": 357,
          "midi": 48,
          "name": "C3",
          "ticks": 16661,
          "time": 17.355208333333334,
          "velocity": 0.6220472440944882
        },
        {
          "duration": 0.2781249999999993,
          "durationTicks": 267,
          "midi": 43,
          "name": "G2",
          "ticks": 16672,
          "time": 17.366666666666667,
          "velocity": 0.3464566929133858
        },
        {
          "duration": 0.16249999999999787,
          "durationTicks": 156,
          "midi": 31,
          "name": "G1",
          "ticks": 16739,
          "time": 17.436458333333334,
          "velocity": 0.6692913385826772
        },
        {
          "duration": 0.20937499999999787,
          "durationTicks": 201,
          "midi": 36,
          "name": "C2",
          "ticks": 16817,
          "time": 17.517708333333335,
          "velocity": 0.3543307086614173
        },
        {
          "duration": 0.2552083333333357,
          "durationTicks": 245,
          "midi": 31,
          "name": "G1",
          "ticks": 16895,
          "time": 17.598958333333332,
          "velocity": 0.5669291338582677
        },
        {
          "duration": 0.4541666666666657,
          "durationTicks": 436,
          "midi": 50,
          "name": "D3",
          "ticks": 17007,
          "time": 17.715625,
          "velocity": 0.5118110236220472
        },
        {
          "duration": 1.0927083333333343,
          "durationTicks": 1049,
          "midi": 64,
          "name": "E4",
          "ticks": 17018,
          "time": 17.727083333333333,
          "velocity": 0.7244094488188977
        },
        {
          "duration": 0.1750000000000007,
          "durationTicks": 168,
          "midi": 55,
          "name": "G3",
          "ticks": 17018,
          "time": 17.727083333333333,
          "velocity": 0.33070866141732286
        },
        {
          "duration": 2.5447916666666686,
          "durationTicks": 2443,
          "midi": 36,
          "name": "C2",
          "ticks": 17018,
          "time": 17.727083333333333,
          "velocity": 0.6692913385826772
        },
        {
          "duration": 0.6729166666666657,
          "durationTicks": 646,
          "midi": 55,
          "name": "G3",
          "ticks": 17186,
          "time": 17.902083333333334,
          "velocity": 0.4251968503937008
        },
        {
          "duration": 0.25520833333333215,
          "durationTicks": 245,
          "midi": 60,
          "name": "C4",
          "ticks": 17198,
          "time": 17.914583333333333,
          "velocity": 0.29133858267716534
        },
        {
          "duration": 0.18541666666666856,
          "durationTicks": 178,
          "midi": 67,
          "name": "G4",
          "ticks": 17543,
          "time": 18.273958333333333,
          "velocity": 0.5354330708661418
        },
        {
          "duration": 0.17395833333333144,
          "durationTicks": 167,
          "midi": 67,
          "name": "G4",
          "ticks": 17721,
          "time": 18.459375,
          "velocity": 0.4251968503937008
        },
        {
          "duration": 0.185416666666665,
          "durationTicks": 178,
          "midi": 62,
          "name": "D4",
          "ticks": 17721,
          "time": 18.459375,
          "velocity": 0.5590551181102362
        },
        {
          "duration": 0.18541666666666856,
          "durationTicks": 178,
          "midi": 67,
          "name": "G4",
          "ticks": 17889,
          "time": 18.634375,
          "velocity": 0.7401574803149606
        },
        {
          "duration": 0.46458333333333357,
          "durationTicks": 446,
          "midi": 62,
          "name": "D4",
          "ticks": 17900,
          "time": 18.645833333333332,
          "velocity": 0.44881889763779526
        },
        {
          "duration": 0.20937500000000142,
          "durationTicks": 201,
          "midi": 55,
          "name": "G3",
          "ticks": 17967,
          "time": 18.715625,
          "velocity": 0.29133858267716534
        },
        {
          "duration": 0.19687499999999858,
          "durationTicks": 189,
          "midi": 67,
          "name": "G4",
          "ticks": 18067,
          "time": 18.819791666666667,
          "velocity": 0.7401574803149606
        },
        {
          "duration": 0.19687499999999858,
          "durationTicks": 189,
          "midi": 64,
          "name": "E4",
          "ticks": 18067,
          "time": 18.819791666666667,
          "velocity": 0.6220472440944882
        },
        {
          "duration": 0.7541666666666664,
          "durationTicks": 724,
          "midi": 71,
          "name": "B4",
          "ticks": 18245,
          "time": 19.005208333333332,
          "velocity": 0.6456692913385826
        },
        {
          "duration": 0.173958333333335,
          "durationTicks": 167,
          "midi": 67,
          "name": "G4",
          "ticks": 18256,
          "time": 19.016666666666666,
          "velocity": 0.6456692913385826
        },
        {
          "duration": 0.173958333333335,
          "durationTicks": 167,
          "midi": 64,
          "name": "E4",
          "ticks": 18256,
          "time": 19.016666666666666,
          "velocity": 0.5826771653543307
        },
        {
          "duration": 0.18541666666666856,
          "durationTicks": 178,
          "midi": 76,
          "name": "E5",
          "ticks": 18424,
          "time": 19.191666666666666,
          "velocity": 0.6141732283464567
        },
        {
          "duration": 0.18541666666666856,
          "durationTicks": 178,
          "midi": 67,
          "name": "G4",
          "ticks": 18424,
          "time": 19.191666666666666,
          "velocity": 0.7165354330708661
        },
        {
          "duration": 0.18541666666666856,
          "durationTicks": 178,
          "midi": 64,
          "name": "E4",
          "ticks": 18424,
          "time": 19.191666666666666,
          "velocity": 0.5354330708661418
        },
        {
          "duration": 1,
          "durationTicks": 960,
          "midi": 48,
          "name": "C3",
          "ticks": 18502,
          "time": 19.272916666666667,
          "velocity": 0.4094488188976378
        },
        {
          "duration": 0.44166666666666643,
          "durationTicks": 424,
          "midi": 79,
          "name": "G5",
          "ticks": 18602,
          "time": 19.377083333333335,
          "velocity": 0.4645669291338583
        },
        {
          "duration": 0.17395833333333144,
          "durationTicks": 167,
          "midi": 76,
          "name": "E5",
          "ticks": 18602,
          "time": 19.377083333333335,
          "velocity": 0.4409448818897638
        },
        {
          "duration": 0.546875,
          "durationTicks": 525,
          "midi": 67,
          "name": "G4",
          "ticks": 18602,
          "time": 19.377083333333335,
          "velocity": 0.7401574803149606
        },
        {
          "duration": 0.5124999999999993,
          "durationTicks": 492,
          "midi": 64,
          "name": "E4",
          "ticks": 18602,
          "time": 19.377083333333335,
          "velocity": 0.3937007874015748
        },
        {
          "duration": 0.5583333333333336,
          "durationTicks": 536,
          "midi": 76,
          "name": "E5",
          "ticks": 18769,
          "time": 19.551041666666666,
          "velocity": 0.49606299212598426
        },
        {
          "duration": 0.19687499999999858,
          "durationTicks": 189,
          "midi": 62,
          "name": "D4",
          "ticks": 18769,
          "time": 19.551041666666666,
          "velocity": 0.36220472440944884
        },
        {
          "duration": 0.372916666666665,
          "durationTicks": 358,
          "midi": 62,
          "name": "D4",
          "ticks": 18959,
          "time": 19.748958333333334,
          "velocity": 0.4409448818897638
        },
        {
          "duration": 0.5,
          "durationTicks": 480,
          "midi": 71,
          "name": "B4",
          "ticks": 18970,
          "time": 19.760416666666668,
          "velocity": 0.6141732283464567
        },
        {
          "duration": 0.3718749999999993,
          "durationTicks": 357,
          "midi": 67,
          "name": "G4",
          "ticks": 19127,
          "time": 19.923958333333335,
          "velocity": 0.7559055118110236
        },
        {
          "duration": 0.185416666666665,
          "durationTicks": 178,
          "midi": 62,
          "name": "D4",
          "ticks": 19316,
          "time": 20.120833333333334,
          "velocity": 0.6141732283464567
        },
        {
          "duration": 0.16250000000000142,
          "durationTicks": 156,
          "midi": 43,
          "name": "G2",
          "ticks": 19328,
          "time": 20.133333333333333,
          "velocity": 0.48031496062992124
        },
        {
          "duration": 0.685416666666665,
          "durationTicks": 658,
          "midi": 67,
          "name": "G4",
          "ticks": 19484,
          "time": 20.295833333333334,
          "velocity": 0.5984251968503937
        },
        {
          "duration": 0.46458333333333357,
          "durationTicks": 446,
          "midi": 62,
          "name": "D4",
          "ticks": 19495,
          "time": 20.307291666666668,
          "velocity": 0.4330708661417323
        },
        {
          "duration": 0.17395833333333144,
          "durationTicks": 167,
          "midi": 43,
          "name": "G2",
          "ticks": 19495,
          "time": 20.307291666666668,
          "velocity": 0.47244094488188976
        },
        {
          "duration": 0.3604166666666657,
          "durationTicks": 346,
          "midi": 31,
          "name": "G1",
          "ticks": 19506,
          "time": 20.31875,
          "velocity": 0.5511811023622047
        },
        {
          "duration": 0.46458333333333357,
          "durationTicks": 446,
          "midi": 64,
          "name": "E4",
          "ticks": 19662,
          "time": 20.48125,
          "velocity": 0.4881889763779528
        },
        {
          "duration": 0.9406249999999972,
          "durationTicks": 903,
          "midi": 69,
          "name": "A4",
          "ticks": 19840,
          "time": 20.666666666666668,
          "velocity": 0.7007874015748031
        },
        {
          "duration": 0.185416666666665,
          "durationTicks": 178,
          "midi": 60,
          "name": "C4",
          "ticks": 19840,
          "time": 20.666666666666668,
          "velocity": 0.5275590551181102
        },
        {
          "duration": 0.34791666666666643,
          "durationTicks": 334,
          "midi": 53,
          "name": "F3",
          "ticks": 19840,
          "time": 20.666666666666668,
          "velocity": 0.4015748031496063
        },
        {
          "duration": 1.4989583333333307,
          "durationTicks": 1439,
          "midi": 41,
          "name": "F2",
          "ticks": 19840,
          "time": 20.666666666666668,
          "velocity": 0.44881889763779526
        },
        {
          "duration": 0.46458333333333357,
          "durationTicks": 446,
          "midi": 29,
          "name": "F1",
          "ticks": 19885,
          "time": 20.713541666666668,
          "velocity": 0.44881889763779526
        },
        {
          "duration": 0.18541666666666856,
          "durationTicks": 178,
          "midi": 60,
          "name": "C4",
          "ticks": 20019,
          "time": 20.853125,
          "velocity": 0.6220472440944882
        },
        {
          "duration": 0.3718749999999993,
          "durationTicks": 357,
          "midi": 60,
          "name": "C4",
          "ticks": 20197,
          "time": 21.038541666666667,
          "velocity": 0.5905511811023622
        },
        {
          "duration": 2.0093749999999986,
          "durationTicks": 1929,
          "midi": 29,
          "name": "F1",
          "ticks": 20342,
          "time": 21.189583333333335,
          "velocity": 0.6850393700787402
        },
        {
          "duration": 0.19687500000000213,
          "durationTicks": 189,
          "midi": 65,
          "name": "F4",
          "ticks": 20375,
          "time": 21.223958333333332,
          "velocity": 0.7086614173228346
        },
        {
          "duration": 0.19687499999999858,
          "durationTicks": 189,
          "midi": 67,
          "name": "G4",
          "ticks": 20554,
          "time": 21.410416666666666,
          "velocity": 0.6220472440944882
        },
        {
          "duration": 0.19687499999999858,
          "durationTicks": 189,
          "midi": 60,
          "name": "C4",
          "ticks": 20554,
          "time": 21.410416666666666,
          "velocity": 0.4645669291338583
        },
        {
          "duration": 0.173958333333335,
          "durationTicks": 167,
          "midi": 65,
          "name": "F4",
          "ticks": 20565,
          "time": 21.421875,
          "velocity": 0.49606299212598426
        },
        {
          "duration": 0.185416666666665,
          "durationTicks": 178,
          "midi": 65,
          "name": "F4",
          "ticks": 20732,
          "time": 21.595833333333335,
          "velocity": 0.6771653543307087
        },
        {
          "duration": 0.173958333333335,
          "durationTicks": 167,
          "midi": 69,
          "name": "A4",
          "ticks": 20743,
          "time": 21.607291666666665,
          "velocity": 0.7007874015748031
        },
        {
          "duration": 0.23229166666666856,
          "durationTicks": 223,
          "midi": 67,
          "name": "G4",
          "ticks": 20743,
          "time": 21.607291666666665,
          "velocity": 0.3700787401574803
        },
        {
          "duration": 0.16250000000000142,
          "durationTicks": 156,
          "midi": 60,
          "name": "C4",
          "ticks": 20743,
          "time": 21.607291666666665,
          "velocity": 0.4881889763779528
        },
        {
          "duration": 0.19895833333333357,
          "durationTicks": 191,
          "midi": 60,
          "name": "C4",
          "ticks": 20899,
          "time": 21.769791666666666,
          "velocity": 0.5669291338582677
        },
        {
          "duration": 0.1750000000000007,
          "durationTicks": 168,
          "midi": 69,
          "name": "A4",
          "ticks": 20910,
          "time": 21.78125,
          "velocity": 0.7559055118110236
        },
        {
          "duration": 0.1750000000000007,
          "durationTicks": 168,
          "midi": 65,
          "name": "F4",
          "ticks": 20910,
          "time": 21.78125,
          "velocity": 0.48031496062992124
        },
        {
          "duration": 0.18541666666666856,
          "durationTicks": 178,
          "midi": 72,
          "name": "C5",
          "ticks": 21079,
          "time": 21.957291666666666,
          "velocity": 0.7401574803149606
        },
        {
          "duration": 0.18541666666666856,
          "durationTicks": 178,
          "midi": 69,
          "name": "A4",
          "ticks": 21079,
          "time": 21.957291666666666,
          "velocity": 0.5748031496062992
        },
        {
          "duration": 0.173958333333335,
          "durationTicks": 167,
          "midi": 60,
          "name": "C4",
          "ticks": 21090,
          "time": 21.96875,
          "velocity": 0.5511811023622047
        },
        {
          "duration": 0.2781249999999993,
          "durationTicks": 267,
          "midi": 53,
          "name": "F3",
          "ticks": 21123,
          "time": 22.003125,
          "velocity": 0.2992125984251969
        },
        {
          "duration": 0.3604166666666657,
          "durationTicks": 346,
          "midi": 77,
          "name": "F5",
          "ticks": 21257,
          "time": 22.142708333333335,
          "velocity": 0.6141732283464567
        },
        {
          "duration": 0.185416666666665,
          "durationTicks": 178,
          "midi": 72,
          "name": "C5",
          "ticks": 21257,
          "time": 22.142708333333335,
          "velocity": 0.7165354330708661
        },
        {
          "duration": 0.185416666666665,
          "durationTicks": 178,
          "midi": 60,
          "name": "C4",
          "ticks": 21257,
          "time": 22.142708333333335,
          "velocity": 0.48031496062992124
        },
        {
          "duration": 0.24374999999999858,
          "durationTicks": 234,
          "midi": 79,
          "name": "G5",
          "ticks": 21435,
          "time": 22.328125,
          "velocity": 0.4881889763779528
        },
        {
          "duration": 0.3718749999999993,
          "durationTicks": 357,
          "midi": 72,
          "name": "C5",
          "ticks": 21435,
          "time": 22.328125,
          "velocity": 0.5669291338582677
        },
        {
          "duration": 0.185416666666665,
          "durationTicks": 178,
          "midi": 60,
          "name": "C4",
          "ticks": 21435,
          "time": 22.328125,
          "velocity": 0.5354330708661418
        },
        {
          "duration": 0.7197916666666657,
          "durationTicks": 691,
          "midi": 48,
          "name": "C3",
          "ticks": 21591,
          "time": 22.490625,
          "velocity": 0.3937007874015748
        },
        {
          "duration": 0.5104166666666643,
          "durationTicks": 490,
          "midi": 77,
          "name": "F5",
          "ticks": 21603,
          "time": 22.503125,
          "velocity": 0.47244094488188976
        },
        {
          "duration": 0.5687499999999979,
          "durationTicks": 546,
          "midi": 67,
          "name": "G4",
          "ticks": 21603,
          "time": 22.503125,
          "velocity": 0.6535433070866141
        },
        {
          "duration": 0.185416666666665,
          "durationTicks": 178,
          "midi": 60,
          "name": "C4",
          "ticks": 21614,
          "time": 22.514583333333334,
          "velocity": 0.5433070866141733
        },
        {
          "duration": 0.173958333333335,
          "durationTicks": 167,
          "midi": 72,
          "name": "C5",
          "ticks": 21792,
          "time": 22.7,
          "velocity": 0.6456692913385826
        },
        {
          "duration": 0.8479166666666664,
          "durationTicks": 814,
          "midi": 60,
          "name": "C4",
          "ticks": 21792,
          "time": 22.7,
          "velocity": 0.4566929133858268
        },
        {
          "duration": 0.34791666666666643,
          "durationTicks": 334,
          "midi": 71,
          "name": "B4",
          "ticks": 21959,
          "time": 22.873958333333334,
          "velocity": 0.5039370078740157
        },
        {
          "duration": 0.19687500000000213,
          "durationTicks": 189,
          "midi": 67,
          "name": "G4",
          "ticks": 22149,
          "time": 23.071875,
          "velocity": 0.7007874015748031
        },
        {
          "duration": 0.5458333333333343,
          "durationTicks": 524,
          "midi": 72,
          "name": "C5",
          "ticks": 22294,
          "time": 23.222916666666666,
          "velocity": 0.5511811023622047
        },
        {
          "duration": 0.185416666666665,
          "durationTicks": 178,
          "midi": 69,
          "name": "A4",
          "ticks": 22327,
          "time": 23.257291666666667,
          "velocity": 0.5511811023622047
        },
        {
          "duration": 0.17395833333333144,
          "durationTicks": 167,
          "midi": 67,
          "name": "G4",
          "ticks": 22338,
          "time": 23.26875,
          "velocity": 0.5669291338582677
        },
        {
          "duration": 0.453125,
          "durationTicks": 435,
          "midi": 31,
          "name": "G1",
          "ticks": 22338,
          "time": 23.26875,
          "velocity": 0.5275590551181102
        },
        {
          "duration": 0.173958333333335,
          "durationTicks": 167,
          "midi": 69,
          "name": "A4",
          "ticks": 22505,
          "time": 23.442708333333332,
          "velocity": 0.49606299212598426
        },
        {
          "duration": 0.27812500000000284,
          "durationTicks": 267,
          "midi": 67,
          "name": "G4",
          "ticks": 22505,
          "time": 23.442708333333332,
          "velocity": 0.5669291338582677
        },
        {
          "duration": 2.5333333333333314,
          "durationTicks": 2432,
          "midi": 36,
          "name": "C2",
          "ticks": 22661,
          "time": 23.605208333333334,
          "velocity": 0.7165354330708661
        },
        {
          "duration": 0.8375000000000021,
          "durationTicks": 804,
          "midi": 48,
          "name": "C3",
          "ticks": 22673,
          "time": 23.617708333333333,
          "velocity": 0.36220472440944884
        },
        {
          "duration": 1.1041666666666679,
          "durationTicks": 1060,
          "midi": 64,
          "name": "E4",
          "ticks": 22684,
          "time": 23.629166666666666,
          "velocity": 0.7401574803149606
        },
        {
          "duration": 0.20937500000000142,
          "durationTicks": 201,
          "midi": 67,
          "name": "G4",
          "ticks": 23209,
          "time": 24.176041666666666,
          "velocity": 0.4251968503937008
        },
        {
          "duration": 0.2906249999999986,
          "durationTicks": 279,
          "midi": 60,
          "name": "C4",
          "ticks": 23376,
          "time": 24.35,
          "velocity": 0.49606299212598426
        },
        {
          "duration": 0.5687499999999979,
          "durationTicks": 546,
          "midi": 55,
          "name": "G3",
          "ticks": 23376,
          "time": 24.35,
          "velocity": 0.4251968503937008
        },
        {
          "duration": 0.5104166666666679,
          "durationTicks": 490,
          "midi": 74,
          "name": "D5",
          "ticks": 23554,
          "time": 24.535416666666666,
          "velocity": 0.49606299212598426
        },
        {
          "duration": 0.185416666666665,
          "durationTicks": 178,
          "midi": 76,
          "name": "E5",
          "ticks": 23744,
          "time": 24.733333333333334,
          "velocity": 0.49606299212598426
        },
        {
          "duration": 0.185416666666665,
          "durationTicks": 178,
          "midi": 64,
          "name": "E4",
          "ticks": 23744,
          "time": 24.733333333333334,
          "velocity": 0.7322834645669292
        },
        {
          "duration": 0.18541666666666856,
          "durationTicks": 178,
          "midi": 79,
          "name": "G5",
          "ticks": 23922,
          "time": 24.91875,
          "velocity": 0.6771653543307087
        },
        {
          "duration": 0.173958333333335,
          "durationTicks": 167,
          "midi": 76,
          "name": "E5",
          "ticks": 23922,
          "time": 24.91875,
          "velocity": 0.4566929133858268
        },
        {
          "duration": 0.18541666666666856,
          "durationTicks": 178,
          "midi": 67,
          "name": "G4",
          "ticks": 23922,
          "time": 24.91875,
          "velocity": 0.31496062992125984
        },
        {
          "duration": 0.18541666666666856,
          "durationTicks": 178,
          "midi": 64,
          "name": "E4",
          "ticks": 23922,
          "time": 24.91875,
          "velocity": 0.7165354330708661
        },
        {
          "duration": 0.18541666666666856,
          "durationTicks": 178,
          "midi": 55,
          "name": "G3",
          "ticks": 23922,
          "time": 24.91875,
          "velocity": 0.48031496062992124
        },
        {
          "duration": 0.185416666666665,
          "durationTicks": 178,
          "midi": 76,
          "name": "E5",
          "ticks": 24089,
          "time": 25.092708333333334,
          "velocity": 0.5590551181102362
        },
        {
          "duration": 0.17395833333333144,
          "durationTicks": 167,
          "midi": 79,
          "name": "G5",
          "ticks": 24100,
          "time": 25.104166666666668,
          "velocity": 0.49606299212598426
        },
        {
          "duration": 0.185416666666665,
          "durationTicks": 178,
          "midi": 67,
          "name": "G4",
          "ticks": 24100,
          "time": 25.104166666666668,
          "velocity": 0.8110236220472441
        },
        {
          "duration": 0.17395833333333144,
          "durationTicks": 167,
          "midi": 64,
          "name": "E4",
          "ticks": 24100,
          "time": 25.104166666666668,
          "velocity": 0.7480314960629921
        },
        {
          "duration": 1.0229166666666671,
          "durationTicks": 982,
          "midi": 55,
          "name": "G3",
          "ticks": 24100,
          "time": 25.104166666666668,
          "velocity": 0.41732283464566927
        },
        {
          "duration": 0.8020833333333321,
          "durationTicks": 770,
          "midi": 48,
          "name": "C3",
          "ticks": 24123,
          "time": 25.128125,
          "velocity": 0.33858267716535434
        },
        {
          "duration": 0.20937500000000142,
          "durationTicks": 201,
          "midi": 79,
          "name": "G5",
          "ticks": 24268,
          "time": 25.279166666666665,
          "velocity": 0.4409448818897638
        },
        {
          "duration": 0.18541666666666856,
          "durationTicks": 178,
          "midi": 76,
          "name": "E5",
          "ticks": 24268,
          "time": 25.279166666666665,
          "velocity": 0.4015748031496063
        },
        {
          "duration": 0.19687500000000213,
          "durationTicks": 189,
          "midi": 74,
          "name": "D5",
          "ticks": 24268,
          "time": 25.279166666666665,
          "velocity": 0.5433070866141733
        },
        {
          "duration": 0.546875,
          "durationTicks": 525,
          "midi": 64,
          "name": "E4",
          "ticks": 24268,
          "time": 25.279166666666665,
          "velocity": 0.5669291338582677
        },
        {
          "duration": 0.18541666666666856,
          "durationTicks": 178,
          "midi": 67,
          "name": "G4",
          "ticks": 24279,
          "time": 25.290625,
          "velocity": 0.7637795275590551
        },
        {
          "duration": 0.2666666666666657,
          "durationTicks": 256,
          "midi": 76,
          "name": "E5",
          "ticks": 24446,
          "time": 25.464583333333334,
          "velocity": 0.33858267716535434
        },
        {
          "duration": 0.19687499999999858,
          "durationTicks": 189,
          "midi": 60,
          "name": "C4",
          "ticks": 24446,
          "time": 25.464583333333334,
          "velocity": 0.5905511811023622
        },
        {
          "duration": 0.25520833333333215,
          "durationTicks": 245,
          "midi": 74,
          "name": "D5",
          "ticks": 24457,
          "time": 25.476041666666667,
          "velocity": 0.4251968503937008
        },
        {
          "duration": 0.185416666666665,
          "durationTicks": 178,
          "midi": 67,
          "name": "G4",
          "ticks": 24457,
          "time": 25.476041666666667,
          "velocity": 0.6771653543307087
        },
        {
          "duration": 0.1750000000000007,
          "durationTicks": 168,
          "midi": 67,
          "name": "G4",
          "ticks": 24635,
          "time": 25.661458333333332,
          "velocity": 0.8031496062992126
        },
        {
          "duration": 0.23333333333333428,
          "durationTicks": 224,
          "midi": 60,
          "name": "C4",
          "ticks": 24635,
          "time": 25.661458333333332,
          "velocity": 0.4015748031496063
        },
        {
          "duration": 0.18541666666666856,
          "durationTicks": 178,
          "midi": 64,
          "name": "E4",
          "ticks": 24793,
          "time": 25.826041666666665,
          "velocity": 0.6692913385826772
        },
        {
          "duration": 0.7427083333333364,
          "durationTicks": 713,
          "midi": 67,
          "name": "G4",
          "ticks": 24804,
          "time": 25.8375,
          "velocity": 0.7165354330708661
        },
        {
          "duration": 0.47604166666666714,
          "durationTicks": 457,
          "midi": 64,
          "name": "E4",
          "ticks": 24971,
          "time": 26.011458333333334,
          "velocity": 0.47244094488188976
        },
        {
          "duration": 0.38333333333333286,
          "durationTicks": 368,
          "midi": 62,
          "name": "D4",
          "ticks": 24971,
          "time": 26.011458333333334,
          "velocity": 0.47244094488188976
        },
        {
          "duration": 0.34791666666666643,
          "durationTicks": 334,
          "midi": 48,
          "name": "C3",
          "ticks": 25149,
          "time": 26.196875,
          "velocity": 0.5826771653543307
        },
        {
          "duration": 0.627083333333335,
          "durationTicks": 602,
          "midi": 31,
          "name": "G1",
          "ticks": 25149,
          "time": 26.196875,
          "velocity": 0.49606299212598426
        },
        {
          "duration": 0.18541666666666856,
          "durationTicks": 178,
          "midi": 62,
          "name": "D4",
          "ticks": 25339,
          "time": 26.394791666666666,
          "velocity": 0.5118110236220472
        },
        {
          "duration": 0.33645833333333286,
          "durationTicks": 323,
          "midi": 67,
          "name": "G4",
          "ticks": 25517,
          "time": 26.580208333333335,
          "velocity": 0.4566929133858268
        },
        {
          "duration": 0.5458333333333307,
          "durationTicks": 524,
          "midi": 65,
          "name": "F4",
          "ticks": 25517,
          "time": 26.580208333333335,
          "velocity": 0.6614173228346457
        },
        {
          "duration": 0.185416666666665,
          "durationTicks": 178,
          "midi": 62,
          "name": "D4",
          "ticks": 25517,
          "time": 26.580208333333335,
          "velocity": 0.5590551181102362
        },
        {
          "duration": 2.555208333333333,
          "durationTicks": 2453,
          "midi": 38,
          "name": "D2",
          "ticks": 25517,
          "time": 26.580208333333335,
          "velocity": 0.6377952755905512
        },
        {
          "duration": 0.173958333333335,
          "durationTicks": 167,
          "midi": 62,
          "name": "D4",
          "ticks": 25695,
          "time": 26.765625,
          "velocity": 0.5275590551181102
        },
        {
          "duration": 0.3718749999999993,
          "durationTicks": 357,
          "midi": 62,
          "name": "D4",
          "ticks": 25863,
          "time": 26.940625,
          "velocity": 0.5196850393700787
        },
        {
          "duration": 0.15104166666666785,
          "durationTicks": 145,
          "midi": 64,
          "name": "E4",
          "ticks": 26041,
          "time": 27.126041666666666,
          "velocity": 0.4645669291338583
        },
        {
          "duration": 0.3718749999999993,
          "durationTicks": 357,
          "midi": 65,
          "name": "F4",
          "ticks": 26219,
          "time": 27.311458333333334,
          "velocity": 0.7086614173228346
        },
        {
          "duration": 0.185416666666665,
          "durationTicks": 178,
          "midi": 62,
          "name": "D4",
          "ticks": 26219,
          "time": 27.311458333333334,
          "velocity": 0.48031496062992124
        },
        {
          "duration": 0.18541666666666856,
          "durationTicks": 178,
          "midi": 67,
          "name": "G4",
          "ticks": 26398,
          "time": 27.497916666666665,
          "velocity": 0.7559055118110236
        },
        {
          "duration": 0.15104166666666785,
          "durationTicks": 145,
          "midi": 62,
          "name": "D4",
          "ticks": 26398,
          "time": 27.497916666666665,
          "velocity": 0.44881889763779526
        },
        {
          "duration": 0.1750000000000007,
          "durationTicks": 168,
          "midi": 67,
          "name": "G4",
          "ticks": 26576,
          "time": 27.683333333333334,
          "velocity": 0.6062992125984252
        },
        {
          "duration": 0.1875,
          "durationTicks": 180,
          "midi": 65,
          "name": "F4",
          "ticks": 26576,
          "time": 27.683333333333334,
          "velocity": 0.5748031496062992
        },
        {
          "duration": 0.1750000000000007,
          "durationTicks": 168,
          "midi": 62,
          "name": "D4",
          "ticks": 26576,
          "time": 27.683333333333334,
          "velocity": 0.31496062992125984
        },
        {
          "duration": 0.1750000000000007,
          "durationTicks": 168,
          "midi": 60,
          "name": "C4",
          "ticks": 26576,
          "time": 27.683333333333334,
          "velocity": 0.7165354330708661
        },
        {
          "duration": 0.1510416666666643,
          "durationTicks": 145,
          "midi": 67,
          "name": "G4",
          "ticks": 26744,
          "time": 27.858333333333334,
          "velocity": 0.5039370078740157
        },
        {
          "duration": 0.19687499999999858,
          "durationTicks": 189,
          "midi": 62,
          "name": "D4",
          "ticks": 26744,
          "time": 27.858333333333334,
          "velocity": 0.7165354330708661
        },
        {
          "duration": 0.30208333333333215,
          "durationTicks": 290,
          "midi": 60,
          "name": "C4",
          "ticks": 26744,
          "time": 27.858333333333334,
          "velocity": 0.4566929133858268
        },
        {
          "duration": 0.3604166666666657,
          "durationTicks": 346,
          "midi": 65,
          "name": "F4",
          "ticks": 26755,
          "time": 27.869791666666668,
          "velocity": 0.6299212598425197
        },
        {
          "duration": 0.6614583333333321,
          "durationTicks": 635,
          "midi": 50,
          "name": "D3",
          "ticks": 26811,
          "time": 27.928125,
          "velocity": 0.41732283464566927
        },
        {
          "duration": 0.18541666666666856,
          "durationTicks": 178,
          "midi": 69,
          "name": "A4",
          "ticks": 26923,
          "time": 28.044791666666665,
          "velocity": 0.6377952755905512
        },
        {
          "duration": 0.18541666666666856,
          "durationTicks": 178,
          "midi": 62,
          "name": "D4",
          "ticks": 26934,
          "time": 28.05625,
          "velocity": 0.5196850393700787
        },
        {
          "duration": 0.185416666666665,
          "durationTicks": 178,
          "midi": 74,
          "name": "D5",
          "ticks": 27101,
          "time": 28.230208333333334,
          "velocity": 0.5433070866141733
        },
        {
          "duration": 0.185416666666665,
          "durationTicks": 178,
          "midi": 69,
          "name": "A4",
          "ticks": 27101,
          "time": 28.230208333333334,
          "velocity": 0.6141732283464567
        },
        {
          "duration": 0.9291666666666671,
          "durationTicks": 892,
          "midi": 65,
          "name": "F4",
          "ticks": 27101,
          "time": 28.230208333333334,
          "velocity": 0.5511811023622047
        },
        {
          "duration": 0.17395833333333144,
          "durationTicks": 167,
          "midi": 62,
          "name": "D4",
          "ticks": 27112,
          "time": 28.241666666666667,
          "velocity": 0.6220472440944882
        },
        {
          "duration": 0.18541666666666856,
          "durationTicks": 178,
          "midi": 74,
          "name": "D5",
          "ticks": 27279,
          "time": 28.415625,
          "velocity": 0.6299212598425197
        },
        {
          "duration": 0.16250000000000142,
          "durationTicks": 156,
          "midi": 69,
          "name": "A4",
          "ticks": 27279,
          "time": 28.415625,
          "velocity": 0.44881889763779526
        },
        {
          "duration": 0.18541666666666856,
          "durationTicks": 178,
          "midi": 62,
          "name": "D4",
          "ticks": 27279,
          "time": 28.415625,
          "velocity": 0.6220472440944882
        },
        {
          "duration": 0.29062500000000213,
          "durationTicks": 279,
          "midi": 76,
          "name": "E5",
          "ticks": 27458,
          "time": 28.602083333333333,
          "velocity": 0.4251968503937008
        },
        {
          "duration": 0.18541666666666856,
          "durationTicks": 178,
          "midi": 74,
          "name": "D5",
          "ticks": 27458,
          "time": 28.602083333333333,
          "velocity": 0.47244094488188976
        },
        {
          "duration": 0.18541666666666856,
          "durationTicks": 178,
          "midi": 62,
          "name": "D4",
          "ticks": 27458,
          "time": 28.602083333333333,
          "velocity": 0.5826771653543307
        },
        {
          "duration": 0.185416666666665,
          "durationTicks": 178,
          "midi": 79,
          "name": "G5",
          "ticks": 27636,
          "time": 28.7875,
          "velocity": 0.31496062992125984
        },
        {
          "duration": 0.20937499999999787,
          "durationTicks": 201,
          "midi": 74,
          "name": "D5",
          "ticks": 27636,
          "time": 28.7875,
          "velocity": 0.3858267716535433
        },
        {
          "duration": 0.185416666666665,
          "durationTicks": 178,
          "midi": 67,
          "name": "G4",
          "ticks": 27636,
          "time": 28.7875,
          "velocity": 0.8110236220472441
        },
        {
          "duration": 0.3249999999999993,
          "durationTicks": 312,
          "midi": 62,
          "name": "D4",
          "ticks": 27636,
          "time": 28.7875,
          "velocity": 0.33070866141732286
        },
        {
          "duration": 0.38333333333333286,
          "durationTicks": 368,
          "midi": 79,
          "name": "G5",
          "ticks": 27814,
          "time": 28.972916666666666,
          "velocity": 0.44881889763779526
        },
        {
          "duration": 0.6041666666666679,
          "durationTicks": 580,
          "midi": 67,
          "name": "G4",
          "ticks": 27814,
          "time": 28.972916666666666,
          "velocity": 0.5748031496062992
        },
        {
          "duration": 0.732291666666665,
          "durationTicks": 703,
          "midi": 31,
          "name": "G1",
          "ticks": 27970,
          "time": 29.135416666666668,
          "velocity": 0.48031496062992124
        },
        {
          "duration": 0.38333333333333286,
          "durationTicks": 368,
          "midi": 65,
          "name": "F4",
          "ticks": 27993,
          "time": 29.159375,
          "velocity": 0.5984251968503937
        },
        {
          "duration": 0.17395833333333144,
          "durationTicks": 167,
          "midi": 50,
          "name": "D3",
          "ticks": 27993,
          "time": 29.159375,
          "velocity": 0.2992125984251969
        },
        {
          "duration": 0.3135416666666657,
          "durationTicks": 301,
          "midi": 48,
          "name": "C3",
          "ticks": 27993,
          "time": 29.159375,
          "velocity": 0.44881889763779526
        },
        {
          "duration": 0.6052083333333336,
          "durationTicks": 581,
          "midi": 43,
          "name": "G2",
          "ticks": 28026,
          "time": 29.19375,
          "velocity": 0.3858267716535433
        },
        {
          "duration": 0.20937500000000142,
          "durationTicks": 201,
          "midi": 50,
          "name": "D3",
          "ticks": 28160,
          "time": 29.333333333333332,
          "velocity": 0.5511811023622047
        },
        {
          "duration": 1.4989583333333307,
          "durationTicks": 1439,
          "midi": 40,
          "name": "E2",
          "ticks": 28349,
          "time": 29.530208333333334,
          "velocity": 0.6456692913385826
        },
        {
          "duration": 0.5354166666666664,
          "durationTicks": 514,
          "midi": 64,
          "name": "E4",
          "ticks": 28360,
          "time": 29.541666666666668,
          "velocity": 0.5590551181102362
        },
        {
          "duration": 0.3843749999999986,
          "durationTicks": 369,
          "midi": 52,
          "name": "E3",
          "ticks": 28360,
          "time": 29.541666666666668,
          "velocity": 0.4409448818897638
        },
        {
          "duration": 1.0458333333333343,
          "durationTicks": 1004,
          "midi": 62,
          "name": "D4",
          "ticks": 28539,
          "time": 29.728125,
          "velocity": 0.3543307086614173
        },
        {
          "duration": 0.4770833333333364,
          "durationTicks": 458,
          "midi": 55,
          "name": "G3",
          "ticks": 28539,
          "time": 29.728125,
          "velocity": 0.4015748031496063
        },
        {
          "duration": 0.4989583333333343,
          "durationTicks": 479,
          "midi": 59,
          "name": "B3",
          "ticks": 28696,
          "time": 29.891666666666666,
          "velocity": 0.4645669291338583
        },
        {
          "duration": 0.185416666666665,
          "durationTicks": 178,
          "midi": 67,
          "name": "G4",
          "ticks": 28874,
          "time": 30.077083333333334,
          "velocity": 0.7637795275590551
        },
        {
          "duration": 0.185416666666665,
          "durationTicks": 178,
          "midi": 64,
          "name": "E4",
          "ticks": 28874,
          "time": 30.077083333333334,
          "velocity": 0.6062992125984252
        },
        {
          "duration": 0.18541666666666856,
          "durationTicks": 178,
          "midi": 67,
          "name": "G4",
          "ticks": 29053,
          "time": 30.263541666666665,
          "velocity": 0.6377952755905512
        },
        {
          "duration": 0.18541666666666856,
          "durationTicks": 178,
          "midi": 64,
          "name": "E4",
          "ticks": 29053,
          "time": 30.263541666666665,
          "velocity": 0.7244094488188977
        },
        {
          "duration": 0.185416666666665,
          "durationTicks": 178,
          "midi": 67,
          "name": "G4",
          "ticks": 29231,
          "time": 30.448958333333334,
          "velocity": 0.7716535433070866
        },
        {
          "duration": 0.185416666666665,
          "durationTicks": 178,
          "midi": 64,
          "name": "E4",
          "ticks": 29231,
          "time": 30.448958333333334,
          "velocity": 0.6929133858267716
        },
        {
          "duration": 0.6270833333333314,
          "durationTicks": 602,
          "midi": 52,
          "name": "E3",
          "ticks": 29231,
          "time": 30.448958333333334,
          "velocity": 0.3543307086614173
        },
        {
          "duration": 0.18541666666666856,
          "durationTicks": 178,
          "midi": 71,
          "name": "B4",
          "ticks": 29409,
          "time": 30.634375,
          "velocity": 0.6850393700787402
        },
        {
          "duration": 0.173958333333335,
          "durationTicks": 167,
          "midi": 67,
          "name": "G4",
          "ticks": 29409,
          "time": 30.634375,
          "velocity": 0.6299212598425197
        },
        {
          "duration": 0.18541666666666856,
          "durationTicks": 178,
          "midi": 64,
          "name": "E4",
          "ticks": 29409,
          "time": 30.634375,
          "velocity": 0.5826771653543307
        },
        {
          "duration": 0.18541666666666856,
          "durationTicks": 178,
          "midi": 79,
          "name": "G5",
          "ticks": 29577,
          "time": 30.809375,
          "velocity": 0.7716535433070866
        },
        {
          "duration": 0.38333333333333286,
          "durationTicks": 368,
          "midi": 67,
          "name": "G4",
          "ticks": 29577,
          "time": 30.809375,
          "velocity": 0.4251968503937008
        },
        {
          "duration": 0.173958333333335,
          "durationTicks": 167,
          "midi": 71,
          "name": "B4",
          "ticks": 29588,
          "time": 30.820833333333333,
          "velocity": 0.5905511811023622
        },
        {
          "duration": 0.18541666666666856,
          "durationTicks": 178,
          "midi": 64,
          "name": "E4",
          "ticks": 29588,
          "time": 30.820833333333333,
          "velocity": 0.5511811023622047
        },
        {
          "duration": 0.20937499999999787,
          "durationTicks": 201,
          "midi": 79,
          "name": "G5",
          "ticks": 29755,
          "time": 30.994791666666668,
          "velocity": 0.5433070866141733
        },
        {
          "duration": 0.7666666666666657,
          "durationTicks": 736,
          "midi": 71,
          "name": "B4",
          "ticks": 29755,
          "time": 30.994791666666668,
          "velocity": 0.6141732283464567
        },
        {
          "duration": 0.3718749999999993,
          "durationTicks": 357,
          "midi": 64,
          "name": "E4",
          "ticks": 29766,
          "time": 31.00625,
          "velocity": 0.6377952755905512
        },
        {
          "duration": 1.6614583333333321,
          "durationTicks": 1595,
          "midi": 35,
          "name": "B1",
          "ticks": 29833,
          "time": 31.076041666666665,
          "velocity": 0.6299212598425197
        },
        {
          "duration": 0.18541666666666856,
          "durationTicks": 178,
          "midi": 67,
          "name": "G4",
          "ticks": 29944,
          "time": 31.191666666666666,
          "velocity": 0.7401574803149606
        },
        {
          "duration": 0.185416666666665,
          "durationTicks": 178,
          "midi": 67,
          "name": "G4",
          "ticks": 30123,
          "time": 31.378125,
          "velocity": 0.7086614173228346
        },
        {
          "duration": 0.185416666666665,
          "durationTicks": 178,
          "midi": 64,
          "name": "E4",
          "ticks": 30123,
          "time": 31.378125,
          "velocity": 0.7322834645669292
        },
        {
          "duration": 0.25520833333333215,
          "durationTicks": 245,
          "midi": 62,
          "name": "D4",
          "ticks": 30145,
          "time": 31.401041666666668,
          "velocity": 0.3228346456692913
        },
        {
          "duration": 0.18541666666666856,
          "durationTicks": 178,
          "midi": 67,
          "name": "G4",
          "ticks": 30301,
          "time": 31.563541666666666,
          "velocity": 0.7637795275590551
        },
        {
          "duration": 0.18541666666666856,
          "durationTicks": 178,
          "midi": 64,
          "name": "E4",
          "ticks": 30301,
          "time": 31.563541666666666,
          "velocity": 0.6771653543307087
        },
        {
          "duration": 0.19895833333333357,
          "durationTicks": 191,
          "midi": 67,
          "name": "G4",
          "ticks": 30479,
          "time": 31.748958333333334,
          "velocity": 0.6062992125984252
        },
        {
          "duration": 0.4427083333333357,
          "durationTicks": 425,
          "midi": 64,
          "name": "E4",
          "ticks": 30479,
          "time": 31.748958333333334,
          "velocity": 0.5826771653543307
        },
        {
          "duration": 0.23333333333333073,
          "durationTicks": 224,
          "midi": 59,
          "name": "B3",
          "ticks": 30479,
          "time": 31.748958333333334,
          "velocity": 0.5275590551181102
        },
        {
          "duration": 0.3718749999999993,
          "durationTicks": 357,
          "midi": 55,
          "name": "G3",
          "ticks": 30648,
          "time": 31.925,
          "velocity": 0.5826771653543307
        },
        {
          "duration": 0.15104166666666785,
          "durationTicks": 145,
          "midi": 60,
          "name": "C4",
          "ticks": 30703,
          "time": 31.982291666666665,
          "velocity": 0.5354330708661418
        },
        {
          "duration": 0.18541666666666856,
          "durationTicks": 178,
          "midi": 62,
          "name": "D4",
          "ticks": 30826,
          "time": 32.110416666666666,
          "velocity": 0.7007874015748031
        },
        {
          "duration": 0.33645833333333286,
          "durationTicks": 323,
          "midi": 52,
          "name": "E3",
          "ticks": 30826,
          "time": 32.110416666666666,
          "velocity": 0.5433070866141733
        },
        {
          "duration": 0.18541666666666856,
          "durationTicks": 178,
          "midi": 62,
          "name": "D4",
          "ticks": 31004,
          "time": 32.295833333333334,
          "velocity": 0.6614173228346457
        },
        {
          "duration": 0.3604166666666657,
          "durationTicks": 346,
          "midi": 55,
          "name": "G3",
          "ticks": 31004,
          "time": 32.295833333333334,
          "velocity": 0.5669291338582677
        },
        {
          "duration": 0.16250000000000142,
          "durationTicks": 156,
          "midi": 60,
          "name": "C4",
          "ticks": 31016,
          "time": 32.30833333333333,
          "velocity": 0.3700787401574803
        },
        {
          "duration": 0.7427083333333329,
          "durationTicks": 713,
          "midi": 62,
          "name": "D4",
          "ticks": 31183,
          "time": 32.48229166666667,
          "velocity": 0.7165354330708661
        },
        {
          "duration": 0.37187499999999574,
          "durationTicks": 357,
          "midi": 60,
          "name": "C4",
          "ticks": 31183,
          "time": 32.48229166666667,
          "velocity": 0.49606299212598426
        },
        {
          "duration": 0.17395833333333144,
          "durationTicks": 167,
          "midi": 55,
          "name": "G3",
          "ticks": 31539,
          "time": 32.853125,
          "velocity": 0.30708661417322836
        },
        {
          "duration": 0.33645833333333286,
          "durationTicks": 323,
          "midi": 53,
          "name": "F3",
          "ticks": 31539,
          "time": 32.853125,
          "velocity": 0.5039370078740157
        },
        {
          "duration": 0.7781250000000028,
          "durationTicks": 747,
          "midi": 36,
          "name": "C2",
          "ticks": 31539,
          "time": 32.853125,
          "velocity": 0.6141732283464567
        },
        {
          "duration": 0.18541666666666856,
          "durationTicks": 178,
          "midi": 57,
          "name": "A3",
          "ticks": 31718,
          "time": 33.03958333333333,
          "velocity": 0.6850393700787402
        },
        {
          "duration": 0.3604166666666657,
          "durationTicks": 346,
          "midi": 62,
          "name": "D4",
          "ticks": 31896,
          "time": 33.225,
          "velocity": 0.7086614173228346
        },
        {
          "duration": 0.2906249999999986,
          "durationTicks": 279,
          "midi": 60,
          "name": "C4",
          "ticks": 31896,
          "time": 33.225,
          "velocity": 0.4094488188976378
        },
        {
          "duration": 0.16250000000000142,
          "durationTicks": 156,
          "midi": 57,
          "name": "A3",
          "ticks": 31896,
          "time": 33.225,
          "velocity": 0.44881889763779526
        },
        {
          "duration": 0.18541666666666146,
          "durationTicks": 178,
          "midi": 65,
          "name": "F4",
          "ticks": 32074,
          "time": 33.41041666666667,
          "velocity": 0.6771653543307087
        },
        {
          "duration": 0.1875,
          "durationTicks": 180,
          "midi": 69,
          "name": "A4",
          "ticks": 32242,
          "time": 33.58541666666667,
          "velocity": 0.7559055118110236
        },
        {
          "duration": 0.1875,
          "durationTicks": 180,
          "midi": 62,
          "name": "D4",
          "ticks": 32242,
          "time": 33.58541666666667,
          "velocity": 0.5984251968503937
        },
        {
          "duration": 1.0697916666666671,
          "durationTicks": 1027,
          "midi": 50,
          "name": "D3",
          "ticks": 32242,
          "time": 33.58541666666667,
          "velocity": 0.3937007874015748
        },
        {
          "duration": 1.6614583333333357,
          "durationTicks": 1595,
          "midi": 31,
          "name": "G1",
          "ticks": 32242,
          "time": 33.58541666666667,
          "velocity": 0.6850393700787402
        },
        {
          "duration": 0.17500000000000426,
          "durationTicks": 168,
          "midi": 65,
          "name": "F4",
          "ticks": 32253,
          "time": 33.596875,
          "velocity": 0.5511811023622047
        },
        {
          "duration": 0.17395833333333144,
          "durationTicks": 167,
          "midi": 69,
          "name": "A4",
          "ticks": 32421,
          "time": 33.771875,
          "velocity": 0.6062992125984252
        },
        {
          "duration": 0.18541666666666856,
          "durationTicks": 178,
          "midi": 65,
          "name": "F4",
          "ticks": 32421,
          "time": 33.771875,
          "velocity": 0.7716535433070866
        },
        {
          "duration": 0.17395833333333144,
          "durationTicks": 167,
          "midi": 62,
          "name": "D4",
          "ticks": 32421,
          "time": 33.771875,
          "velocity": 0.5196850393700787
        },
        {
          "duration": 0.18541666666666856,
          "durationTicks": 178,
          "midi": 74,
          "name": "D5",
          "ticks": 32588,
          "time": 33.94583333333333,
          "velocity": 0.5354330708661418
        },
        {
          "duration": 0.33645833333333286,
          "durationTicks": 323,
          "midi": 69,
          "name": "A4",
          "ticks": 32588,
          "time": 33.94583333333333,
          "velocity": 0.49606299212598426
        },
        {
          "duration": 0.18541666666666856,
          "durationTicks": 178,
          "midi": 62,
          "name": "D4",
          "ticks": 32588,
          "time": 33.94583333333333,
          "velocity": 0.5511811023622047
        },
        {
          "duration": 0.17395833333333144,
          "durationTicks": 167,
          "midi": 65,
          "name": "F4",
          "ticks": 32599,
          "time": 33.95729166666667,
          "velocity": 0.7401574803149606
        },
        {
          "duration": 0.18541666666666856,
          "durationTicks": 178,
          "midi": 79,
          "name": "G5",
          "ticks": 32767,
          "time": 34.13229166666667,
          "velocity": 0.6220472440944882
        },
        {
          "duration": 0.18541666666666856,
          "durationTicks": 178,
          "midi": 74,
          "name": "D5",
          "ticks": 32767,
          "time": 34.13229166666667,
          "velocity": 0.4645669291338583
        },
        {
          "duration": 0.38333333333333286,
          "durationTicks": 368,
          "midi": 65,
          "name": "F4",
          "ticks": 32767,
          "time": 34.13229166666667,
          "velocity": 0.5196850393700787
        },
        {
          "duration": 0.18541666666666856,
          "durationTicks": 178,
          "midi": 62,
          "name": "D4",
          "ticks": 32767,
          "time": 34.13229166666667,
          "velocity": 0.5118110236220472
        },
        {
          "duration": 0.33645833333333286,
          "durationTicks": 323,
          "midi": 79,
          "name": "G5",
          "ticks": 32945,
          "time": 34.317708333333336,
          "velocity": 0.5748031496062992
        },
        {
          "duration": 0.19687499999999858,
          "durationTicks": 189,
          "midi": 74,
          "name": "D5",
          "ticks": 32945,
          "time": 34.317708333333336,
          "velocity": 0.5905511811023622
        },
        {
          "duration": 0.19687499999999858,
          "durationTicks": 189,
          "midi": 62,
          "name": "D4",
          "ticks": 32945,
          "time": 34.317708333333336,
          "velocity": 0.5984251968503937
        },
        {
          "duration": 0.7197916666666657,
          "durationTicks": 691,
          "midi": 43,
          "name": "G2",
          "ticks": 33068,
          "time": 34.44583333333333,
          "velocity": 0.4094488188976378
        },
        {
          "duration": 0.38333333333333286,
          "durationTicks": 368,
          "midi": 74,
          "name": "D5",
          "ticks": 33134,
          "time": 34.514583333333334,
          "velocity": 0.49606299212598426
        },
        {
          "duration": 0.6854166666666686,
          "durationTicks": 658,
          "midi": 71,
          "name": "B4",
          "ticks": 33134,
          "time": 34.514583333333334,
          "velocity": 0.5511811023622047
        },
        {
          "duration": 0.18541666666666856,
          "durationTicks": 178,
          "midi": 62,
          "name": "D4",
          "ticks": 33134,
          "time": 34.514583333333334,
          "velocity": 0.5984251968503937
        },
        {
          "duration": 0.19687499999999858,
          "durationTicks": 189,
          "midi": 67,
          "name": "G4",
          "ticks": 33302,
          "time": 34.68958333333333,
          "velocity": 0.7007874015748031
        },
        {
          "duration": 0.18541666666666146,
          "durationTicks": 178,
          "midi": 62,
          "name": "D4",
          "ticks": 33313,
          "time": 34.70104166666667,
          "velocity": 0.6062992125984252
        },
        {
          "duration": 0.22083333333333144,
          "durationTicks": 212,
          "midi": 55,
          "name": "G3",
          "ticks": 33324,
          "time": 34.7125,
          "velocity": 0.3700787401574803
        },
        {
          "duration": 0.40625,
          "durationTicks": 390,
          "midi": 67,
          "name": "G4",
          "ticks": 33491,
          "time": 34.88645833333333,
          "velocity": 0.5905511811023622
        },
        {
          "duration": 0.18541666666666856,
          "durationTicks": 178,
          "midi": 62,
          "name": "D4",
          "ticks": 33491,
          "time": 34.88645833333333,
          "velocity": 0.7007874015748031
        },
        {
          "duration": 0.18541666666666856,
          "durationTicks": 178,
          "midi": 62,
          "name": "D4",
          "ticks": 33669,
          "time": 35.071875,
          "velocity": 0.8031496062992126
        },
        {
          "duration": 0.13958333333333428,
          "durationTicks": 134,
          "midi": 62,
          "name": "D4",
          "ticks": 33848,
          "time": 35.25833333333333,
          "velocity": 0.6062992125984252
        },
        {
          "duration": 0.24374999999999858,
          "durationTicks": 234,
          "midi": 59,
          "name": "B3",
          "ticks": 33848,
          "time": 35.25833333333333,
          "velocity": 0.5433070866141733
        },
        {
          "duration": 0.41874999999999574,
          "durationTicks": 402,
          "midi": 65,
          "name": "F4",
          "ticks": 33959,
          "time": 35.373958333333334,
          "velocity": 0.6299212598425197
        },
        {
          "duration": 0.19687500000000568,
          "durationTicks": 189,
          "midi": 56,
          "name": "G#3",
          "ticks": 34015,
          "time": 35.432291666666664,
          "velocity": 0.47244094488188976
        },
        {
          "duration": 0.36145833333333854,
          "durationTicks": 347,
          "midi": 49,
          "name": "C#3",
          "ticks": 34015,
          "time": 35.432291666666664,
          "velocity": 0.49606299212598426
        },
        {
          "duration": 0.3500000000000014,
          "durationTicks": 336,
          "midi": 37,
          "name": "C#2",
          "ticks": 34015,
          "time": 35.432291666666664,
          "velocity": 0.5118110236220472
        },
        {
          "duration": 0.16354166666666003,
          "durationTicks": 157,
          "midi": 56,
          "name": "G#3",
          "ticks": 34204,
          "time": 35.62916666666667,
          "velocity": 0.6299212598425197
        },
        {
          "duration": 0.7427083333333329,
          "durationTicks": 713,
          "midi": 37,
          "name": "C#2",
          "ticks": 34351,
          "time": 35.782291666666666,
          "velocity": 0.5748031496062992
        },
        {
          "duration": 0.18541666666666146,
          "durationTicks": 178,
          "midi": 65,
          "name": "F4",
          "ticks": 34362,
          "time": 35.79375,
          "velocity": 0.5984251968503937
        },
        {
          "duration": 0.18541666666666146,
          "durationTicks": 178,
          "midi": 61,
          "name": "C#4",
          "ticks": 34362,
          "time": 35.79375,
          "velocity": 0.5590551181102362
        },
        {
          "duration": 0.17395833333333144,
          "durationTicks": 167,
          "midi": 56,
          "name": "G#3",
          "ticks": 34362,
          "time": 35.79375,
          "velocity": 0.4881889763779528
        },
        {
          "duration": 0.16249999999999432,
          "durationTicks": 156,
          "midi": 49,
          "name": "C#3",
          "ticks": 34362,
          "time": 35.79375,
          "velocity": 0.5433070866141733
        },
        {
          "duration": 0.19687499999999858,
          "durationTicks": 189,
          "midi": 56,
          "name": "G#3",
          "ticks": 34529,
          "time": 35.967708333333334,
          "velocity": 0.4251968503937008
        },
        {
          "duration": 0.19687500000000568,
          "durationTicks": 189,
          "midi": 65,
          "name": "F4",
          "ticks": 34540,
          "time": 35.979166666666664,
          "velocity": 0.3858267716535433
        },
        {
          "duration": 0.2552083333333357,
          "durationTicks": 245,
          "midi": 63,
          "name": "D#4",
          "ticks": 34540,
          "time": 35.979166666666664,
          "velocity": 0.5354330708661418
        },
        {
          "duration": 0.19687500000000568,
          "durationTicks": 189,
          "midi": 61,
          "name": "C#4",
          "ticks": 34540,
          "time": 35.979166666666664,
          "velocity": 0.3543307086614173
        },
        {
          "duration": 0.18541666666666856,
          "durationTicks": 178,
          "midi": 56,
          "name": "G#3",
          "ticks": 34718,
          "time": 36.16458333333333,
          "velocity": 0.41732283464566927
        },
        {
          "duration": 0.17395833333333144,
          "durationTicks": 167,
          "midi": 65,
          "name": "F4",
          "ticks": 34730,
          "time": 36.177083333333336,
          "velocity": 0.6771653543307087
        },
        {
          "duration": 0.17395833333333144,
          "durationTicks": 167,
          "midi": 61,
          "name": "C#4",
          "ticks": 34730,
          "time": 36.177083333333336,
          "velocity": 0.6220472440944882
        },
        {
          "duration": 0.3135416666666657,
          "durationTicks": 301,
          "midi": 68,
          "name": "G#4",
          "ticks": 34897,
          "time": 36.35104166666667,
          "velocity": 0.5039370078740157
        },
        {
          "duration": 0.19687499999999858,
          "durationTicks": 189,
          "midi": 65,
          "name": "F4",
          "ticks": 34897,
          "time": 36.35104166666667,
          "velocity": 0.7244094488188977
        },
        {
          "duration": 0.18541666666666856,
          "durationTicks": 178,
          "midi": 61,
          "name": "C#4",
          "ticks": 34897,
          "time": 36.35104166666667,
          "velocity": 0.3543307086614173
        },
        {
          "duration": 0.18541666666666856,
          "durationTicks": 178,
          "midi": 56,
          "name": "G#3",
          "ticks": 34897,
          "time": 36.35104166666667,
          "velocity": 0.5590551181102362
        },
        {
          "duration": 0.75416666666667,
          "durationTicks": 724,
          "midi": 37,
          "name": "C#2",
          "ticks": 35064,
          "time": 36.525,
          "velocity": 0.6220472440944882
        },
        {
          "duration": 0.37187499999999574,
          "durationTicks": 357,
          "midi": 73,
          "name": "C#5",
          "ticks": 35075,
          "time": 36.536458333333336,
          "velocity": 0.47244094488188976
        },
        {
          "duration": 0.2552083333333286,
          "durationTicks": 245,
          "midi": 61,
          "name": "C#4",
          "ticks": 35075,
          "time": 36.536458333333336,
          "velocity": 0.4409448818897638
        },
        {
          "duration": 0.18541666666666146,
          "durationTicks": 178,
          "midi": 56,
          "name": "G#3",
          "ticks": 35075,
          "time": 36.536458333333336,
          "velocity": 0.3464566929133858
        },
        {
          "duration": 0.1510416666666643,
          "durationTicks": 145,
          "midi": 49,
          "name": "C#3",
          "ticks": 35075,
          "time": 36.536458333333336,
          "velocity": 0.4645669291338583
        },
        {
          "duration": 0.18541666666666856,
          "durationTicks": 178,
          "midi": 65,
          "name": "F4",
          "ticks": 35086,
          "time": 36.547916666666666,
          "velocity": 0.7165354330708661
        },
        {
          "duration": 0.1510416666666714,
          "durationTicks": 145,
          "midi": 75,
          "name": "D#5",
          "ticks": 35253,
          "time": 36.721875,
          "velocity": 0.4251968503937008
        },
        {
          "duration": 0.18541666666666856,
          "durationTicks": 178,
          "midi": 56,
          "name": "G#3",
          "ticks": 35253,
          "time": 36.721875,
          "velocity": 0.4330708661417323
        },
        {
          "duration": 0.7312500000000028,
          "durationTicks": 702,
          "midi": 65,
          "name": "F4",
          "ticks": 35265,
          "time": 36.734375,
          "velocity": 0.5826771653543307
        },
        {
          "duration": 0.18541666666666856,
          "durationTicks": 178,
          "midi": 73,
          "name": "C#5",
          "ticks": 35432,
          "time": 36.90833333333333,
          "velocity": 0.44881889763779526
        },
        {
          "duration": 0.19687499999999858,
          "durationTicks": 189,
          "midi": 63,
          "name": "D#4",
          "ticks": 35432,
          "time": 36.90833333333333,
          "velocity": 0.4015748031496063
        },
        {
          "duration": 0.17395833333333144,
          "durationTicks": 167,
          "midi": 73,
          "name": "C#5",
          "ticks": 35610,
          "time": 37.09375,
          "velocity": 0.5196850393700787
        },
        {
          "duration": 0.3135416666666657,
          "durationTicks": 301,
          "midi": 68,
          "name": "G#4",
          "ticks": 35610,
          "time": 37.09375,
          "velocity": 0.3464566929133858
        },
        {
          "duration": 0.18541666666666856,
          "durationTicks": 178,
          "midi": 56,
          "name": "G#3",
          "ticks": 35610,
          "time": 37.09375,
          "velocity": 0.4251968503937008
        },
        {
          "duration": 0.3604166666666728,
          "durationTicks": 346,
          "midi": 63,
          "name": "D#4",
          "ticks": 35621,
          "time": 37.10520833333333,
          "velocity": 0.48031496062992124
        },
        {
          "duration": 0.17395833333333144,
          "durationTicks": 167,
          "midi": 56,
          "name": "G#3",
          "ticks": 35788,
          "time": 37.27916666666667,
          "velocity": 0.4566929133858268
        },
        {
          "duration": 0.7677083333333314,
          "durationTicks": 737,
          "midi": 37,
          "name": "C#2",
          "ticks": 35788,
          "time": 37.27916666666667,
          "velocity": 0.6377952755905512
        },
        {
          "duration": 0.19687499999999858,
          "durationTicks": 189,
          "midi": 56,
          "name": "G#3",
          "ticks": 35956,
          "time": 37.454166666666666,
          "velocity": 0.4251968503937008
        },
        {
          "duration": 0.17395833333333144,
          "durationTicks": 167,
          "midi": 65,
          "name": "F4",
          "ticks": 35967,
          "time": 37.465625,
          "velocity": 0.33858267716535434
        },
        {
          "duration": 0.4072916666666657,
          "durationTicks": 391,
          "midi": 63,
          "name": "D#4",
          "ticks": 35967,
          "time": 37.465625,
          "velocity": 0.4094488188976378
        },
        {
          "duration": 0.17395833333333144,
          "durationTicks": 167,
          "midi": 61,
          "name": "C#4",
          "ticks": 35967,
          "time": 37.465625,
          "velocity": 0.2677165354330709
        },
        {
          "duration": 0.19895833333333002,
          "durationTicks": 191,
          "midi": 77,
          "name": "F5",
          "ticks": 36134,
          "time": 37.639583333333334,
          "velocity": 0.33070866141732286
        },
        {
          "duration": 0.1875,
          "durationTicks": 180,
          "midi": 65,
          "name": "F4",
          "ticks": 36134,
          "time": 37.639583333333334,
          "velocity": 0.6614173228346457
        },
        {
          "duration": 0.37291666666666856,
          "durationTicks": 358,
          "midi": 61,
          "name": "C#4",
          "ticks": 36134,
          "time": 37.639583333333334,
          "velocity": 0.6062992125984252
        },
        {
          "duration": 0.17500000000000426,
          "durationTicks": 168,
          "midi": 56,
          "name": "G#3",
          "ticks": 36145,
          "time": 37.651041666666664,
          "velocity": 0.3228346456692913
        },
        {
          "duration": 0.6729166666666657,
          "durationTicks": 646,
          "midi": 65,
          "name": "F4",
          "ticks": 36313,
          "time": 37.82604166666667,
          "velocity": 0.6456692913385826
        },
        {
          "duration": 0.37187499999999574,
          "durationTicks": 357,
          "midi": 56,
          "name": "G#3",
          "ticks": 36313,
          "time": 37.82604166666667,
          "velocity": 0.4409448818897638
        },
        {
          "duration": 0.19687499999999858,
          "durationTicks": 189,
          "midi": 61,
          "name": "C#4",
          "ticks": 36492,
          "time": 38.0125,
          "velocity": 0.5984251968503937
        },
        {
          "duration": 0.1510416666666643,
          "durationTicks": 145,
          "midi": 49,
          "name": "C#3",
          "ticks": 36503,
          "time": 38.02395833333333,
          "velocity": 0.3779527559055118
        },
        {
          "duration": 0.41770833333333,
          "durationTicks": 401,
          "midi": 37,
          "name": "C#2",
          "ticks": 36525,
          "time": 38.046875,
          "velocity": 0.5590551181102362
        },
        {
          "duration": 0.17395833333333854,
          "durationTicks": 167,
          "midi": 56,
          "name": "G#3",
          "ticks": 36670,
          "time": 38.197916666666664,
          "velocity": 0.5511811023622047
        },
        {
          "duration": 0.2666666666666657,
          "durationTicks": 256,
          "midi": 61,
          "name": "C#4",
          "ticks": 36681,
          "time": 38.209375,
          "velocity": 0.48031496062992124
        },
        {
          "duration": 0.13958333333333428,
          "durationTicks": 134,
          "midi": 79,
          "name": "G5",
          "ticks": 36848,
          "time": 38.38333333333333,
          "velocity": 0.2755905511811024
        },
        {
          "duration": 0.37187500000000284,
          "durationTicks": 357,
          "midi": 67,
          "name": "G4",
          "ticks": 36848,
          "time": 38.38333333333333,
          "velocity": 0.6220472440944882
        },
        {
          "duration": 0.37187500000000284,
          "durationTicks": 357,
          "midi": 58,
          "name": "A#3",
          "ticks": 36848,
          "time": 38.38333333333333,
          "velocity": 0.5039370078740157
        },
        {
          "duration": 0.3479166666666629,
          "durationTicks": 334,
          "midi": 39,
          "name": "D#2",
          "ticks": 36860,
          "time": 38.395833333333336,
          "velocity": 0.4251968503937008
        },
        {
          "duration": 0.19687499999999858,
          "durationTicks": 189,
          "midi": 63,
          "name": "D#4",
          "ticks": 37194,
          "time": 38.74375,
          "velocity": 0.2677165354330709
        },
        {
          "duration": 1.4645833333333371,
          "durationTicks": 1406,
          "midi": 39,
          "name": "D#2",
          "ticks": 37194,
          "time": 38.74375,
          "velocity": 0.6456692913385826
        },
        {
          "duration": 0.18541666666666146,
          "durationTicks": 178,
          "midi": 67,
          "name": "G4",
          "ticks": 37205,
          "time": 38.755208333333336,
          "velocity": 0.7322834645669292
        },
        {
          "duration": 0.17395833333333144,
          "durationTicks": 167,
          "midi": 58,
          "name": "A#3",
          "ticks": 37205,
          "time": 38.755208333333336,
          "velocity": 0.36220472440944884
        },
        {
          "duration": 0.37187500000000284,
          "durationTicks": 357,
          "midi": 58,
          "name": "A#3",
          "ticks": 37372,
          "time": 38.92916666666667,
          "velocity": 0.4566929133858268
        },
        {
          "duration": 0.37187500000000284,
          "durationTicks": 357,
          "midi": 67,
          "name": "G4",
          "ticks": 37383,
          "time": 38.940625,
          "velocity": 0.7401574803149606
        },
        {
          "duration": 0.3135416666666728,
          "durationTicks": 301,
          "midi": 63,
          "name": "D#4",
          "ticks": 37383,
          "time": 38.940625,
          "velocity": 0.4881889763779528
        },
        {
          "duration": 0.19687499999999858,
          "durationTicks": 189,
          "midi": 75,
          "name": "D#5",
          "ticks": 37551,
          "time": 39.115625,
          "velocity": 0.5669291338582677
        },
        {
          "duration": 0.2906249999999986,
          "durationTicks": 279,
          "midi": 58,
          "name": "A#3",
          "ticks": 37729,
          "time": 39.30104166666667,
          "velocity": 0.5039370078740157
        },
        {
          "duration": 0.18541666666666856,
          "durationTicks": 178,
          "midi": 75,
          "name": "D#5",
          "ticks": 37740,
          "time": 39.3125,
          "velocity": 0.5275590551181102
        },
        {
          "duration": 0.18541666666666856,
          "durationTicks": 178,
          "midi": 67,
          "name": "G4",
          "ticks": 37740,
          "time": 39.3125,
          "velocity": 0.6929133858267716
        },
        {
          "duration": 0.2666666666666657,
          "durationTicks": 256,
          "midi": 79,
          "name": "G5",
          "ticks": 37840,
          "time": 39.416666666666664,
          "velocity": 0.3543307086614173
        },
        {
          "duration": 0.18541666666666146,
          "durationTicks": 178,
          "midi": 75,
          "name": "D#5",
          "ticks": 37918,
          "time": 39.49791666666667,
          "velocity": 0.6929133858267716
        },
        {
          "duration": 0.17395833333333144,
          "durationTicks": 167,
          "midi": 68,
          "name": "G#4",
          "ticks": 37918,
          "time": 39.49791666666667,
          "velocity": 0.6377952755905512
        },
        {
          "duration": 0.2802083333333343,
          "durationTicks": 269,
          "midi": 67,
          "name": "G4",
          "ticks": 38086,
          "time": 39.672916666666666,
          "velocity": 0.3700787401574803
        },
        {
          "duration": 0.546875,
          "durationTicks": 525,
          "midi": 79,
          "name": "G5",
          "ticks": 38097,
          "time": 39.684375,
          "velocity": 0.4251968503937008
        },
        {
          "duration": 0.17499999999999716,
          "durationTicks": 168,
          "midi": 75,
          "name": "D#5",
          "ticks": 38097,
          "time": 39.684375,
          "velocity": 0.6220472440944882
        },
        {
          "duration": 0.18541666666666856,
          "durationTicks": 178,
          "midi": 75,
          "name": "D#5",
          "ticks": 38265,
          "time": 39.859375,
          "velocity": 0.6299212598425197
        },
        {
          "duration": 0.27812499999999574,
          "durationTicks": 267,
          "midi": 68,
          "name": "G#4",
          "ticks": 38354,
          "time": 39.952083333333334,
          "velocity": 0.6850393700787402
        },
        {
          "duration": 0.23229166666666146,
          "durationTicks": 223,
          "midi": 75,
          "name": "D#5",
          "ticks": 38443,
          "time": 40.04479166666667,
          "velocity": 0.44881889763779526
        },
        {
          "duration": 0.22083333333333144,
          "durationTicks": 212,
          "midi": 70,
          "name": "A#4",
          "ticks": 38443,
          "time": 40.04479166666667,
          "velocity": 0.3464566929133858
        },
        {
          "duration": 0.18541666666666146,
          "durationTicks": 178,
          "midi": 58,
          "name": "A#3",
          "ticks": 38443,
          "time": 40.04479166666667,
          "velocity": 0.2992125984251969
        },
        {
          "duration": 0.7781249999999957,
          "durationTicks": 747,
          "midi": 39,
          "name": "D#2",
          "ticks": 38599,
          "time": 40.20729166666667,
          "velocity": 0.7007874015748031
        },
        {
          "duration": 0.22083333333333144,
          "durationTicks": 212,
          "midi": 79,
          "name": "G5",
          "ticks": 38622,
          "time": 40.23125,
          "velocity": 0.3228346456692913
        },
        {
          "duration": 0.18541666666666146,
          "durationTicks": 178,
          "midi": 67,
          "name": "G4",
          "ticks": 38622,
          "time": 40.23125,
          "velocity": 0.6535433070866141
        },
        {
          "duration": 0.18541666666666146,
          "durationTicks": 178,
          "midi": 63,
          "name": "D#4",
          "ticks": 38622,
          "time": 40.23125,
          "velocity": 0.5669291338582677
        },
        {
          "duration": 0.17395833333333144,
          "durationTicks": 167,
          "midi": 58,
          "name": "A#3",
          "ticks": 38622,
          "time": 40.23125,
          "velocity": 0.4330708661417323
        },
        {
          "duration": 0.37187499999999574,
          "durationTicks": 357,
          "midi": 58,
          "name": "A#3",
          "ticks": 38789,
          "time": 40.405208333333334,
          "velocity": 0.5196850393700787
        },
        {
          "duration": 0.9291666666666671,
          "durationTicks": 892,
          "midi": 67,
          "name": "G4",
          "ticks": 38800,
          "time": 40.416666666666664,
          "velocity": 0.6850393700787402
        },
        {
          "duration": 0.17395833333333854,
          "durationTicks": 167,
          "midi": 63,
          "name": "D#4",
          "ticks": 38800,
          "time": 40.416666666666664,
          "velocity": 0.5118110236220472
        },
        {
          "duration": 0.19687499999999858,
          "durationTicks": 189,
          "midi": 63,
          "name": "D#4",
          "ticks": 38967,
          "time": 40.590625,
          "velocity": 0.5984251968503937
        },
        {
          "duration": 0.5104166666666714,
          "durationTicks": 490,
          "midi": 58,
          "name": "A#3",
          "ticks": 39146,
          "time": 40.77708333333333,
          "velocity": 0.49606299212598426
        },
        {
          "duration": 0.16250000000000142,
          "durationTicks": 156,
          "midi": 63,
          "name": "D#4",
          "ticks": 39157,
          "time": 40.78854166666667,
          "velocity": 0.5039370078740157
        },
        {
          "duration": 0.13958333333333428,
          "durationTicks": 134,
          "midi": 75,
          "name": "D#5",
          "ticks": 39179,
          "time": 40.811458333333334,
          "velocity": 0.29133858267716534
        },
        {
          "duration": 0.2906249999999986,
          "durationTicks": 279,
          "midi": 75,
          "name": "D#5",
          "ticks": 39324,
          "time": 40.9625,
          "velocity": 0.4015748031496063
        },
        {
          "duration": 0.16250000000000142,
          "durationTicks": 156,
          "midi": 39,
          "name": "D#2",
          "ticks": 39346,
          "time": 40.985416666666666,
          "velocity": 0.6456692913385826
        },
        {
          "duration": 0.17395833333333144,
          "durationTicks": 167,
          "midi": 39,
          "name": "D#2",
          "ticks": 39502,
          "time": 41.14791666666667,
          "velocity": 0.5669291338582677
        },
        {
          "duration": 0.3604166666666657,
          "durationTicks": 346,
          "midi": 41,
          "name": "F2",
          "ticks": 39681,
          "time": 41.334375,
          "velocity": 0.4881889763779528
        },
        {
          "duration": 0.37187500000000284,
          "durationTicks": 357,
          "midi": 67,
          "name": "G4",
          "ticks": 39692,
          "time": 41.34583333333333,
          "velocity": 0.5275590551181102
        },
        {
          "duration": 0.2906249999999986,
          "durationTicks": 279,
          "midi": 60,
          "name": "C4",
          "ticks": 39692,
          "time": 41.34583333333333,
          "velocity": 0.4409448818897638
        },
        {
          "duration": 0.20937500000000142,
          "durationTicks": 201,
          "midi": 53,
          "name": "F3",
          "ticks": 39692,
          "time": 41.34583333333333,
          "velocity": 0.4330708661417323
        },
        {
          "duration": 0.20937499999999432,
          "durationTicks": 201,
          "midi": 75,
          "name": "D#5",
          "ticks": 39725,
          "time": 41.380208333333336,
          "velocity": 0.29133858267716534
        },
        {
          "duration": 0.7447916666666643,
          "durationTicks": 715,
          "midi": 41,
          "name": "F2",
          "ticks": 40026,
          "time": 41.69375,
          "velocity": 0.5433070866141733
        },
        {
          "duration": 0.140625,
          "durationTicks": 135,
          "midi": 67,
          "name": "G4",
          "ticks": 40048,
          "time": 41.71666666666667,
          "velocity": 0.36220472440944884
        },
        {
          "duration": 0.3500000000000014,
          "durationTicks": 336,
          "midi": 60,
          "name": "C4",
          "ticks": 40048,
          "time": 41.71666666666667,
          "velocity": 0.3464566929133858
        },
        {
          "duration": 0.12916666666666288,
          "durationTicks": 124,
          "midi": 53,
          "name": "F3",
          "ticks": 40048,
          "time": 41.71666666666667,
          "velocity": 0.4645669291338583
        },
        {
          "duration": 0.3135416666666657,
          "durationTicks": 301,
          "midi": 57,
          "name": "A3",
          "ticks": 40206,
          "time": 41.88125,
          "velocity": 0.5039370078740157
        },
        {
          "duration": 0.18541666666666146,
          "durationTicks": 178,
          "midi": 65,
          "name": "F4",
          "ticks": 40384,
          "time": 42.06666666666667,
          "velocity": 0.5590551181102362
        },
        {
          "duration": 0.4416666666666629,
          "durationTicks": 424,
          "midi": 60,
          "name": "C4",
          "ticks": 40384,
          "time": 42.06666666666667,
          "velocity": 0.4409448818897638
        },
        {
          "duration": 0.1510416666666643,
          "durationTicks": 145,
          "midi": 53,
          "name": "F3",
          "ticks": 40384,
          "time": 42.06666666666667,
          "velocity": 0.23622047244094488
        },
        {
          "duration": 0.2906249999999986,
          "durationTicks": 279,
          "midi": 67,
          "name": "G4",
          "ticks": 40562,
          "time": 42.25208333333333,
          "velocity": 0.4409448818897638
        },
        {
          "duration": 0.18541666666666856,
          "durationTicks": 178,
          "midi": 65,
          "name": "F4",
          "ticks": 40562,
          "time": 42.25208333333333,
          "velocity": 0.5275590551181102
        },
        {
          "duration": 0.18541666666666856,
          "durationTicks": 178,
          "midi": 69,
          "name": "A4",
          "ticks": 40741,
          "time": 42.438541666666666,
          "velocity": 0.49606299212598426
        },
        {
          "duration": 0.18541666666666856,
          "durationTicks": 178,
          "midi": 65,
          "name": "F4",
          "ticks": 40741,
          "time": 42.438541666666666,
          "velocity": 0.5354330708661418
        },
        {
          "duration": 0.18541666666666856,
          "durationTicks": 178,
          "midi": 53,
          "name": "F3",
          "ticks": 40741,
          "time": 42.438541666666666,
          "velocity": 0.3700787401574803
        },
        {
          "duration": 0.3479166666666629,
          "durationTicks": 334,
          "midi": 57,
          "name": "A3",
          "ticks": 40752,
          "time": 42.45,
          "velocity": 0.2992125984251969
        },
        {
          "duration": 0.1510416666666643,
          "durationTicks": 145,
          "midi": 72,
          "name": "C5",
          "ticks": 40919,
          "time": 42.623958333333334,
          "velocity": 0.3464566929133858
        },
        {
          "duration": 0.19687499999999858,
          "durationTicks": 189,
          "midi": 69,
          "name": "A4",
          "ticks": 40919,
          "time": 42.623958333333334,
          "velocity": 0.48031496062992124
        },
        {
          "duration": 0.19687499999999858,
          "durationTicks": 189,
          "midi": 65,
          "name": "F4",
          "ticks": 40919,
          "time": 42.623958333333334,
          "velocity": 0.7795275590551181
        },
        {
          "duration": 0.18541666666666856,
          "durationTicks": 178,
          "midi": 53,
          "name": "F3",
          "ticks": 40919,
          "time": 42.623958333333334,
          "velocity": 0.4881889763779528
        },
        {
          "duration": 0.18541666666666856,
          "durationTicks": 178,
          "midi": 36,
          "name": "C2",
          "ticks": 41019,
          "time": 42.728125,
          "velocity": 0.36220472440944884
        },
        {
          "duration": 0.6854166666666615,
          "durationTicks": 658,
          "midi": 57,
          "name": "A3",
          "ticks": 41097,
          "time": 42.809375,
          "velocity": 0.3700787401574803
        },
        {
          "duration": 0.18541666666666146,
          "durationTicks": 178,
          "midi": 53,
          "name": "F3",
          "ticks": 41097,
          "time": 42.809375,
          "velocity": 0.28346456692913385
        },
        {
          "duration": 0.18541666666666856,
          "durationTicks": 178,
          "midi": 69,
          "name": "A4",
          "ticks": 41108,
          "time": 42.82083333333333,
          "velocity": 0.4645669291338583
        },
        {
          "duration": 0.27812500000000284,
          "durationTicks": 267,
          "midi": 65,
          "name": "F4",
          "ticks": 41108,
          "time": 42.82083333333333,
          "velocity": 0.7480314960629921
        },
        {
          "duration": 0.32500000000000284,
          "durationTicks": 312,
          "midi": 53,
          "name": "F3",
          "ticks": 41276,
          "time": 42.99583333333333,
          "velocity": 0.41732283464566927
        },
        {
          "duration": 0.17395833333333144,
          "durationTicks": 167,
          "midi": 72,
          "name": "C5",
          "ticks": 41287,
          "time": 43.00729166666667,
          "velocity": 0.4566929133858268
        },
        {
          "duration": 0.13958333333333428,
          "durationTicks": 134,
          "midi": 69,
          "name": "A4",
          "ticks": 41287,
          "time": 43.00729166666667,
          "velocity": 0.4094488188976378
        },
        {
          "duration": 0.2552083333333357,
          "durationTicks": 245,
          "midi": 60,
          "name": "C4",
          "ticks": 41320,
          "time": 43.041666666666664,
          "velocity": 0.33858267716535434
        },
        {
          "duration": 0.2666666666666657,
          "durationTicks": 256,
          "midi": 65,
          "name": "F4",
          "ticks": 41376,
          "time": 43.1,
          "velocity": 0.6377952755905512
        },
        {
          "duration": 0.32500000000000284,
          "durationTicks": 312,
          "midi": 72,
          "name": "C5",
          "ticks": 41454,
          "time": 43.18125,
          "velocity": 0.4094488188976378
        },
        {
          "duration": 1.0343749999999972,
          "durationTicks": 993,
          "midi": 41,
          "name": "F2",
          "ticks": 41465,
          "time": 43.192708333333336,
          "velocity": 0.5590551181102362
        },
        {
          "duration": 0.33645833333333286,
          "durationTicks": 323,
          "midi": 65,
          "name": "F4",
          "ticks": 41632,
          "time": 43.36666666666667,
          "velocity": 0.4645669291338583
        },
        {
          "duration": 0.2906249999999986,
          "durationTicks": 279,
          "midi": 53,
          "name": "F3",
          "ticks": 41632,
          "time": 43.36666666666667,
          "velocity": 0.3937007874015748
        },
        {
          "duration": 0.17395833333333854,
          "durationTicks": 167,
          "midi": 60,
          "name": "C4",
          "ticks": 41643,
          "time": 43.378125,
          "velocity": 0.4645669291338583
        },
        {
          "duration": 0.36145833333333144,
          "durationTicks": 347,
          "midi": 67,
          "name": "G4",
          "ticks": 41811,
          "time": 43.553125,
          "velocity": 0.5905511811023622
        },
        {
          "duration": 0.7447916666666643,
          "durationTicks": 715,
          "midi": 60,
          "name": "C4",
          "ticks": 41811,
          "time": 43.553125,
          "velocity": 0.5039370078740157
        },
        {
          "duration": 0.5343749999999972,
          "durationTicks": 513,
          "midi": 67,
          "name": "G4",
          "ticks": 42157,
          "time": 43.91354166666667,
          "velocity": 0.5196850393700787
        },
        {
          "duration": 0.18541666666666146,
          "durationTicks": 178,
          "midi": 39,
          "name": "D#2",
          "ticks": 42514,
          "time": 44.28541666666667,
          "velocity": 0.33858267716535434
        },
        {
          "duration": 0.16250000000000142,
          "durationTicks": 156,
          "midi": 65,
          "name": "F4",
          "ticks": 42525,
          "time": 44.296875,
          "velocity": 0.6299212598425197
        },
        {
          "duration": 0.27812500000000284,
          "durationTicks": 267,
          "midi": 60,
          "name": "C4",
          "ticks": 42525,
          "time": 44.296875,
          "velocity": 0.4251968503937008
        },
        {
          "duration": 0.19687499999999858,
          "durationTicks": 189,
          "midi": 51,
          "name": "D#3",
          "ticks": 42525,
          "time": 44.296875,
          "velocity": 0.3464566929133858
        },
        {
          "duration": 0.19687499999999858,
          "durationTicks": 189,
          "midi": 65,
          "name": "F4",
          "ticks": 42681,
          "time": 44.459375,
          "velocity": 0.6929133858267716
        },
        {
          "duration": 0.7312499999999957,
          "durationTicks": 702,
          "midi": 39,
          "name": "D#2",
          "ticks": 42860,
          "time": 44.645833333333336,
          "velocity": 0.6456692913385826
        },
        {
          "duration": 0.18541666666666856,
          "durationTicks": 178,
          "midi": 65,
          "name": "F4",
          "ticks": 42871,
          "time": 44.657291666666666,
          "velocity": 0.6535433070866141
        },
        {
          "duration": 0.22083333333333144,
          "durationTicks": 212,
          "midi": 67,
          "name": "G4",
          "ticks": 43049,
          "time": 44.842708333333334,
          "velocity": 0.44881889763779526
        },
        {
          "duration": 0.18541666666666856,
          "durationTicks": 178,
          "midi": 65,
          "name": "F4",
          "ticks": 43049,
          "time": 44.842708333333334,
          "velocity": 0.6614173228346457
        },
        {
          "duration": 0.27812499999999574,
          "durationTicks": 267,
          "midi": 65,
          "name": "F4",
          "ticks": 43227,
          "time": 45.028125,
          "velocity": 0.5905511811023622
        },
        {
          "duration": 0.18541666666666146,
          "durationTicks": 178,
          "midi": 63,
          "name": "D#4",
          "ticks": 43227,
          "time": 45.028125,
          "velocity": 0.5039370078740157
        },
        {
          "duration": 0.3135416666666728,
          "durationTicks": 301,
          "midi": 68,
          "name": "G#4",
          "ticks": 43406,
          "time": 45.21458333333333,
          "velocity": 0.49606299212598426
        },
        {
          "duration": 0.18541666666666856,
          "durationTicks": 178,
          "midi": 63,
          "name": "D#4",
          "ticks": 43406,
          "time": 45.21458333333333,
          "velocity": 0.4566929133858268
        },
        {
          "duration": 0.19687500000000568,
          "durationTicks": 189,
          "midi": 65,
          "name": "F4",
          "ticks": 43495,
          "time": 45.307291666666664,
          "velocity": 0.4566929133858268
        },
        {
          "duration": 0.18541666666666856,
          "durationTicks": 178,
          "midi": 75,
          "name": "D#5",
          "ticks": 43584,
          "time": 45.4,
          "velocity": 0.3700787401574803
        },
        {
          "duration": 0.18541666666666856,
          "durationTicks": 178,
          "midi": 63,
          "name": "D#4",
          "ticks": 43584,
          "time": 45.4,
          "velocity": 0.7165354330708661
        },
        {
          "duration": 0.32604166666666856,
          "durationTicks": 313,
          "midi": 34,
          "name": "A#1",
          "ticks": 43584,
          "time": 45.4,
          "velocity": 0.44881889763779526
        },
        {
          "duration": 0.37291666666666856,
          "durationTicks": 358,
          "midi": 79,
          "name": "G5",
          "ticks": 43751,
          "time": 45.57395833333333,
          "velocity": 0.4015748031496063
        },
        {
          "duration": 0.16354166666666714,
          "durationTicks": 157,
          "midi": 75,
          "name": "D#5",
          "ticks": 43762,
          "time": 45.58541666666667,
          "velocity": 0.3937007874015748
        },
        {
          "duration": 0.16354166666666714,
          "durationTicks": 157,
          "midi": 63,
          "name": "D#4",
          "ticks": 43762,
          "time": 45.58541666666667,
          "velocity": 0.7086614173228346
        },
        {
          "duration": 0.17499999999999716,
          "durationTicks": 168,
          "midi": 51,
          "name": "D#3",
          "ticks": 43762,
          "time": 45.58541666666667,
          "velocity": 0.3779527559055118
        },
        {
          "duration": 0.19687499999999858,
          "durationTicks": 189,
          "midi": 75,
          "name": "D#5",
          "ticks": 43920,
          "time": 45.75,
          "velocity": 0.5196850393700787
        },
        {
          "duration": 0.20937500000000142,
          "durationTicks": 201,
          "midi": 63,
          "name": "D#4",
          "ticks": 43920,
          "time": 45.75,
          "velocity": 0.6614173228346457
        },
        {
          "duration": 0.18541666666666856,
          "durationTicks": 178,
          "midi": 51,
          "name": "D#3",
          "ticks": 43931,
          "time": 45.76145833333333,
          "velocity": 0.3543307086614173
        },
        {
          "duration": 0.16250000000000142,
          "durationTicks": 156,
          "midi": 39,
          "name": "D#2",
          "ticks": 43942,
          "time": 45.77291666666667,
          "velocity": 0.5826771653543307
        },
        {
          "duration": 0.6499999999999986,
          "durationTicks": 624,
          "midi": 39,
          "name": "D#2",
          "ticks": 44098,
          "time": 45.93541666666667,
          "velocity": 0.6535433070866141
        },
        {
          "duration": 0.16250000000000142,
          "durationTicks": 156,
          "midi": 79,
          "name": "G5",
          "ticks": 44109,
          "time": 45.946875,
          "velocity": 0.3464566929133858
        },
        {
          "duration": 0.18541666666666856,
          "durationTicks": 178,
          "midi": 75,
          "name": "D#5",
          "ticks": 44109,
          "time": 45.946875,
          "velocity": 0.5354330708661418
        },
        {
          "duration": 0.18541666666666856,
          "durationTicks": 178,
          "midi": 68,
          "name": "G#4",
          "ticks": 44109,
          "time": 45.946875,
          "velocity": 0.3937007874015748
        },
        {
          "duration": 0.3020833333333357,
          "durationTicks": 290,
          "midi": 51,
          "name": "D#3",
          "ticks": 44109,
          "time": 45.946875,
          "velocity": 0.3937007874015748
        },
        {
          "duration": 0.17395833333333144,
          "durationTicks": 167,
          "midi": 63,
          "name": "D#4",
          "ticks": 44120,
          "time": 45.958333333333336,
          "velocity": 0.6220472440944882
        },
        {
          "duration": 0.47604166666666714,
          "durationTicks": 457,
          "midi": 75,
          "name": "D#5",
          "ticks": 44287,
          "time": 46.13229166666667,
          "velocity": 0.4251968503937008
        },
        {
          "duration": 0.19687499999999858,
          "durationTicks": 189,
          "midi": 63,
          "name": "D#4",
          "ticks": 44287,
          "time": 46.13229166666667,
          "velocity": 0.7637795275590551
        },
        {
          "duration": 0.19687499999999858,
          "durationTicks": 189,
          "midi": 67,
          "name": "G4",
          "ticks": 44466,
          "time": 46.31875,
          "velocity": 0.36220472440944884
        },
        {
          "duration": 0.13958333333333428,
          "durationTicks": 134,
          "midi": 58,
          "name": "A#3",
          "ticks": 44466,
          "time": 46.31875,
          "velocity": 0.49606299212598426
        },
        {
          "duration": 0.17395833333333854,
          "durationTicks": 167,
          "midi": 63,
          "name": "D#4",
          "ticks": 44477,
          "time": 46.33020833333333,
          "velocity": 0.7244094488188977
        },
        {
          "duration": 0.2906249999999986,
          "durationTicks": 279,
          "midi": 72,
          "name": "C5",
          "ticks": 44644,
          "time": 46.50416666666667,
          "velocity": 0.3543307086614173
        },
        {
          "duration": 0.18541666666666146,
          "durationTicks": 178,
          "midi": 63,
          "name": "D#4",
          "ticks": 44644,
          "time": 46.50416666666667,
          "velocity": 0.6535433070866141
        },
        {
          "duration": 0.37187499999999574,
          "durationTicks": 357,
          "midi": 60,
          "name": "C4",
          "ticks": 44644,
          "time": 46.50416666666667,
          "velocity": 0.7244094488188977
        },
        {
          "duration": 0.27812500000000284,
          "durationTicks": 267,
          "midi": 67,
          "name": "G4",
          "ticks": 44655,
          "time": 46.515625,
          "velocity": 0.33070866141732286
        },
        {
          "duration": 0.19687499999999858,
          "durationTicks": 189,
          "midi": 63,
          "name": "D#4",
          "ticks": 44822,
          "time": 46.68958333333333,
          "velocity": 0.5590551181102362
        },
        {
          "duration": 0.1510416666666643,
          "durationTicks": 145,
          "midi": 56,
          "name": "G#3",
          "ticks": 44834,
          "time": 46.702083333333334,
          "velocity": 0.4409448818897638
        },
        {
          "duration": 0.19687499999999858,
          "durationTicks": 189,
          "midi": 60,
          "name": "C4",
          "ticks": 45001,
          "time": 46.876041666666666,
          "velocity": 0.7795275590551181
        },
        {
          "duration": 0.18541666666666856,
          "durationTicks": 178,
          "midi": 56,
          "name": "G#3",
          "ticks": 45001,
          "time": 46.876041666666666,
          "velocity": 0.33070866141732286
        },
        {
          "duration": 0.19687499999999858,
          "durationTicks": 189,
          "midi": 51,
          "name": "D#3",
          "ticks": 45001,
          "time": 46.876041666666666,
          "velocity": 0.6535433070866141
        },
        {
          "duration": 0.3020833333333357,
          "durationTicks": 290,
          "midi": 56,
          "name": "G#3",
          "ticks": 45179,
          "time": 47.061458333333334,
          "velocity": 0.5354330708661418
        },
        {
          "duration": 0.18541666666666856,
          "durationTicks": 178,
          "midi": 60,
          "name": "C4",
          "ticks": 45190,
          "time": 47.072916666666664,
          "velocity": 0.7401574803149606
        },
        {
          "duration": 0.16250000000000142,
          "durationTicks": 156,
          "midi": 51,
          "name": "D#3",
          "ticks": 45190,
          "time": 47.072916666666664,
          "velocity": 0.48031496062992124
        },
        {
          "duration": 0.17395833333333144,
          "durationTicks": 167,
          "midi": 48,
          "name": "C3",
          "ticks": 45335,
          "time": 47.223958333333336,
          "velocity": 0.4409448818897638
        },
        {
          "duration": 0.17395833333333144,
          "durationTicks": 167,
          "midi": 60,
          "name": "C4",
          "ticks": 45369,
          "time": 47.259375,
          "velocity": 0.7165354330708661
        },
        {
          "duration": 0.22083333333333144,
          "durationTicks": 212,
          "midi": 36,
          "name": "C2",
          "ticks": 45380,
          "time": 47.270833333333336,
          "velocity": 0.49606299212598426
        },
        {
          "duration": 0.18541666666666856,
          "durationTicks": 178,
          "midi": 60,
          "name": "C4",
          "ticks": 45536,
          "time": 47.43333333333333,
          "velocity": 0.6141732283464567
        },
        {
          "duration": 0.17499999999999716,
          "durationTicks": 168,
          "midi": 36,
          "name": "C2",
          "ticks": 45703,
          "time": 47.60729166666667,
          "velocity": 0.5748031496062992
        },
        {
          "duration": 0.23333333333333428,
          "durationTicks": 224,
          "midi": 60,
          "name": "C4",
          "ticks": 45714,
          "time": 47.61875,
          "velocity": 0.3543307086614173
        },
        {
          "duration": 0.140625,
          "durationTicks": 135,
          "midi": 48,
          "name": "C3",
          "ticks": 45714,
          "time": 47.61875,
          "velocity": 0.5196850393700787
        },
        {
          "duration": 0.5572916666666643,
          "durationTicks": 535,
          "midi": 36,
          "name": "C2",
          "ticks": 45871,
          "time": 47.782291666666666,
          "velocity": 0.5748031496062992
        },
        {
          "duration": 0.18541666666666146,
          "durationTicks": 178,
          "midi": 55,
          "name": "G3",
          "ticks": 45882,
          "time": 47.79375,
          "velocity": 0.5354330708661418
        },
        {
          "duration": 0.17395833333333144,
          "durationTicks": 167,
          "midi": 76,
          "name": "E5",
          "ticks": 46050,
          "time": 47.96875,
          "velocity": 0.31496062992125984
        },
        {
          "duration": 0.18541666666666856,
          "durationTicks": 178,
          "midi": 67,
          "name": "G4",
          "ticks": 46061,
          "time": 47.98020833333333,
          "velocity": 0.5669291338582677
        },
        {
          "duration": 0.18541666666666856,
          "durationTicks": 178,
          "midi": 64,
          "name": "E4",
          "ticks": 46061,
          "time": 47.98020833333333,
          "velocity": 0.6771653543307087
        },
        {
          "duration": 0.27812500000000284,
          "durationTicks": 267,
          "midi": 60,
          "name": "C4",
          "ticks": 46061,
          "time": 47.98020833333333,
          "velocity": 0.4645669291338583
        },
        {
          "duration": 0.4645833333333371,
          "durationTicks": 446,
          "midi": 55,
          "name": "G3",
          "ticks": 46061,
          "time": 47.98020833333333,
          "velocity": 0.4409448818897638
        },
        {
          "duration": 0.37187500000000284,
          "durationTicks": 357,
          "midi": 48,
          "name": "C3",
          "ticks": 46061,
          "time": 47.98020833333333,
          "velocity": 0.3543307086614173
        },
        {
          "duration": 0.18541666666666856,
          "durationTicks": 178,
          "midi": 67,
          "name": "G4",
          "ticks": 46239,
          "time": 48.165625,
          "velocity": 0.5275590551181102
        },
        {
          "duration": 0.5572916666666714,
          "durationTicks": 535,
          "midi": 64,
          "name": "E4",
          "ticks": 46239,
          "time": 48.165625,
          "velocity": 0.6771653543307087
        },
        {
          "duration": 0.1510416666666714,
          "durationTicks": 145,
          "midi": 62,
          "name": "D4",
          "ticks": 46239,
          "time": 48.165625,
          "velocity": 0.41732283464566927
        },
        {
          "duration": 0.7666666666666728,
          "durationTicks": 736,
          "midi": 36,
          "name": "C2",
          "ticks": 46406,
          "time": 48.33958333333333,
          "velocity": 0.5118110236220472
        },
        {
          "duration": 0.37187500000000284,
          "durationTicks": 357,
          "midi": 67,
          "name": "G4",
          "ticks": 46417,
          "time": 48.35104166666667,
          "velocity": 0.5354330708661418
        },
        {
          "duration": 0.18541666666666856,
          "durationTicks": 178,
          "midi": 60,
          "name": "C4",
          "ticks": 46417,
          "time": 48.35104166666667,
          "velocity": 0.31496062992125984
        },
        {
          "duration": 0.4416666666666629,
          "durationTicks": 424,
          "midi": 48,
          "name": "C3",
          "ticks": 46417,
          "time": 48.35104166666667,
          "velocity": 0.4409448818897638
        },
        {
          "duration": 0.17395833333333144,
          "durationTicks": 167,
          "midi": 60,
          "name": "C4",
          "ticks": 46596,
          "time": 48.5375,
          "velocity": 0.49606299212598426
        },
        {
          "duration": 0.18541666666666146,
          "durationTicks": 178,
          "midi": 67,
          "name": "G4",
          "ticks": 46774,
          "time": 48.72291666666667,
          "velocity": 0.41732283464566927
        },
        {
          "duration": 0.1510416666666643,
          "durationTicks": 145,
          "midi": 64,
          "name": "E4",
          "ticks": 46774,
          "time": 48.72291666666667,
          "velocity": 0.5039370078740157
        },
        {
          "duration": 0.18541666666666146,
          "durationTicks": 178,
          "midi": 62,
          "name": "D4",
          "ticks": 46774,
          "time": 48.72291666666667,
          "velocity": 0.5275590551181102
        },
        {
          "duration": 0.16250000000000142,
          "durationTicks": 156,
          "midi": 55,
          "name": "G3",
          "ticks": 46841,
          "time": 48.79270833333333,
          "velocity": 0.2677165354330709
        },
        {
          "duration": 0.37187499999999574,
          "durationTicks": 357,
          "midi": 65,
          "name": "F4",
          "ticks": 46919,
          "time": 48.873958333333334,
          "velocity": 0.48031496062992124
        },
        {
          "duration": 0.18541666666666856,
          "durationTicks": 178,
          "midi": 67,
          "name": "G4",
          "ticks": 46952,
          "time": 48.90833333333333,
          "velocity": 0.41732283464566927
        },
        {
          "duration": 0.17395833333333854,
          "durationTicks": 167,
          "midi": 62,
          "name": "D4",
          "ticks": 46952,
          "time": 48.90833333333333,
          "velocity": 0.5748031496062992
        },
        {
          "duration": 0.13958333333333428,
          "durationTicks": 134,
          "midi": 48,
          "name": "C3",
          "ticks": 46975,
          "time": 48.932291666666664,
          "velocity": 0.36220472440944884
        },
        {
          "duration": 0.19687499999999858,
          "durationTicks": 189,
          "midi": 62,
          "name": "D4",
          "ticks": 47120,
          "time": 49.083333333333336,
          "velocity": 0.6220472440944882
        },
        {
          "duration": 0.3135416666666657,
          "durationTicks": 301,
          "midi": 48,
          "name": "C3",
          "ticks": 47120,
          "time": 49.083333333333336,
          "velocity": 0.36220472440944884
        },
        {
          "duration": 0.13958333333333428,
          "durationTicks": 134,
          "midi": 67,
          "name": "G4",
          "ticks": 47131,
          "time": 49.094791666666666,
          "velocity": 0.3779527559055118
        },
        {
          "duration": 0.6166666666666671,
          "durationTicks": 592,
          "midi": 36,
          "name": "C2",
          "ticks": 47142,
          "time": 49.10625,
          "velocity": 0.5039370078740157
        },
        {
          "duration": 0.13958333333333428,
          "durationTicks": 134,
          "midi": 67,
          "name": "G4",
          "ticks": 47309,
          "time": 49.280208333333334,
          "velocity": 0.3464566929133858
        },
        {
          "duration": 0.3020833333333357,
          "durationTicks": 290,
          "midi": 62,
          "name": "D4",
          "ticks": 47309,
          "time": 49.280208333333334,
          "velocity": 0.4881889763779528
        },
        {
          "duration": 0.33645833333333286,
          "durationTicks": 323,
          "midi": 55,
          "name": "G3",
          "ticks": 47309,
          "time": 49.280208333333334,
          "velocity": 0.4015748031496063
        },
        {
          "duration": 0.26874999999999716,
          "durationTicks": 258,
          "midi": 64,
          "name": "E4",
          "ticks": 47487,
          "time": 49.465625,
          "velocity": 0.7401574803149606
        },
        {
          "duration": 0.4072916666666657,
          "durationTicks": 391,
          "midi": 40,
          "name": "E2",
          "ticks": 47487,
          "time": 49.465625,
          "velocity": 0.5433070866141733
        },
        {
          "duration": 0.15208333333333002,
          "durationTicks": 146,
          "midi": 60,
          "name": "C4",
          "ticks": 47655,
          "time": 49.640625,
          "velocity": 0.47244094488188976
        },
        {
          "duration": 0.48854166666667,
          "durationTicks": 469,
          "midi": 72,
          "name": "C5",
          "ticks": 47666,
          "time": 49.65208333333333,
          "velocity": 0.36220472440944884
        },
        {
          "duration": 0.13958333333332718,
          "durationTicks": 134,
          "midi": 36,
          "name": "C2",
          "ticks": 47734,
          "time": 49.72291666666667,
          "velocity": 0.3858267716535433
        },
        {
          "duration": 0.5343749999999972,
          "durationTicks": 513,
          "midi": 64,
          "name": "E4",
          "ticks": 47745,
          "time": 49.734375,
          "velocity": 0.6929133858267716
        },
        {
          "duration": 0.2666666666666728,
          "durationTicks": 256,
          "midi": 67,
          "name": "G4",
          "ticks": 47823,
          "time": 49.815625,
          "velocity": 0.44881889763779526
        },
        {
          "duration": 0.2552083333333357,
          "durationTicks": 245,
          "midi": 48,
          "name": "C3",
          "ticks": 47823,
          "time": 49.815625,
          "velocity": 0.3858267716535433
        },
        {
          "duration": 0.3020833333333357,
          "durationTicks": 290,
          "midi": 36,
          "name": "C2",
          "ticks": 47868,
          "time": 49.8625,
          "velocity": 0.5905511811023622
        },
        {
          "duration": 0.32500000000000284,
          "durationTicks": 312,
          "midi": 38,
          "name": "D2",
          "ticks": 48202,
          "time": 50.21041666666667,
          "velocity": 0.3937007874015748
        },
        {
          "duration": 0.19687500000000568,
          "durationTicks": 189,
          "midi": 65,
          "name": "F4",
          "ticks": 48258,
          "time": 50.26875,
          "velocity": 0.6299212598425197
        },
        {
          "duration": 0.24374999999999858,
          "durationTicks": 234,
          "midi": 50,
          "name": "D3",
          "ticks": 48302,
          "time": 50.31458333333333,
          "velocity": 0.4645669291338583
        },
        {
          "duration": 0.2906249999999986,
          "durationTicks": 279,
          "midi": 65,
          "name": "F4",
          "ticks": 48447,
          "time": 50.465625,
          "velocity": 0.6456692913385826
        },
        {
          "duration": 0.6385416666666615,
          "durationTicks": 613,
          "midi": 38,
          "name": "D2",
          "ticks": 48514,
          "time": 50.53541666666667,
          "velocity": 0.6141732283464567
        },
        {
          "duration": 0.32500000000000284,
          "durationTicks": 312,
          "midi": 62,
          "name": "D4",
          "ticks": 48536,
          "time": 50.55833333333333,
          "velocity": 0.3543307086614173
        },
        {
          "duration": 0.5687500000000014,
          "durationTicks": 546,
          "midi": 50,
          "name": "D3",
          "ticks": 48536,
          "time": 50.55833333333333,
          "velocity": 0.4094488188976378
        },
        {
          "duration": 0.13958333333333428,
          "durationTicks": 134,
          "midi": 57,
          "name": "A3",
          "ticks": 48681,
          "time": 50.709375,
          "velocity": 0.4409448818897638
        },
        {
          "duration": 0.37187499999999574,
          "durationTicks": 357,
          "midi": 65,
          "name": "F4",
          "ticks": 48726,
          "time": 50.75625,
          "velocity": 0.6929133858267716
        },
        {
          "duration": 0.18541666666666856,
          "durationTicks": 178,
          "midi": 57,
          "name": "A3",
          "ticks": 48893,
          "time": 50.93020833333333,
          "velocity": 0.31496062992125984
        },
        {
          "duration": 0.18541666666666146,
          "durationTicks": 178,
          "midi": 69,
          "name": "A4",
          "ticks": 48904,
          "time": 50.94166666666667,
          "velocity": 0.44881889763779526
        },
        {
          "duration": 0.18541666666666146,
          "durationTicks": 178,
          "midi": 62,
          "name": "D4",
          "ticks": 48904,
          "time": 50.94166666666667,
          "velocity": 0.31496062992125984
        },
        {
          "duration": 0.1510416666666643,
          "durationTicks": 145,
          "midi": 57,
          "name": "A3",
          "ticks": 49071,
          "time": 51.115625,
          "velocity": 0.5118110236220472
        },
        {
          "duration": 0.17395833333333854,
          "durationTicks": 167,
          "midi": 69,
          "name": "A4",
          "ticks": 49083,
          "time": 51.128125,
          "velocity": 0.33858267716535434
        },
        {
          "duration": 0.17395833333333854,
          "durationTicks": 167,
          "midi": 65,
          "name": "F4",
          "ticks": 49083,
          "time": 51.128125,
          "velocity": 0.6062992125984252
        },
        {
          "duration": 0.16250000000000142,
          "durationTicks": 156,
          "midi": 62,
          "name": "D4",
          "ticks": 49083,
          "time": 51.128125,
          "velocity": 0.4566929133858268
        },
        {
          "duration": 0.17395833333333854,
          "durationTicks": 167,
          "midi": 50,
          "name": "D3",
          "ticks": 49083,
          "time": 51.128125,
          "velocity": 0.31496062992125984
        },
        {
          "duration": 0.37291666666666856,
          "durationTicks": 358,
          "midi": 38,
          "name": "D2",
          "ticks": 49239,
          "time": 51.290625,
          "velocity": 0.5590551181102362
        },
        {
          "duration": 0.17395833333333144,
          "durationTicks": 167,
          "midi": 76,
          "name": "E5",
          "ticks": 49250,
          "time": 51.302083333333336,
          "velocity": 0.30708661417322836
        },
        {
          "duration": 0.18541666666666146,
          "durationTicks": 178,
          "midi": 69,
          "name": "A4",
          "ticks": 49250,
          "time": 51.302083333333336,
          "velocity": 0.5118110236220472
        },
        {
          "duration": 0.18541666666666146,
          "durationTicks": 178,
          "midi": 64,
          "name": "E4",
          "ticks": 49250,
          "time": 51.302083333333336,
          "velocity": 0.5039370078740157
        },
        {
          "duration": 0.1510416666666643,
          "durationTicks": 145,
          "midi": 50,
          "name": "D3",
          "ticks": 49250,
          "time": 51.302083333333336,
          "velocity": 0.4330708661417323
        },
        {
          "duration": 0.2552083333333357,
          "durationTicks": 245,
          "midi": 67,
          "name": "G4",
          "ticks": 49261,
          "time": 51.313541666666666,
          "velocity": 0.3937007874015748
        },
        {
          "duration": 0.17500000000000426,
          "durationTicks": 168,
          "midi": 74,
          "name": "D5",
          "ticks": 49428,
          "time": 51.4875,
          "velocity": 0.4566929133858268
        },
        {
          "duration": 0.1875,
          "durationTicks": 180,
          "midi": 69,
          "name": "A4",
          "ticks": 49428,
          "time": 51.4875,
          "velocity": 0.44881889763779526
        },
        {
          "duration": 0.1875,
          "durationTicks": 180,
          "midi": 64,
          "name": "E4",
          "ticks": 49428,
          "time": 51.4875,
          "velocity": 0.6692913385826772
        },
        {
          "duration": 0.19687499999999858,
          "durationTicks": 189,
          "midi": 74,
          "name": "D5",
          "ticks": 49596,
          "time": 51.6625,
          "velocity": 0.4251968503937008
        },
        {
          "duration": 0.3604166666666657,
          "durationTicks": 346,
          "midi": 38,
          "name": "D2",
          "ticks": 49596,
          "time": 51.6625,
          "velocity": 0.5354330708661418
        },
        {
          "duration": 0.17395833333333854,
          "durationTicks": 167,
          "midi": 72,
          "name": "C5",
          "ticks": 49608,
          "time": 51.675,
          "velocity": 0.4409448818897638
        },
        {
          "duration": 0.17395833333333854,
          "durationTicks": 167,
          "midi": 69,
          "name": "A4",
          "ticks": 49608,
          "time": 51.675,
          "velocity": 0.5511811023622047
        },
        {
          "duration": 0.3020833333333357,
          "durationTicks": 290,
          "midi": 64,
          "name": "E4",
          "ticks": 49608,
          "time": 51.675,
          "velocity": 0.5275590551181102
        },
        {
          "duration": 0.18541666666666856,
          "durationTicks": 178,
          "midi": 62,
          "name": "D4",
          "ticks": 49608,
          "time": 51.675,
          "velocity": 0.2992125984251969
        },
        {
          "duration": 0.1510416666666643,
          "durationTicks": 145,
          "midi": 72,
          "name": "C5",
          "ticks": 49775,
          "time": 51.848958333333336,
          "velocity": 0.41732283464566927
        },
        {
          "duration": 0.18541666666666146,
          "durationTicks": 178,
          "midi": 69,
          "name": "A4",
          "ticks": 49775,
          "time": 51.848958333333336,
          "velocity": 0.6062992125984252
        },
        {
          "duration": 0.24374999999999858,
          "durationTicks": 234,
          "midi": 74,
          "name": "D5",
          "ticks": 49786,
          "time": 51.860416666666666,
          "velocity": 0.3543307086614173
        },
        {
          "duration": 0.17395833333333144,
          "durationTicks": 167,
          "midi": 62,
          "name": "D4",
          "ticks": 49786,
          "time": 51.860416666666666,
          "velocity": 0.5275590551181102
        },
        {
          "duration": 0.5104166666666643,
          "durationTicks": 490,
          "midi": 38,
          "name": "D2",
          "ticks": 49942,
          "time": 52.02291666666667,
          "velocity": 0.5511811023622047
        },
        {
          "duration": 0.18541666666666856,
          "durationTicks": 178,
          "midi": 69,
          "name": "A4",
          "ticks": 49953,
          "time": 52.034375,
          "velocity": 0.49606299212598426
        },
        {
          "duration": 0.4989583333333343,
          "durationTicks": 479,
          "midi": 65,
          "name": "F4",
          "ticks": 49953,
          "time": 52.034375,
          "velocity": 0.4094488188976378
        },
        {
          "duration": 0.18541666666666856,
          "durationTicks": 178,
          "midi": 62,
          "name": "D4",
          "ticks": 49953,
          "time": 52.034375,
          "velocity": 0.44881889763779526
        },
        {
          "duration": 0.18541666666666856,
          "durationTicks": 178,
          "midi": 50,
          "name": "D3",
          "ticks": 49953,
          "time": 52.034375,
          "velocity": 0.49606299212598426
        },
        {
          "duration": 0.13958333333333428,
          "durationTicks": 134,
          "midi": 57,
          "name": "A3",
          "ticks": 49987,
          "time": 52.06979166666667,
          "velocity": 0.3779527559055118
        },
        {
          "duration": 0.17395833333333144,
          "durationTicks": 167,
          "midi": 74,
          "name": "D5",
          "ticks": 50131,
          "time": 52.219791666666666,
          "velocity": 0.3543307086614173
        },
        {
          "duration": 0.37187500000000284,
          "durationTicks": 357,
          "midi": 69,
          "name": "A4",
          "ticks": 50131,
          "time": 52.219791666666666,
          "velocity": 0.3700787401574803
        },
        {
          "duration": 0.18541666666666856,
          "durationTicks": 178,
          "midi": 62,
          "name": "D4",
          "ticks": 50131,
          "time": 52.219791666666666,
          "velocity": 0.48031496062992124
        },
        {
          "duration": 0.37187500000000284,
          "durationTicks": 357,
          "midi": 57,
          "name": "A3",
          "ticks": 50131,
          "time": 52.219791666666666,
          "velocity": 0.3858267716535433
        },
        {
          "duration": 0.17395833333333144,
          "durationTicks": 167,
          "midi": 50,
          "name": "D3",
          "ticks": 50131,
          "time": 52.219791666666666,
          "velocity": 0.4566929133858268
        },
        {
          "duration": 0.23229166666666146,
          "durationTicks": 223,
          "midi": 60,
          "name": "C4",
          "ticks": 50299,
          "time": 52.39479166666667,
          "velocity": 0.5590551181102362
        },
        {
          "duration": 0.37187499999999574,
          "durationTicks": 357,
          "midi": 33,
          "name": "A1",
          "ticks": 50299,
          "time": 52.39479166666667,
          "velocity": 0.5039370078740157
        },
        {
          "duration": 0.23229166666666856,
          "durationTicks": 223,
          "midi": 62,
          "name": "D4",
          "ticks": 50310,
          "time": 52.40625,
          "velocity": 0.47244094488188976
        },
        {
          "duration": 0.3135416666666657,
          "durationTicks": 301,
          "midi": 45,
          "name": "A2",
          "ticks": 50310,
          "time": 52.40625,
          "velocity": 0.3228346456692913
        },
        {
          "duration": 0.2552083333333286,
          "durationTicks": 245,
          "midi": 69,
          "name": "A4",
          "ticks": 50488,
          "time": 52.59166666666667,
          "velocity": 0.36220472440944884
        },
        {
          "duration": 0.18541666666666146,
          "durationTicks": 178,
          "midi": 57,
          "name": "A3",
          "ticks": 50488,
          "time": 52.59166666666667,
          "velocity": 0.5590551181102362
        },
        {
          "duration": 0.1510416666666714,
          "durationTicks": 145,
          "midi": 60,
          "name": "C4",
          "ticks": 50522,
          "time": 52.62708333333333,
          "velocity": 0.6141732283464567
        },
        {
          "duration": 0.5104166666666643,
          "durationTicks": 490,
          "midi": 38,
          "name": "D2",
          "ticks": 50633,
          "time": 52.74270833333333,
          "velocity": 0.3858267716535433
        },
        {
          "duration": 0.39479166666667,
          "durationTicks": 379,
          "midi": 60,
          "name": "C4",
          "ticks": 50666,
          "time": 52.77708333333333,
          "velocity": 0.5748031496062992
        },
        {
          "duration": 0.18541666666666856,
          "durationTicks": 178,
          "midi": 57,
          "name": "A3",
          "ticks": 50666,
          "time": 52.77708333333333,
          "velocity": 0.3543307086614173
        },
        {
          "duration": 0.37187500000000284,
          "durationTicks": 357,
          "midi": 53,
          "name": "F3",
          "ticks": 50666,
          "time": 52.77708333333333,
          "velocity": 0.49606299212598426
        },
        {
          "duration": 0.19687500000000568,
          "durationTicks": 189,
          "midi": 50,
          "name": "D3",
          "ticks": 50666,
          "time": 52.77708333333333,
          "velocity": 0.4330708661417323
        },
        {
          "duration": 0.17395833333333144,
          "durationTicks": 167,
          "midi": 74,
          "name": "D5",
          "ticks": 50678,
          "time": 52.78958333333333,
          "velocity": 0.33858267716535434
        },
        {
          "duration": 0.16250000000000142,
          "durationTicks": 156,
          "midi": 57,
          "name": "A3",
          "ticks": 50845,
          "time": 52.963541666666664,
          "velocity": 0.6377952755905512
        },
        {
          "duration": 0.27812500000000284,
          "durationTicks": 267,
          "midi": 53,
          "name": "F3",
          "ticks": 51023,
          "time": 53.14895833333333,
          "velocity": 0.4330708661417323
        },
        {
          "duration": 0.6510416666666714,
          "durationTicks": 625,
          "midi": 71,
          "name": "B4",
          "ticks": 51101,
          "time": 53.23020833333333,
          "velocity": 0.3937007874015748
        },
        {
          "duration": 0.27812500000000284,
          "durationTicks": 267,
          "midi": 67,
          "name": "G4",
          "ticks": 51112,
          "time": 53.24166666666667,
          "velocity": 0.4409448818897638
        },
        {
          "duration": 0.27812500000000284,
          "durationTicks": 267,
          "midi": 62,
          "name": "D4",
          "ticks": 51112,
          "time": 53.24166666666667,
          "velocity": 0.6614173228346457
        },
        {
          "duration": 0.546875,
          "durationTicks": 525,
          "midi": 38,
          "name": "D2",
          "ticks": 51346,
          "time": 53.485416666666666,
          "velocity": 0.5354330708661418
        },
        {
          "duration": 0.26875000000000426,
          "durationTicks": 258,
          "midi": 53,
          "name": "F3",
          "ticks": 51369,
          "time": 53.509375,
          "velocity": 0.3543307086614173
        },
        {
          "duration": 0.17499999999999716,
          "durationTicks": 168,
          "midi": 67,
          "name": "G4",
          "ticks": 51380,
          "time": 53.520833333333336,
          "velocity": 0.4330708661417323
        },
        {
          "duration": 0.17499999999999716,
          "durationTicks": 168,
          "midi": 62,
          "name": "D4",
          "ticks": 51380,
          "time": 53.520833333333336,
          "velocity": 0.6062992125984252
        },
        {
          "duration": 0.37187500000000284,
          "durationTicks": 357,
          "midi": 67,
          "name": "G4",
          "ticks": 51548,
          "time": 53.69583333333333,
          "velocity": 0.4251968503937008
        },
        {
          "duration": 0.17395833333333144,
          "durationTicks": 167,
          "midi": 65,
          "name": "F4",
          "ticks": 51548,
          "time": 53.69583333333333,
          "velocity": 0.4015748031496063
        },
        {
          "duration": 0.18541666666666856,
          "durationTicks": 178,
          "midi": 62,
          "name": "D4",
          "ticks": 51548,
          "time": 53.69583333333333,
          "velocity": 0.6062992125984252
        },
        {
          "duration": 0.19687500000000568,
          "durationTicks": 189,
          "midi": 65,
          "name": "F4",
          "ticks": 51715,
          "time": 53.869791666666664,
          "velocity": 0.5590551181102362
        },
        {
          "duration": 0.18541666666666856,
          "durationTicks": 178,
          "midi": 72,
          "name": "C5",
          "ticks": 51726,
          "time": 53.88125,
          "velocity": 0.33858267716535434
        },
        {
          "duration": 0.18541666666666856,
          "durationTicks": 178,
          "midi": 62,
          "name": "D4",
          "ticks": 51726,
          "time": 53.88125,
          "velocity": 0.6299212598425197
        },
        {
          "duration": 0.18541666666666146,
          "durationTicks": 178,
          "midi": 72,
          "name": "C5",
          "ticks": 51905,
          "time": 54.067708333333336,
          "velocity": 0.48031496062992124
        },
        {
          "duration": 0.2552083333333286,
          "durationTicks": 245,
          "midi": 69,
          "name": "A4",
          "ticks": 51905,
          "time": 54.067708333333336,
          "velocity": 0.5039370078740157
        },
        {
          "duration": 0.18541666666666146,
          "durationTicks": 178,
          "midi": 67,
          "name": "G4",
          "ticks": 51905,
          "time": 54.067708333333336,
          "velocity": 0.3779527559055118
        },
        {
          "duration": 0.17395833333333144,
          "durationTicks": 167,
          "midi": 65,
          "name": "F4",
          "ticks": 51905,
          "time": 54.067708333333336,
          "velocity": 0.47244094488188976
        },
        {
          "duration": 0.19687499999999858,
          "durationTicks": 189,
          "midi": 62,
          "name": "D4",
          "ticks": 51905,
          "time": 54.067708333333336,
          "velocity": 0.4566929133858268
        },
        {
          "duration": 0.24374999999999858,
          "durationTicks": 234,
          "midi": 60,
          "name": "C4",
          "ticks": 51905,
          "time": 54.067708333333336,
          "velocity": 0.31496062992125984
        },
        {
          "duration": 0.27812500000000284,
          "durationTicks": 267,
          "midi": 72,
          "name": "C5",
          "ticks": 52083,
          "time": 54.253125,
          "velocity": 0.6377952755905512
        },
        {
          "duration": 0.37187500000000284,
          "durationTicks": 357,
          "midi": 67,
          "name": "G4",
          "ticks": 52083,
          "time": 54.253125,
          "velocity": 0.3937007874015748
        },
        {
          "duration": 0.5458333333333343,
          "durationTicks": 524,
          "midi": 38,
          "name": "D2",
          "ticks": 52083,
          "time": 54.253125,
          "velocity": 0.7637795275590551
        },
        {
          "duration": 0.17395833333333144,
          "durationTicks": 167,
          "midi": 62,
          "name": "D4",
          "ticks": 52094,
          "time": 54.264583333333334,
          "velocity": 0.5118110236220472
        },
        {
          "duration": 0.18541666666666856,
          "durationTicks": 178,
          "midi": 77,
          "name": "F5",
          "ticks": 52261,
          "time": 54.438541666666666,
          "velocity": 0.48031496062992124
        },
        {
          "duration": 0.19687499999999858,
          "durationTicks": 189,
          "midi": 62,
          "name": "D4",
          "ticks": 52261,
          "time": 54.438541666666666,
          "velocity": 0.47244094488188976
        },
        {
          "duration": 0.27812500000000284,
          "durationTicks": 267,
          "midi": 72,
          "name": "C5",
          "ticks": 52351,
          "time": 54.532291666666666,
          "velocity": 0.48031496062992124
        },
        {
          "duration": 0.37187500000000284,
          "durationTicks": 357,
          "midi": 77,
          "name": "F5",
          "ticks": 52440,
          "time": 54.625,
          "velocity": 0.44881889763779526
        },
        {
          "duration": 0.4989583333333343,
          "durationTicks": 479,
          "midi": 67,
          "name": "G4",
          "ticks": 52440,
          "time": 54.625,
          "velocity": 0.4409448818897638
        },
        {
          "duration": 0.3604166666666728,
          "durationTicks": 346,
          "midi": 62,
          "name": "D4",
          "ticks": 52451,
          "time": 54.63645833333333,
          "velocity": 0.4645669291338583
        },
        {
          "duration": 0.18541666666666856,
          "durationTicks": 178,
          "midi": 38,
          "name": "D2",
          "ticks": 52607,
          "time": 54.79895833333333,
          "velocity": 0.3858267716535433
        },
        {
          "duration": 0.18541666666666146,
          "durationTicks": 178,
          "midi": 72,
          "name": "C5",
          "ticks": 52618,
          "time": 54.81041666666667,
          "velocity": 0.4015748031496063
        },
        {
          "duration": 0.22083333333333144,
          "durationTicks": 212,
          "midi": 38,
          "name": "D2",
          "ticks": 52785,
          "time": 54.984375,
          "velocity": 0.6850393700787402
        },
        {
          "duration": 0.18541666666666856,
          "durationTicks": 178,
          "midi": 72,
          "name": "C5",
          "ticks": 52796,
          "time": 54.99583333333333,
          "velocity": 0.5511811023622047
        },
        {
          "duration": 0.18541666666666856,
          "durationTicks": 178,
          "midi": 62,
          "name": "D4",
          "ticks": 52796,
          "time": 54.99583333333333,
          "velocity": 0.4015748031496063
        },
        {
          "duration": 0.17395833333333854,
          "durationTicks": 167,
          "midi": 53,
          "name": "F3",
          "ticks": 52796,
          "time": 54.99583333333333,
          "velocity": 0.48031496062992124
        },
        {
          "duration": 0.13958333333333428,
          "durationTicks": 134,
          "midi": 67,
          "name": "G4",
          "ticks": 52964,
          "time": 55.170833333333334,
          "velocity": 0.30708661417322836
        },
        {
          "duration": 0.19687499999999858,
          "durationTicks": 189,
          "midi": 60,
          "name": "C4",
          "ticks": 52964,
          "time": 55.170833333333334,
          "velocity": 0.4094488188976378
        },
        {
          "duration": 0.18541666666666856,
          "durationTicks": 178,
          "midi": 74,
          "name": "D5",
          "ticks": 52975,
          "time": 55.182291666666664,
          "velocity": 0.3464566929133858
        },
        {
          "duration": 0.3604166666666657,
          "durationTicks": 346,
          "midi": 72,
          "name": "C5",
          "ticks": 52975,
          "time": 55.182291666666664,
          "velocity": 0.5354330708661418
        },
        {
          "duration": 0.1510416666666714,
          "durationTicks": 145,
          "midi": 62,
          "name": "D4",
          "ticks": 52975,
          "time": 55.182291666666664,
          "velocity": 0.3937007874015748
        },
        {
          "duration": 0.39479166666667,
          "durationTicks": 379,
          "midi": 38,
          "name": "D2",
          "ticks": 52997,
          "time": 55.20520833333333,
          "velocity": 0.6614173228346457
        },
        {
          "duration": 0.24374999999999858,
          "durationTicks": 234,
          "midi": 69,
          "name": "A4",
          "ticks": 53008,
          "time": 55.21666666666667,
          "velocity": 0.3937007874015748
        },
        {
          "duration": 0.36145833333333144,
          "durationTicks": 347,
          "midi": 77,
          "name": "F5",
          "ticks": 53142,
          "time": 55.35625,
          "velocity": 0.48031496062992124
        },
        {
          "duration": 0.17395833333333144,
          "durationTicks": 167,
          "midi": 60,
          "name": "C4",
          "ticks": 53153,
          "time": 55.36770833333333,
          "velocity": 0.5354330708661418
        },
        {
          "duration": 0.36145833333333144,
          "durationTicks": 347,
          "midi": 69,
          "name": "A4",
          "ticks": 53242,
          "time": 55.46041666666667,
          "velocity": 0.47244094488188976
        },
        {
          "duration": 0.17500000000000426,
          "durationTicks": 168,
          "midi": 72,
          "name": "C5",
          "ticks": 53320,
          "time": 55.541666666666664,
          "velocity": 0.5590551181102362
        },
        {
          "duration": 0.1875,
          "durationTicks": 180,
          "midi": 60,
          "name": "C4",
          "ticks": 53320,
          "time": 55.541666666666664,
          "velocity": 0.6535433070866141
        },
        {
          "duration": 0.4989583333333343,
          "durationTicks": 479,
          "midi": 38,
          "name": "D2",
          "ticks": 53478,
          "time": 55.70625,
          "velocity": 0.5354330708661418
        },
        {
          "duration": 0.20937500000000142,
          "durationTicks": 201,
          "midi": 77,
          "name": "F5",
          "ticks": 53489,
          "time": 55.717708333333334,
          "velocity": 0.5275590551181102
        },
        {
          "duration": 0.3020833333333357,
          "durationTicks": 290,
          "midi": 72,
          "name": "C5",
          "ticks": 53489,
          "time": 55.717708333333334,
          "velocity": 0.44881889763779526
        },
        {
          "duration": 0.18541666666666856,
          "durationTicks": 178,
          "midi": 53,
          "name": "F3",
          "ticks": 53489,
          "time": 55.717708333333334,
          "velocity": 0.49606299212598426
        },
        {
          "duration": 0.18541666666666856,
          "durationTicks": 178,
          "midi": 60,
          "name": "C4",
          "ticks": 53500,
          "time": 55.729166666666664,
          "velocity": 0.5748031496062992
        },
        {
          "duration": 0.18541666666666856,
          "durationTicks": 178,
          "midi": 74,
          "name": "D5",
          "ticks": 53678,
          "time": 55.91458333333333,
          "velocity": 0.3228346456692913
        },
        {
          "duration": 0.18541666666666856,
          "durationTicks": 178,
          "midi": 60,
          "name": "C4",
          "ticks": 53678,
          "time": 55.91458333333333,
          "velocity": 0.5590551181102362
        },
        {
          "duration": 0.453125,
          "durationTicks": 435,
          "midi": 71,
          "name": "B4",
          "ticks": 53778,
          "time": 56.01875,
          "velocity": 0.4330708661417323
        },
        {
          "duration": 0.42916666666666714,
          "durationTicks": 412,
          "midi": 43,
          "name": "G2",
          "ticks": 53790,
          "time": 56.03125,
          "velocity": 0.3779527559055118
        },
        {
          "duration": 0.23229166666666856,
          "durationTicks": 223,
          "midi": 31,
          "name": "G1",
          "ticks": 53834,
          "time": 56.077083333333334,
          "velocity": 0.36220472440944884
        },
        {
          "duration": 0.18541666666666856,
          "durationTicks": 178,
          "midi": 74,
          "name": "D5",
          "ticks": 53857,
          "time": 56.10104166666667,
          "velocity": 0.3858267716535433
        },
        {
          "duration": 0.3020833333333357,
          "durationTicks": 290,
          "midi": 69,
          "name": "A4",
          "ticks": 53857,
          "time": 56.10104166666667,
          "velocity": 0.29133858267716534
        },
        {
          "duration": 0.37187500000000284,
          "durationTicks": 357,
          "midi": 62,
          "name": "D4",
          "ticks": 53857,
          "time": 56.10104166666667,
          "velocity": 0.49606299212598426
        },
        {
          "duration": 0.22083333333333144,
          "durationTicks": 212,
          "midi": 60,
          "name": "C4",
          "ticks": 53857,
          "time": 56.10104166666667,
          "velocity": 0.33070866141732286
        },
        {
          "duration": 0.37187500000000284,
          "durationTicks": 357,
          "midi": 55,
          "name": "G3",
          "ticks": 53857,
          "time": 56.10104166666667,
          "velocity": 0.3543307086614173
        },
        {
          "duration": 0.27812499999999574,
          "durationTicks": 267,
          "midi": 67,
          "name": "G4",
          "ticks": 53946,
          "time": 56.19375,
          "velocity": 0.3700787401574803
        },
        {
          "duration": 0.18541666666666146,
          "durationTicks": 178,
          "midi": 74,
          "name": "D5",
          "ticks": 54035,
          "time": 56.286458333333336,
          "velocity": 0.4645669291338583
        },
        {
          "duration": 0.6499999999999986,
          "durationTicks": 624,
          "midi": 31,
          "name": "G1",
          "ticks": 54169,
          "time": 56.42604166666667,
          "velocity": 0.5275590551181102
        },
        {
          "duration": 0.9052083333333343,
          "durationTicks": 869,
          "midi": 43,
          "name": "G2",
          "ticks": 54202,
          "time": 56.46041666666667,
          "velocity": 0.5039370078740157
        },
        {
          "duration": 0.2552083333333357,
          "durationTicks": 245,
          "midi": 74,
          "name": "D5",
          "ticks": 54213,
          "time": 56.471875,
          "velocity": 0.30708661417322836
        },
        {
          "duration": 0.9177083333333371,
          "durationTicks": 881,
          "midi": 71,
          "name": "B4",
          "ticks": 54213,
          "time": 56.471875,
          "velocity": 0.3858267716535433
        },
        {
          "duration": 0.2666666666666728,
          "durationTicks": 256,
          "midi": 67,
          "name": "G4",
          "ticks": 54213,
          "time": 56.471875,
          "velocity": 0.41732283464566927
        },
        {
          "duration": 0.18541666666666856,
          "durationTicks": 178,
          "midi": 62,
          "name": "D4",
          "ticks": 54213,
          "time": 56.471875,
          "velocity": 0.5118110236220472
        },
        {
          "duration": 0.6968750000000057,
          "durationTicks": 669,
          "midi": 55,
          "name": "G3",
          "ticks": 54213,
          "time": 56.471875,
          "velocity": 0.3779527559055118
        },
        {
          "duration": 0.8822916666666671,
          "durationTicks": 847,
          "midi": 62,
          "name": "D4",
          "ticks": 54391,
          "time": 56.657291666666666,
          "velocity": 0.4566929133858268
        },
        {
          "duration": 0.27812499999999574,
          "durationTicks": 267,
          "midi": 67,
          "name": "G4",
          "ticks": 54470,
          "time": 56.739583333333336,
          "velocity": 0.3228346456692913
        },
        {
          "duration": 0.2552083333333357,
          "durationTicks": 245,
          "midi": 69,
          "name": "A4",
          "ticks": 54570,
          "time": 56.84375,
          "velocity": 0.3543307086614173
        },
        {
          "duration": 0.22083333333333144,
          "durationTicks": 212,
          "midi": 50,
          "name": "D3",
          "ticks": 54592,
          "time": 56.86666666666667,
          "velocity": 0.33070866141732286
        },
        {
          "duration": 0.4645833333333371,
          "durationTicks": 446,
          "midi": 74,
          "name": "D5",
          "ticks": 54648,
          "time": 56.925,
          "velocity": 0.33070866141732286
        },
        {
          "duration": 0.18541666666666856,
          "durationTicks": 178,
          "midi": 67,
          "name": "G4",
          "ticks": 54737,
          "time": 57.01770833333333,
          "velocity": 0.4566929133858268
        },
        {
          "duration": 0.53541666666667,
          "durationTicks": 514,
          "midi": 31,
          "name": "G1",
          "ticks": 54893,
          "time": 57.18020833333333,
          "velocity": 0.4645669291338583
        },
        {
          "duration": 0.18541666666666856,
          "durationTicks": 178,
          "midi": 67,
          "name": "G4",
          "ticks": 54915,
          "time": 57.203125,
          "velocity": 0.48031496062992124
        },
        {
          "duration": 0.26874999999999716,
          "durationTicks": 258,
          "midi": 74,
          "name": "D5",
          "ticks": 55094,
          "time": 57.389583333333334,
          "velocity": 0.3779527559055118
        },
        {
          "duration": 0.37291666666666856,
          "durationTicks": 358,
          "midi": 71,
          "name": "B4",
          "ticks": 55094,
          "time": 57.389583333333334,
          "velocity": 0.47244094488188976
        },
        {
          "duration": 0.19687499999999858,
          "durationTicks": 189,
          "midi": 67,
          "name": "G4",
          "ticks": 55094,
          "time": 57.389583333333334,
          "velocity": 0.6062992125984252
        },
        {
          "duration": 0.22187499999999716,
          "durationTicks": 213,
          "midi": 55,
          "name": "G3",
          "ticks": 55094,
          "time": 57.389583333333334,
          "velocity": 0.4881889763779528
        },
        {
          "duration": 0.12916666666666288,
          "durationTicks": 124,
          "midi": 43,
          "name": "G2",
          "ticks": 55205,
          "time": 57.505208333333336,
          "velocity": 0.33070866141732286
        },
        {
          "duration": 0.22187500000000426,
          "durationTicks": 213,
          "midi": 62,
          "name": "D4",
          "ticks": 55239,
          "time": 57.540625,
          "velocity": 0.5669291338582677
        },
        {
          "duration": 0.16354166666666714,
          "durationTicks": 157,
          "midi": 67,
          "name": "G4",
          "ticks": 55283,
          "time": 57.58645833333333,
          "velocity": 0.5354330708661418
        },
        {
          "duration": 0.16354166666666714,
          "durationTicks": 157,
          "midi": 65,
          "name": "F4",
          "ticks": 55283,
          "time": 57.58645833333333,
          "velocity": 0.44881889763779526
        },
        {
          "duration": 0.19687499999999858,
          "durationTicks": 189,
          "midi": 67,
          "name": "G4",
          "ticks": 55440,
          "time": 57.75,
          "velocity": 0.5511811023622047
        },
        {
          "duration": 0.1510416666666643,
          "durationTicks": 145,
          "midi": 65,
          "name": "F4",
          "ticks": 55440,
          "time": 57.75,
          "velocity": 0.3464566929133858
        },
        {
          "duration": 0.3479166666666629,
          "durationTicks": 334,
          "midi": 71,
          "name": "B4",
          "ticks": 55452,
          "time": 57.7625,
          "velocity": 0.3779527559055118
        },
        {
          "duration": 0.17395833333333144,
          "durationTicks": 167,
          "midi": 62,
          "name": "D4",
          "ticks": 55452,
          "time": 57.7625,
          "velocity": 0.6299212598425197
        },
        {
          "duration": 0.13958333333332718,
          "durationTicks": 134,
          "midi": 55,
          "name": "G3",
          "ticks": 55452,
          "time": 57.7625,
          "velocity": 0.4015748031496063
        },
        {
          "duration": 0.3135416666666728,
          "durationTicks": 301,
          "midi": 43,
          "name": "G2",
          "ticks": 55496,
          "time": 57.80833333333333,
          "velocity": 0.3858267716535433
        },
        {
          "duration": 0.16250000000000142,
          "durationTicks": 156,
          "midi": 74,
          "name": "D5",
          "ticks": 55619,
          "time": 57.936458333333334,
          "velocity": 0.25196850393700787
        },
        {
          "duration": 0.5687500000000014,
          "durationTicks": 546,
          "midi": 62,
          "name": "D4",
          "ticks": 55619,
          "time": 57.936458333333334,
          "velocity": 0.5590551181102362
        },
        {
          "duration": 0.17395833333333854,
          "durationTicks": 167,
          "midi": 67,
          "name": "G4",
          "ticks": 55630,
          "time": 57.947916666666664,
          "velocity": 0.5433070866141733
        },
        {
          "duration": 0.13958333333333428,
          "durationTicks": 134,
          "midi": 60,
          "name": "C4",
          "ticks": 55630,
          "time": 57.947916666666664,
          "velocity": 0.3937007874015748
        },
        {
          "duration": 0.5572916666666714,
          "durationTicks": 535,
          "midi": 55,
          "name": "G3",
          "ticks": 55630,
          "time": 57.947916666666664,
          "velocity": 0.4881889763779528
        },
        {
          "duration": 0.47604166666666714,
          "durationTicks": 457,
          "midi": 31,
          "name": "G1",
          "ticks": 55641,
          "time": 57.959375,
          "velocity": 0.5118110236220472
        },
        {
          "duration": 0.5572916666666643,
          "durationTicks": 535,
          "midi": 67,
          "name": "G4",
          "ticks": 55797,
          "time": 58.121875,
          "velocity": 0.5511811023622047
        },
        {
          "duration": 0.19687499999999858,
          "durationTicks": 189,
          "midi": 59,
          "name": "B3",
          "ticks": 55808,
          "time": 58.13333333333333,
          "velocity": 0.49606299212598426
        },
        {
          "duration": 0.18541666666666856,
          "durationTicks": 178,
          "midi": 71,
          "name": "B4",
          "ticks": 56109,
          "time": 58.446875,
          "velocity": 0.3858267716535433
        },
        {
          "duration": 0.17395833333333144,
          "durationTicks": 167,
          "midi": 62,
          "name": "D4",
          "ticks": 56165,
          "time": 58.505208333333336,
          "velocity": 0.5039370078740157
        },
        {
          "duration": 0.17395833333333144,
          "durationTicks": 167,
          "midi": 55,
          "name": "G3",
          "ticks": 56165,
          "time": 58.505208333333336,
          "velocity": 0.6377952755905512
        },
        {
          "duration": 0.3135416666666657,
          "durationTicks": 301,
          "midi": 31,
          "name": "G1",
          "ticks": 56310,
          "time": 58.65625,
          "velocity": 0.3779527559055118
        },
        {
          "duration": 0.2666666666666657,
          "durationTicks": 256,
          "midi": 67,
          "name": "G4",
          "ticks": 56332,
          "time": 58.67916666666667,
          "velocity": 0.49606299212598426
        },
        {
          "duration": 0.2906249999999986,
          "durationTicks": 279,
          "midi": 62,
          "name": "D4",
          "ticks": 56332,
          "time": 58.67916666666667,
          "velocity": 0.5196850393700787
        },
        {
          "duration": 0.19687499999999858,
          "durationTicks": 189,
          "midi": 55,
          "name": "G3",
          "ticks": 56332,
          "time": 58.67916666666667,
          "velocity": 0.5511811023622047
        },
        {
          "duration": 0.2666666666666657,
          "durationTicks": 256,
          "midi": 53,
          "name": "F3",
          "ticks": 56332,
          "time": 58.67916666666667,
          "velocity": 0.3700787401574803
        },
        {
          "duration": 0.37187500000000284,
          "durationTicks": 357,
          "midi": 55,
          "name": "G3",
          "ticks": 56522,
          "time": 58.87708333333333,
          "velocity": 0.4645669291338583
        },
        {
          "duration": 0.13958333333333428,
          "durationTicks": 134,
          "midi": 43,
          "name": "G2",
          "ticks": 56522,
          "time": 58.87708333333333,
          "velocity": 0.3858267716535433
        },
        {
          "duration": 2.5916666666666686,
          "durationTicks": 2488,
          "midi": 72,
          "name": "C5",
          "ticks": 56666,
          "time": 59.02708333333333,
          "velocity": 0.47244094488188976
        },
        {
          "duration": 2.6614583333333286,
          "durationTicks": 2555,
          "midi": 36,
          "name": "C2",
          "ticks": 56689,
          "time": 59.05104166666667,
          "velocity": 0.6141732283464567
        },
        {
          "duration": 0.33645833333333286,
          "durationTicks": 323,
          "midi": 48,
          "name": "C3",
          "ticks": 56700,
          "time": 59.0625,
          "velocity": 0.44881889763779526
        },
        {
          "duration": 0.48750000000000426,
          "durationTicks": 468,
          "midi": 79,
          "name": "G5",
          "ticks": 56711,
          "time": 59.07395833333333,
          "velocity": 0.36220472440944884
        },
        {
          "duration": 0.34791666666667,
          "durationTicks": 334,
          "midi": 60,
          "name": "C4",
          "ticks": 56711,
          "time": 59.07395833333333,
          "velocity": 0.6377952755905512
        },
        {
          "duration": 0.19687499999999858,
          "durationTicks": 189,
          "midi": 64,
          "name": "E4",
          "ticks": 56789,
          "time": 59.155208333333334,
          "velocity": 0.5905511811023622
        },
        {
          "duration": 0.2552083333333286,
          "durationTicks": 245,
          "midi": 55,
          "name": "G3",
          "ticks": 56878,
          "time": 59.24791666666667,
          "velocity": 0.3937007874015748
        },
        {
          "duration": 0.2447916666666714,
          "durationTicks": 235,
          "midi": 64,
          "name": "E4",
          "ticks": 56979,
          "time": 59.353125,
          "velocity": 0.5748031496062992
        },
        {
          "duration": 0.36145833333333144,
          "durationTicks": 347,
          "midi": 60,
          "name": "C4",
          "ticks": 57045,
          "time": 59.421875,
          "velocity": 0.5984251968503937
        },
        {
          "duration": 0.37187499999999574,
          "durationTicks": 357,
          "midi": 67,
          "name": "G4",
          "ticks": 57214,
          "time": 59.59791666666667,
          "velocity": 0.36220472440944884
        },
        {
          "duration": 0.18541666666666146,
          "durationTicks": 178,
          "midi": 64,
          "name": "E4",
          "ticks": 57214,
          "time": 59.59791666666667,
          "velocity": 0.5984251968503937
        },
        {
          "duration": 0.19687499999999858,
          "durationTicks": 189,
          "midi": 64,
          "name": "E4",
          "ticks": 57392,
          "time": 59.78333333333333,
          "velocity": 0.6220472440944882
        },
        {
          "duration": 0.18541666666666856,
          "durationTicks": 178,
          "midi": 60,
          "name": "C4",
          "ticks": 57392,
          "time": 59.78333333333333,
          "velocity": 0.6771653543307087
        },
        {
          "duration": 0.18541666666666856,
          "durationTicks": 178,
          "midi": 67,
          "name": "G4",
          "ticks": 57570,
          "time": 59.96875,
          "velocity": 0.6141732283464567
        },
        {
          "duration": 0.37187500000000284,
          "durationTicks": 357,
          "midi": 60,
          "name": "C4",
          "ticks": 57570,
          "time": 59.96875,
          "velocity": 0.6062992125984252
        },
        {
          "duration": 0.18541666666666856,
          "durationTicks": 178,
          "midi": 55,
          "name": "G3",
          "ticks": 57570,
          "time": 59.96875,
          "velocity": 0.3543307086614173
        },
        {
          "duration": 0.3604166666666657,
          "durationTicks": 346,
          "midi": 64,
          "name": "E4",
          "ticks": 57582,
          "time": 59.98125,
          "velocity": 0.6062992125984252
        },
        {
          "duration": 0.16250000000000142,
          "durationTicks": 156,
          "midi": 67,
          "name": "G4",
          "ticks": 57749,
          "time": 60.155208333333334,
          "velocity": 0.4094488188976378
        },
        {
          "duration": 0.5572916666666643,
          "durationTicks": 535,
          "midi": 55,
          "name": "G3",
          "ticks": 57749,
          "time": 60.155208333333334,
          "velocity": 0.41732283464566927
        },
        {
          "duration": 0.20937500000000142,
          "durationTicks": 201,
          "midi": 84,
          "name": "C6",
          "ticks": 57849,
          "time": 60.259375,
          "velocity": 0.31496062992125984
        },
        {
          "duration": 0.18541666666666146,
          "durationTicks": 178,
          "midi": 64,
          "name": "E4",
          "ticks": 57927,
          "time": 60.340625,
          "velocity": 0.6692913385826772
        },
        {
          "duration": 0.16249999999999432,
          "durationTicks": 156,
          "midi": 60,
          "name": "C4",
          "ticks": 57927,
          "time": 60.340625,
          "velocity": 0.44881889763779526
        },
        {
          "duration": 0.4989583333333343,
          "durationTicks": 479,
          "midi": 79,
          "name": "G5",
          "ticks": 57983,
          "time": 60.39895833333333,
          "velocity": 0.3700787401574803
        },
        {
          "duration": 0.37187500000000284,
          "durationTicks": 357,
          "midi": 64,
          "name": "E4",
          "ticks": 58105,
          "time": 60.526041666666664,
          "velocity": 0.49606299212598426
        },
        {
          "duration": 0.17395833333333854,
          "durationTicks": 167,
          "midi": 60,
          "name": "C4",
          "ticks": 58105,
          "time": 60.526041666666664,
          "velocity": 0.36220472440944884
        },
        {
          "duration": 0.3020833333333286,
          "durationTicks": 290,
          "midi": 62,
          "name": "D4",
          "ticks": 58183,
          "time": 60.60729166666667,
          "velocity": 0.6614173228346457
        },
        {
          "duration": 0.18541666666666856,
          "durationTicks": 178,
          "midi": 67,
          "name": "G4",
          "ticks": 58284,
          "time": 60.7125,
          "velocity": 0.3228346456692913
        },
        {
          "duration": 0.44166666666667,
          "durationTicks": 424,
          "midi": 55,
          "name": "G3",
          "ticks": 58284,
          "time": 60.7125,
          "velocity": 0.44881889763779526
        },
        {
          "duration": 0.24374999999999858,
          "durationTicks": 234,
          "midi": 84,
          "name": "C6",
          "ticks": 58373,
          "time": 60.80520833333333,
          "velocity": 0.33070866141732286
        },
        {
          "duration": 0.18541666666666856,
          "durationTicks": 178,
          "midi": 64,
          "name": "E4",
          "ticks": 58462,
          "time": 60.89791666666667,
          "velocity": 0.5039370078740157
        },
        {
          "duration": 0.17395833333333144,
          "durationTicks": 167,
          "midi": 60,
          "name": "C4",
          "ticks": 58462,
          "time": 60.89791666666667,
          "velocity": 0.4409448818897638
        },
        {
          "duration": 0.5343750000000043,
          "durationTicks": 513,
          "midi": 79,
          "name": "G5",
          "ticks": 58473,
          "time": 60.909375,
          "velocity": 0.3700787401574803
        },
        {
          "duration": 0.17395833333333854,
          "durationTicks": 167,
          "midi": 62,
          "name": "D4",
          "ticks": 58473,
          "time": 60.909375,
          "velocity": 0.6771653543307087
        },
        {
          "duration": 0.40625,
          "durationTicks": 390,
          "midi": 64,
          "name": "E4",
          "ticks": 58640,
          "time": 61.083333333333336,
          "velocity": 0.5118110236220472
        },
        {
          "duration": 0.22083333333333144,
          "durationTicks": 212,
          "midi": 62,
          "name": "D4",
          "ticks": 58640,
          "time": 61.083333333333336,
          "velocity": 0.5433070866141733
        },
        {
          "duration": 0.48749999999999716,
          "durationTicks": 468,
          "midi": 48,
          "name": "C3",
          "ticks": 58640,
          "time": 61.083333333333336,
          "velocity": 0.3779527559055118
        },
        {
          "duration": 0.20937500000000142,
          "durationTicks": 201,
          "midi": 60,
          "name": "C4",
          "ticks": 58763,
          "time": 61.21145833333333,
          "velocity": 0.36220472440944884
        },
        {
          "duration": 0.1510416666666714,
          "durationTicks": 145,
          "midi": 55,
          "name": "G3",
          "ticks": 58841,
          "time": 61.29270833333333,
          "velocity": 0.3464566929133858
        },
        {
          "duration": 0.1510416666666643,
          "durationTicks": 145,
          "midi": 62,
          "name": "D4",
          "ticks": 58852,
          "time": 61.30416666666667,
          "velocity": 0.6220472440944882
        },
        {
          "duration": 0.17499999999999716,
          "durationTicks": 168,
          "midi": 79,
          "name": "G5",
          "ticks": 58986,
          "time": 61.44375,
          "velocity": 0.4094488188976378
        },
        {
          "duration": 0.16354166666666714,
          "durationTicks": 157,
          "midi": 62,
          "name": "D4",
          "ticks": 58997,
          "time": 61.45520833333333,
          "velocity": 0.5669291338582677
        },
        {
          "duration": 0.17500000000000426,
          "durationTicks": 168,
          "midi": 55,
          "name": "G3",
          "ticks": 58997,
          "time": 61.45520833333333,
          "velocity": 0.5039370078740157
        },
        {
          "duration": 0.5239583333333329,
          "durationTicks": 503,
          "midi": 64,
          "name": "E4",
          "ticks": 59031,
          "time": 61.490625,
          "velocity": 0.5433070866141733
        },
        {
          "duration": 0.3604166666666657,
          "durationTicks": 346,
          "midi": 79,
          "name": "G5",
          "ticks": 59154,
          "time": 61.61875,
          "velocity": 0.3779527559055118
        },
        {
          "duration": 0.38333333333333286,
          "durationTicks": 368,
          "midi": 72,
          "name": "C5",
          "ticks": 59154,
          "time": 61.61875,
          "velocity": 0.5826771653543307
        },
        {
          "duration": 0.19687499999999858,
          "durationTicks": 189,
          "midi": 62,
          "name": "D4",
          "ticks": 59154,
          "time": 61.61875,
          "velocity": 0.4881889763779528
        },
        {
          "duration": 0.32500000000000284,
          "durationTicks": 312,
          "midi": 60,
          "name": "C4",
          "ticks": 59154,
          "time": 61.61875,
          "velocity": 0.3858267716535433
        },
        {
          "duration": 0.18541666666666856,
          "durationTicks": 178,
          "midi": 55,
          "name": "G3",
          "ticks": 59166,
          "time": 61.63125,
          "velocity": 0.36220472440944884
        },
        {
          "duration": 0.2666666666666657,
          "durationTicks": 256,
          "midi": 48,
          "name": "C3",
          "ticks": 59166,
          "time": 61.63125,
          "velocity": 0.48031496062992124
        },
        {
          "duration": 0.16250000000000142,
          "durationTicks": 156,
          "midi": 43,
          "name": "G2",
          "ticks": 59166,
          "time": 61.63125,
          "velocity": 0.3779527559055118
        },
        {
          "duration": 0.16249999999999432,
          "durationTicks": 156,
          "midi": 31,
          "name": "G1",
          "ticks": 59232,
          "time": 61.7,
          "velocity": 0.6850393700787402
        },
        {
          "duration": 0.18541666666666146,
          "durationTicks": 178,
          "midi": 62,
          "name": "D4",
          "ticks": 59344,
          "time": 61.81666666666667,
          "velocity": 0.41732283464566927
        },
        {
          "duration": 0.18541666666666146,
          "durationTicks": 178,
          "midi": 55,
          "name": "G3",
          "ticks": 59344,
          "time": 61.81666666666667,
          "velocity": 0.4645669291338583
        },
        {
          "duration": 0.16250000000000142,
          "durationTicks": 156,
          "midi": 36,
          "name": "C2",
          "ticks": 59355,
          "time": 61.828125,
          "velocity": 0.3700787401574803
        },
        {
          "duration": 0.24375000000000568,
          "durationTicks": 234,
          "midi": 31,
          "name": "G1",
          "ticks": 59388,
          "time": 61.8625,
          "velocity": 0.5511811023622047
        },
        {
          "duration": 0.16250000000000142,
          "durationTicks": 156,
          "midi": 36,
          "name": "C2",
          "ticks": 59511,
          "time": 61.990625,
          "velocity": 0.5118110236220472
        },
        {
          "duration": 0.9291666666666671,
          "durationTicks": 892,
          "midi": 72,
          "name": "C5",
          "ticks": 59522,
          "time": 62.00208333333333,
          "velocity": 0.48031496062992124
        },
        {
          "duration": 0.37187500000000284,
          "durationTicks": 357,
          "midi": 62,
          "name": "D4",
          "ticks": 59522,
          "time": 62.00208333333333,
          "velocity": 0.6141732283464567
        },
        {
          "duration": 0.5104166666666714,
          "durationTicks": 490,
          "midi": 55,
          "name": "G3",
          "ticks": 59522,
          "time": 62.00208333333333,
          "velocity": 0.31496062992125984
        },
        {
          "duration": 2.6947916666666742,
          "durationTicks": 2587,
          "midi": 50,
          "name": "D3",
          "ticks": 59522,
          "time": 62.00208333333333,
          "velocity": 0.4409448818897638
        },
        {
          "duration": 0.13958333333333428,
          "durationTicks": 134,
          "midi": 43,
          "name": "G2",
          "ticks": 59522,
          "time": 62.00208333333333,
          "velocity": 0.33858267716535434
        },
        {
          "duration": 0.17395833333333144,
          "durationTicks": 167,
          "midi": 65,
          "name": "F4",
          "ticks": 59533,
          "time": 62.01354166666667,
          "velocity": 0.5748031496062992
        },
        {
          "duration": 2.171875,
          "durationTicks": 2085,
          "midi": 36,
          "name": "C2",
          "ticks": 59667,
          "time": 62.153125,
          "velocity": 0.5118110236220472
        },
        {
          "duration": 0.37187500000000284,
          "durationTicks": 357,
          "midi": 65,
          "name": "F4",
          "ticks": 59700,
          "time": 62.1875,
          "velocity": 0.6692913385826772
        },
        {
          "duration": 0.18541666666666856,
          "durationTicks": 178,
          "midi": 62,
          "name": "D4",
          "ticks": 59879,
          "time": 62.373958333333334,
          "velocity": 0.6377952755905512
        },
        {
          "duration": 0.18541666666666146,
          "durationTicks": 178,
          "midi": 65,
          "name": "F4",
          "ticks": 60057,
          "time": 62.559375,
          "velocity": 0.7322834645669292
        },
        {
          "duration": 0.18541666666666146,
          "durationTicks": 178,
          "midi": 62,
          "name": "D4",
          "ticks": 60057,
          "time": 62.559375,
          "velocity": 0.6141732283464567
        },
        {
          "duration": 0.5572916666666714,
          "durationTicks": 535,
          "midi": 65,
          "name": "F4",
          "ticks": 60235,
          "time": 62.744791666666664,
          "velocity": 0.5511811023622047
        },
        {
          "duration": 0.18541666666666856,
          "durationTicks": 178,
          "midi": 62,
          "name": "D4",
          "ticks": 60235,
          "time": 62.744791666666664,
          "velocity": 0.6456692913385826
        },
        {
          "duration": 0.13958333333333428,
          "durationTicks": 134,
          "midi": 77,
          "name": "F5",
          "ticks": 60403,
          "time": 62.91979166666667,
          "velocity": 0.4330708661417323
        },
        {
          "duration": 0.37187500000000284,
          "durationTicks": 357,
          "midi": 72,
          "name": "C5",
          "ticks": 60414,
          "time": 62.93125,
          "velocity": 0.5826771653543307
        },
        {
          "duration": 0.19687499999999858,
          "durationTicks": 189,
          "midi": 62,
          "name": "D4",
          "ticks": 60414,
          "time": 62.93125,
          "velocity": 0.4645669291338583
        },
        {
          "duration": 0.17395833333333854,
          "durationTicks": 167,
          "midi": 62,
          "name": "D4",
          "ticks": 60603,
          "time": 63.128125,
          "velocity": 0.5590551181102362
        },
        {
          "duration": 0.2552083333333286,
          "durationTicks": 245,
          "midi": 77,
          "name": "F5",
          "ticks": 60770,
          "time": 63.302083333333336,
          "velocity": 0.4015748031496063
        },
        {
          "duration": 0.17395833333333144,
          "durationTicks": 167,
          "midi": 72,
          "name": "C5",
          "ticks": 60770,
          "time": 63.302083333333336,
          "velocity": 0.4645669291338583
        },
        {
          "duration": 0.26874999999999716,
          "durationTicks": 258,
          "midi": 65,
          "name": "F4",
          "ticks": 60770,
          "time": 63.302083333333336,
          "velocity": 0.5433070866141733
        },
        {
          "duration": 0.18541666666666146,
          "durationTicks": 178,
          "midi": 62,
          "name": "D4",
          "ticks": 60770,
          "time": 63.302083333333336,
          "velocity": 0.5511811023622047
        },
        {
          "duration": 0.1875,
          "durationTicks": 180,
          "midi": 72,
          "name": "C5",
          "ticks": 60938,
          "time": 63.47708333333333,
          "velocity": 0.5039370078740157
        },
        {
          "duration": 0.36145833333333144,
          "durationTicks": 347,
          "midi": 62,
          "name": "D4",
          "ticks": 60949,
          "time": 63.48854166666667,
          "velocity": 0.5905511811023622
        },
        {
          "duration": 0.38333333333333286,
          "durationTicks": 368,
          "midi": 65,
          "name": "F4",
          "ticks": 61028,
          "time": 63.57083333333333,
          "velocity": 0.6299212598425197
        },
        {
          "duration": 0.18541666666666856,
          "durationTicks": 178,
          "midi": 72,
          "name": "C5",
          "ticks": 61117,
          "time": 63.66354166666667,
          "velocity": 0.49606299212598426
        },
        {
          "duration": 0.6968749999999986,
          "durationTicks": 669,
          "midi": 72,
          "name": "C5",
          "ticks": 61296,
          "time": 63.85,
          "velocity": 0.4094488188976378
        },
        {
          "duration": 0.18541666666666146,
          "durationTicks": 178,
          "midi": 62,
          "name": "D4",
          "ticks": 61296,
          "time": 63.85,
          "velocity": 0.5511811023622047
        },
        {
          "duration": 0.18541666666666856,
          "durationTicks": 178,
          "midi": 65,
          "name": "F4",
          "ticks": 61396,
          "time": 63.954166666666666,
          "velocity": 0.6220472440944882
        },
        {
          "duration": 0.23229166666666856,
          "durationTicks": 223,
          "midi": 77,
          "name": "F5",
          "ticks": 61474,
          "time": 64.03541666666666,
          "velocity": 0.2992125984251969
        },
        {
          "duration": 0.37187500000000284,
          "durationTicks": 357,
          "midi": 62,
          "name": "D4",
          "ticks": 61474,
          "time": 64.03541666666666,
          "velocity": 0.5669291338582677
        },
        {
          "duration": 0.2666666666666657,
          "durationTicks": 256,
          "midi": 65,
          "name": "F4",
          "ticks": 61574,
          "time": 64.13958333333333,
          "velocity": 0.5905511811023622
        },
        {
          "duration": 0.19687500000000568,
          "durationTicks": 189,
          "midi": 65,
          "name": "F4",
          "ticks": 61831,
          "time": 64.40729166666667,
          "velocity": 0.47244094488188976
        },
        {
          "duration": 0.13958333333333428,
          "durationTicks": 134,
          "midi": 62,
          "name": "D4",
          "ticks": 61831,
          "time": 64.40729166666667,
          "velocity": 0.4330708661417323
        },
        {
          "duration": 0.8479166666666629,
          "durationTicks": 814,
          "midi": 31,
          "name": "G1",
          "ticks": 61842,
          "time": 64.41875,
          "velocity": 0.4566929133858268
        },
        {
          "duration": 0.22083333333333144,
          "durationTicks": 212,
          "midi": 84,
          "name": "C6",
          "ticks": 61964,
          "time": 64.54583333333333,
          "velocity": 0.2440944881889764
        },
        {
          "duration": 0.42916666666666003,
          "durationTicks": 412,
          "midi": 72,
          "name": "C5",
          "ticks": 61964,
          "time": 64.54583333333333,
          "velocity": 0.5511811023622047
        },
        {
          "duration": 0.33645833333332575,
          "durationTicks": 323,
          "midi": 62,
          "name": "D4",
          "ticks": 61964,
          "time": 64.54583333333333,
          "velocity": 0.3464566929133858
        },
        {
          "duration": 0.20937499999999432,
          "durationTicks": 201,
          "midi": 48,
          "name": "C3",
          "ticks": 62009,
          "time": 64.59270833333333,
          "velocity": 0.4566929133858268
        },
        {
          "duration": 0.18541666666666856,
          "durationTicks": 178,
          "midi": 64,
          "name": "E4",
          "ticks": 62020,
          "time": 64.60416666666667,
          "velocity": 0.5748031496062992
        },
        {
          "duration": 0.19687499999999147,
          "durationTicks": 189,
          "midi": 57,
          "name": "A3",
          "ticks": 62065,
          "time": 64.65104166666667,
          "velocity": 0.33070866141732286
        },
        {
          "duration": 0.3604166666666657,
          "durationTicks": 346,
          "midi": 64,
          "name": "E4",
          "ticks": 62198,
          "time": 64.78958333333334,
          "velocity": 0.6062992125984252
        },
        {
          "duration": 2.5552083333333258,
          "durationTicks": 2453,
          "midi": 36,
          "name": "C2",
          "ticks": 62354,
          "time": 64.95208333333333,
          "velocity": 0.5590551181102362
        },
        {
          "duration": 0.8604166666666657,
          "durationTicks": 826,
          "midi": 55,
          "name": "G3",
          "ticks": 62366,
          "time": 64.96458333333334,
          "velocity": 0.3700787401574803
        },
        {
          "duration": 1.26666666666668,
          "durationTicks": 1216,
          "midi": 71,
          "name": "B4",
          "ticks": 62377,
          "time": 64.97604166666666,
          "velocity": 0.4881889763779528
        },
        {
          "duration": 0.13958333333333428,
          "durationTicks": 134,
          "midi": 52,
          "name": "E3",
          "ticks": 62399,
          "time": 64.99895833333333,
          "velocity": 0.5433070866141733
        },
        {
          "duration": 0.3020833333333286,
          "durationTicks": 290,
          "midi": 59,
          "name": "B3",
          "ticks": 62432,
          "time": 65.03333333333333,
          "velocity": 0.4330708661417323
        },
        {
          "duration": 0.2906249999999915,
          "durationTicks": 279,
          "midi": 64,
          "name": "E4",
          "ticks": 62544,
          "time": 65.15,
          "velocity": 0.6771653543307087
        },
        {
          "duration": 2.393749999999997,
          "durationTicks": 2298,
          "midi": 52,
          "name": "E3",
          "ticks": 62544,
          "time": 65.15,
          "velocity": 0.6220472440944882
        },
        {
          "duration": 0.5354166666666771,
          "durationTicks": 514,
          "midi": 59,
          "name": "B3",
          "ticks": 62722,
          "time": 65.33541666666666,
          "velocity": 0.44881889763779526
        },
        {
          "duration": 0.2447916666666714,
          "durationTicks": 235,
          "midi": 64,
          "name": "E4",
          "ticks": 62822,
          "time": 65.43958333333333,
          "velocity": 0.6929133858267716
        },
        {
          "duration": 0.19687499999999147,
          "durationTicks": 189,
          "midi": 64,
          "name": "E4",
          "ticks": 63058,
          "time": 65.68541666666667,
          "velocity": 0.6456692913385826
        },
        {
          "duration": 0.1510416666666572,
          "durationTicks": 145,
          "midi": 76,
          "name": "E5",
          "ticks": 63236,
          "time": 65.87083333333334,
          "velocity": 0.2755905511811024
        },
        {
          "duration": 0.37187500000000284,
          "durationTicks": 357,
          "midi": 59,
          "name": "B3",
          "ticks": 63236,
          "time": 65.87083333333334,
          "velocity": 0.41732283464566927
        },
        {
          "duration": 0.18541666666666856,
          "durationTicks": 178,
          "midi": 67,
          "name": "G4",
          "ticks": 63247,
          "time": 65.88229166666666,
          "velocity": 0.29133858267716534
        },
        {
          "duration": 0.27812500000000284,
          "durationTicks": 267,
          "midi": 64,
          "name": "E4",
          "ticks": 63247,
          "time": 65.88229166666666,
          "velocity": 0.49606299212598426
        },
        {
          "duration": 0.17395833333334565,
          "durationTicks": 167,
          "midi": 67,
          "name": "G4",
          "ticks": 63426,
          "time": 66.06875,
          "velocity": 0.49606299212598426
        },
        {
          "duration": 0.2666666666666657,
          "durationTicks": 256,
          "midi": 64,
          "name": "E4",
          "ticks": 63515,
          "time": 66.16145833333333,
          "velocity": 0.6062992125984252
        },
        {
          "duration": 0.3020833333333286,
          "durationTicks": 290,
          "midi": 71,
          "name": "B4",
          "ticks": 63593,
          "time": 66.24270833333334,
          "velocity": 0.5196850393700787
        },
        {
          "duration": 0.18541666666665435,
          "durationTicks": 178,
          "midi": 67,
          "name": "G4",
          "ticks": 63593,
          "time": 66.24270833333334,
          "velocity": 0.4330708661417323
        },
        {
          "duration": 0.7427083333333258,
          "durationTicks": 713,
          "midi": 59,
          "name": "B3",
          "ticks": 63593,
          "time": 66.24270833333334,
          "velocity": 0.3779527559055118
        },
        {
          "duration": 0.5572916666666714,
          "durationTicks": 535,
          "midi": 67,
          "name": "G4",
          "ticks": 63771,
          "time": 66.428125,
          "velocity": 0.6771653543307087
        },
        {
          "duration": 0.38333333333333997,
          "durationTicks": 368,
          "midi": 64,
          "name": "E4",
          "ticks": 63771,
          "time": 66.428125,
          "velocity": 0.4251968503937008
        },
        {
          "duration": 0.6270833333333314,
          "durationTicks": 602,
          "midi": 48,
          "name": "C3",
          "ticks": 63838,
          "time": 66.49791666666667,
          "velocity": 0.3464566929133858
        },
        {
          "duration": 0.8239583333333229,
          "durationTicks": 791,
          "midi": 55,
          "name": "G3",
          "ticks": 63849,
          "time": 66.509375,
          "velocity": 0.4015748031496063
        },
        {
          "duration": 0.5687499999999943,
          "durationTicks": 546,
          "midi": 64,
          "name": "E4",
          "ticks": 64139,
          "time": 66.81145833333333,
          "velocity": 0.47244094488188976
        },
        {
          "duration": 0.18541666666666856,
          "durationTicks": 178,
          "midi": 67,
          "name": "G4",
          "ticks": 64306,
          "time": 66.98541666666667,
          "velocity": 0.7086614173228346
        },
        {
          "duration": 0.38333333333333997,
          "durationTicks": 368,
          "midi": 59,
          "name": "B3",
          "ticks": 64306,
          "time": 66.98541666666667,
          "velocity": 0.3858267716535433
        },
        {
          "duration": 0.2906250000000057,
          "durationTicks": 279,
          "midi": 67,
          "name": "G4",
          "ticks": 64484,
          "time": 67.17083333333333,
          "velocity": 0.6850393700787402
        },
        {
          "duration": 0.3499999999999943,
          "durationTicks": 336,
          "midi": 59,
          "name": "B3",
          "ticks": 64674,
          "time": 67.36875,
          "velocity": 0.3543307086614173
        },
        {
          "duration": 0.16250000000000853,
          "durationTicks": 156,
          "midi": 64,
          "name": "E4",
          "ticks": 64685,
          "time": 67.38020833333333,
          "velocity": 0.4251968503937008
        },
        {
          "duration": 0.47708333333332575,
          "durationTicks": 458,
          "midi": 31,
          "name": "G1",
          "ticks": 64752,
          "time": 67.45,
          "velocity": 0.5433070866141733
        },
        {
          "duration": 1,
          "durationTicks": 960,
          "midi": 67,
          "name": "G4",
          "ticks": 64763,
          "time": 67.46145833333334,
          "velocity": 0.6062992125984252
        },
        {
          "duration": 1.0572916666666572,
          "durationTicks": 1015,
          "midi": 83,
          "name": "B5",
          "ticks": 64841,
          "time": 67.54270833333334,
          "velocity": 0.4251968503937008
        },
        {
          "duration": 0.37291666666666856,
          "durationTicks": 358,
          "midi": 64,
          "name": "E4",
          "ticks": 64841,
          "time": 67.54270833333334,
          "velocity": 0.4645669291338583
        },
        {
          "duration": 0.3604166666666657,
          "durationTicks": 346,
          "midi": 52,
          "name": "E3",
          "ticks": 64842,
          "time": 67.54375,
          "velocity": 0.5354330708661418
        },
        {
          "duration": 0.19687499999999147,
          "durationTicks": 189,
          "midi": 40,
          "name": "E2",
          "ticks": 64898,
          "time": 67.60208333333334,
          "velocity": 0.33070866141732286
        },
        {
          "duration": 0.1510416666666714,
          "durationTicks": 145,
          "midi": 59,
          "name": "B3",
          "ticks": 65009,
          "time": 67.71770833333333,
          "velocity": 0.36220472440944884
        },
        {
          "duration": 0.5572916666666714,
          "durationTicks": 535,
          "midi": 48,
          "name": "C3",
          "ticks": 65188,
          "time": 67.90416666666667,
          "velocity": 0.4094488188976378
        },
        {
          "duration": 0.3604166666666657,
          "durationTicks": 346,
          "midi": 69,
          "name": "A4",
          "ticks": 65199,
          "time": 67.915625,
          "velocity": 0.5275590551181102
        },
        {
          "duration": 0.3604166666666657,
          "durationTicks": 346,
          "midi": 60,
          "name": "C4",
          "ticks": 65199,
          "time": 67.915625,
          "velocity": 0.3228346456692913
        },
        {
          "duration": 0.3604166666666657,
          "durationTicks": 346,
          "midi": 53,
          "name": "F3",
          "ticks": 65199,
          "time": 67.915625,
          "velocity": 0.33070866141732286
        },
        {
          "duration": 0.5458333333333343,
          "durationTicks": 524,
          "midi": 41,
          "name": "F2",
          "ticks": 65199,
          "time": 67.915625,
          "velocity": 0.5196850393700787
        },
        {
          "duration": 0.33645833333332575,
          "durationTicks": 323,
          "midi": 29,
          "name": "F1",
          "ticks": 65232,
          "time": 67.95,
          "velocity": 0.5118110236220472
        },
        {
          "duration": 0.5687499999999943,
          "durationTicks": 546,
          "midi": 69,
          "name": "A4",
          "ticks": 65544,
          "time": 68.275,
          "velocity": 0.48031496062992124
        },
        {
          "duration": 0.18541666666665435,
          "durationTicks": 178,
          "midi": 60,
          "name": "C4",
          "ticks": 65544,
          "time": 68.275,
          "velocity": 0.33070866141732286
        },
        {
          "duration": 0.18541666666665435,
          "durationTicks": 178,
          "midi": 53,
          "name": "F3",
          "ticks": 65544,
          "time": 68.275,
          "velocity": 0.3464566929133858
        },
        {
          "duration": 2.0218749999999943,
          "durationTicks": 1941,
          "midi": 29,
          "name": "F1",
          "ticks": 65678,
          "time": 68.41458333333334,
          "velocity": 0.6299212598425197
        },
        {
          "duration": 0.40625,
          "durationTicks": 390,
          "midi": 67,
          "name": "G4",
          "ticks": 65723,
          "time": 68.46145833333334,
          "velocity": 0.4094488188976378
        },
        {
          "duration": 0.16249999999999432,
          "durationTicks": 156,
          "midi": 60,
          "name": "C4",
          "ticks": 65723,
          "time": 68.46145833333334,
          "velocity": 0.4015748031496063
        },
        {
          "duration": 0.37187499999998863,
          "durationTicks": 357,
          "midi": 53,
          "name": "F3",
          "ticks": 65723,
          "time": 68.46145833333334,
          "velocity": 0.3700787401574803
        },
        {
          "duration": 0.9052083333333201,
          "durationTicks": 869,
          "midi": 48,
          "name": "C3",
          "ticks": 65723,
          "time": 68.46145833333334,
          "velocity": 0.3464566929133858
        },
        {
          "duration": 0.92916666666666,
          "durationTicks": 892,
          "midi": 41,
          "name": "F2",
          "ticks": 65723,
          "time": 68.46145833333334,
          "velocity": 0.3937007874015748
        },
        {
          "duration": 0.18541666666666856,
          "durationTicks": 178,
          "midi": 65,
          "name": "F4",
          "ticks": 65901,
          "time": 68.646875,
          "velocity": 0.6692913385826772
        },
        {
          "duration": 0.20937499999999432,
          "durationTicks": 201,
          "midi": 84,
          "name": "C6",
          "ticks": 65979,
          "time": 68.728125,
          "velocity": 0.33070866141732286
        },
        {
          "duration": 0.17395833333333144,
          "durationTicks": 167,
          "midi": 65,
          "name": "F4",
          "ticks": 66079,
          "time": 68.83229166666666,
          "velocity": 0.6692913385826772
        },
        {
          "duration": 0.6729166666666657,
          "durationTicks": 646,
          "midi": 53,
          "name": "F3",
          "ticks": 66079,
          "time": 68.83229166666666,
          "velocity": 0.3700787401574803
        },
        {
          "duration": 0.17395833333333144,
          "durationTicks": 167,
          "midi": 69,
          "name": "A4",
          "ticks": 66091,
          "time": 68.84479166666667,
          "velocity": 0.5984251968503937
        },
        {
          "duration": 0.4177083333333371,
          "durationTicks": 401,
          "midi": 64,
          "name": "E4",
          "ticks": 66247,
          "time": 69.00729166666666,
          "velocity": 0.6062992125984252
        },
        {
          "duration": 0.33645833333333997,
          "durationTicks": 323,
          "midi": 69,
          "name": "A4",
          "ticks": 66258,
          "time": 69.01875,
          "velocity": 0.4881889763779528
        },
        {
          "duration": 0.27812499999998863,
          "durationTicks": 267,
          "midi": 60,
          "name": "C4",
          "ticks": 66325,
          "time": 69.08854166666667,
          "velocity": 0.3779527559055118
        },
        {
          "duration": 0.1510416666666714,
          "durationTicks": 145,
          "midi": 72,
          "name": "C5",
          "ticks": 66392,
          "time": 69.15833333333333,
          "velocity": 0.6456692913385826
        },
        {
          "duration": 0.6281249999999972,
          "durationTicks": 603,
          "midi": 72,
          "name": "C5",
          "ticks": 66536,
          "time": 69.30833333333334,
          "velocity": 0.6299212598425197
        },
        {
          "duration": 0.7093750000000085,
          "durationTicks": 681,
          "midi": 62,
          "name": "D4",
          "ticks": 66637,
          "time": 69.41354166666666,
          "velocity": 0.6535433070866141
        },
        {
          "duration": 0.26874999999999716,
          "durationTicks": 258,
          "midi": 84,
          "name": "C6",
          "ticks": 66748,
          "time": 69.52916666666667,
          "velocity": 0.30708661417322836
        },
        {
          "duration": 0.37187500000000284,
          "durationTicks": 357,
          "midi": 55,
          "name": "G3",
          "ticks": 66783,
          "time": 69.565625,
          "velocity": 0.4015748031496063
        },
        {
          "duration": 0.22083333333333144,
          "durationTicks": 212,
          "midi": 48,
          "name": "C3",
          "ticks": 67039,
          "time": 69.83229166666666,
          "velocity": 0.31496062992125984
        },
        {
          "duration": 0.27812500000000284,
          "durationTicks": 267,
          "midi": 72,
          "name": "C5",
          "ticks": 67140,
          "time": 69.9375,
          "velocity": 0.5669291338582677
        },
        {
          "duration": 0.92916666666666,
          "durationTicks": 892,
          "midi": 55,
          "name": "G3",
          "ticks": 67140,
          "time": 69.9375,
          "velocity": 0.41732283464566927
        },
        {
          "duration": 0.3604166666666657,
          "durationTicks": 346,
          "midi": 62,
          "name": "D4",
          "ticks": 67318,
          "time": 70.12291666666667,
          "velocity": 0.5984251968503937
        },
        {
          "duration": 0.42916666666666003,
          "durationTicks": 412,
          "midi": 72,
          "name": "C5",
          "ticks": 67407,
          "time": 70.215625,
          "velocity": 0.5905511811023622
        },
        {
          "duration": 0.13958333333333428,
          "durationTicks": 134,
          "midi": 67,
          "name": "G4",
          "ticks": 67496,
          "time": 70.30833333333334,
          "velocity": 0.4251968503937008
        },
        {
          "duration": 0.4177083333333371,
          "durationTicks": 401,
          "midi": 43,
          "name": "G2",
          "ticks": 67530,
          "time": 70.34375,
          "velocity": 0.36220472440944884
        },
        {
          "duration": 0.4177083333333229,
          "durationTicks": 401,
          "midi": 31,
          "name": "G1",
          "ticks": 67675,
          "time": 70.49479166666667,
          "velocity": 0.5354330708661418
        },
        {
          "duration": 0.33645833333333997,
          "durationTicks": 323,
          "midi": 64,
          "name": "E4",
          "ticks": 67697,
          "time": 70.51770833333333,
          "velocity": 0.5748031496062992
        },
        {
          "duration": 0.2906250000000057,
          "durationTicks": 279,
          "midi": 50,
          "name": "D3",
          "ticks": 67697,
          "time": 70.51770833333333,
          "velocity": 0.30708661417322836
        },
        {
          "duration": 0.2906250000000057,
          "durationTicks": 279,
          "midi": 72,
          "name": "C5",
          "ticks": 67819,
          "time": 70.64479166666666,
          "velocity": 0.6062992125984252
        },
        {
          "duration": 0.5572916666666572,
          "durationTicks": 535,
          "midi": 67,
          "name": "G4",
          "ticks": 67853,
          "time": 70.68020833333334,
          "velocity": 0.41732283464566927
        },
        {
          "duration": 2.5093750000000057,
          "durationTicks": 2409,
          "midi": 36,
          "name": "C2",
          "ticks": 68009,
          "time": 70.84270833333333,
          "velocity": 0.6377952755905512
        },
        {
          "duration": 0.19687500000000568,
          "durationTicks": 189,
          "midi": 64,
          "name": "E4",
          "ticks": 68031,
          "time": 70.865625,
          "velocity": 0.6614173228346457
        },
        {
          "duration": 0.9072916666666657,
          "durationTicks": 871,
          "midi": 55,
          "name": "G3",
          "ticks": 68031,
          "time": 70.865625,
          "velocity": 0.36220472440944884
        },
        {
          "duration": 0.38333333333333997,
          "durationTicks": 368,
          "midi": 48,
          "name": "C3",
          "ticks": 68031,
          "time": 70.865625,
          "velocity": 0.3779527559055118
        },
        {
          "duration": 0.32500000000000284,
          "durationTicks": 312,
          "midi": 60,
          "name": "C4",
          "ticks": 68076,
          "time": 70.9125,
          "velocity": 0.5590551181102362
        },
        {
          "duration": 1.0343749999999972,
          "durationTicks": 993,
          "midi": 76,
          "name": "E5",
          "ticks": 68098,
          "time": 70.93541666666667,
          "velocity": 0.4094488188976378
        },
        {
          "duration": 0.17395833333333144,
          "durationTicks": 167,
          "midi": 64,
          "name": "E4",
          "ticks": 68221,
          "time": 71.06354166666667,
          "velocity": 0.7480314960629921
        },
        {
          "duration": 0.18541666666666856,
          "durationTicks": 178,
          "midi": 67,
          "name": "G4",
          "ticks": 68388,
          "time": 71.2375,
          "velocity": 0.5433070866141733
        },
        {
          "duration": 0.5583333333333371,
          "durationTicks": 536,
          "midi": 64,
          "name": "E4",
          "ticks": 68388,
          "time": 71.2375,
          "velocity": 0.7401574803149606
        },
        {
          "duration": 0.93020833333334,
          "durationTicks": 893,
          "midi": 60,
          "name": "C4",
          "ticks": 68388,
          "time": 71.2375,
          "velocity": 0.5511811023622047
        },
        {
          "duration": 0.3499999999999943,
          "durationTicks": 336,
          "midi": 67,
          "name": "G4",
          "ticks": 68566,
          "time": 71.42291666666667,
          "velocity": 0.5669291338582677
        },
        {
          "duration": 0.453125,
          "durationTicks": 435,
          "midi": 79,
          "name": "G5",
          "ticks": 68902,
          "time": 71.77291666666666,
          "velocity": 0.31496062992125984
        },
        {
          "duration": 0.3947916666666771,
          "durationTicks": 379,
          "midi": 67,
          "name": "G4",
          "ticks": 68902,
          "time": 71.77291666666666,
          "velocity": 0.4881889763779528
        },
        {
          "duration": 0.5104166666666714,
          "durationTicks": 490,
          "midi": 55,
          "name": "G3",
          "ticks": 68902,
          "time": 71.77291666666666,
          "velocity": 0.4881889763779528
        },
        {
          "duration": 0.17395833333333144,
          "durationTicks": 167,
          "midi": 64,
          "name": "E4",
          "ticks": 68924,
          "time": 71.79583333333333,
          "velocity": 0.7086614173228346
        },
        {
          "duration": 0.3479166666666629,
          "durationTicks": 334,
          "midi": 76,
          "name": "E5",
          "ticks": 69091,
          "time": 71.96979166666667,
          "velocity": 0.4330708661417323
        },
        {
          "duration": 0.2666666666666657,
          "durationTicks": 256,
          "midi": 64,
          "name": "E4",
          "ticks": 69091,
          "time": 71.96979166666667,
          "velocity": 0.7244094488188977
        },
        {
          "duration": 0.22083333333333144,
          "durationTicks": 212,
          "midi": 67,
          "name": "G4",
          "ticks": 69281,
          "time": 72.16770833333334,
          "velocity": 0.4251968503937008
        },
        {
          "duration": 0.17395833333333144,
          "durationTicks": 167,
          "midi": 60,
          "name": "C4",
          "ticks": 69281,
          "time": 72.16770833333334,
          "velocity": 0.5275590551181102
        },
        {
          "duration": 1.2541666666666629,
          "durationTicks": 1204,
          "midi": 48,
          "name": "C3",
          "ticks": 69303,
          "time": 72.190625,
          "velocity": 0.44881889763779526
        },
        {
          "duration": 0.23229166666666856,
          "durationTicks": 223,
          "midi": 64,
          "name": "E4",
          "ticks": 69348,
          "time": 72.2375,
          "velocity": 0.7086614173228346
        },
        {
          "duration": 0.5572916666666714,
          "durationTicks": 535,
          "midi": 84,
          "name": "C6",
          "ticks": 69437,
          "time": 72.33020833333333,
          "velocity": 0.3228346456692913
        },
        {
          "duration": 0.5229166666666742,
          "durationTicks": 502,
          "midi": 79,
          "name": "G5",
          "ticks": 69470,
          "time": 72.36458333333333,
          "velocity": 0.44881889763779526
        },
        {
          "duration": 0.6854166666666686,
          "durationTicks": 658,
          "midi": 72,
          "name": "C5",
          "ticks": 69492,
          "time": 72.3875,
          "velocity": 0.6299212598425197
        },
        {
          "duration": 0.13958333333333428,
          "durationTicks": 134,
          "midi": 67,
          "name": "G4",
          "ticks": 69492,
          "time": 72.3875,
          "velocity": 0.6692913385826772
        },
        {
          "duration": 0.23229166666666856,
          "durationTicks": 223,
          "midi": 64,
          "name": "E4",
          "ticks": 69570,
          "time": 72.46875,
          "velocity": 0.6614173228346457
        },
        {
          "duration": 0.37187500000000284,
          "durationTicks": 357,
          "midi": 67,
          "name": "G4",
          "ticks": 69626,
          "time": 72.52708333333334,
          "velocity": 0.6141732283464567
        },
        {
          "duration": 0.37187500000000284,
          "durationTicks": 357,
          "midi": 60,
          "name": "C4",
          "ticks": 69626,
          "time": 72.52708333333334,
          "velocity": 0.3464566929133858
        },
        {
          "duration": 0.33645833333332575,
          "durationTicks": 323,
          "midi": 55,
          "name": "G3",
          "ticks": 69626,
          "time": 72.52708333333334,
          "velocity": 0.4330708661417323
        },
        {
          "duration": 0.20937499999999432,
          "durationTicks": 201,
          "midi": 64,
          "name": "E4",
          "ticks": 69793,
          "time": 72.70104166666667,
          "velocity": 0.6850393700787402
        },
        {
          "duration": 0.18541666666665435,
          "durationTicks": 178,
          "midi": 79,
          "name": "G5",
          "ticks": 69983,
          "time": 72.89895833333334,
          "velocity": 0.4094488188976378
        },
        {
          "duration": 0.2666666666666657,
          "durationTicks": 256,
          "midi": 67,
          "name": "G4",
          "ticks": 69983,
          "time": 72.89895833333334,
          "velocity": 0.6456692913385826
        },
        {
          "duration": 0.66354166666666,
          "durationTicks": 637,
          "midi": 60,
          "name": "C4",
          "ticks": 69983,
          "time": 72.89895833333334,
          "velocity": 0.33858267716535434
        },
        {
          "duration": 0.1510416666666572,
          "durationTicks": 145,
          "midi": 55,
          "name": "G3",
          "ticks": 69983,
          "time": 72.89895833333334,
          "velocity": 0.36220472440944884
        },
        {
          "duration": 0.17395833333333144,
          "durationTicks": 167,
          "midi": 64,
          "name": "E4",
          "ticks": 69994,
          "time": 72.91041666666666,
          "velocity": 0.7086614173228346
        },
        {
          "duration": 0.8489583333333286,
          "durationTicks": 815,
          "midi": 72,
          "name": "C5",
          "ticks": 70150,
          "time": 73.07291666666667,
          "velocity": 0.5748031496062992
        },
        {
          "duration": 0.37187500000000284,
          "durationTicks": 357,
          "midi": 79,
          "name": "G5",
          "ticks": 70161,
          "time": 73.084375,
          "velocity": 0.47244094488188976
        },
        {
          "duration": 0.38333333333333997,
          "durationTicks": 368,
          "midi": 64,
          "name": "E4",
          "ticks": 70161,
          "time": 73.084375,
          "velocity": 0.6929133858267716
        },
        {
          "duration": 0.4427083333333286,
          "durationTicks": 425,
          "midi": 84,
          "name": "C6",
          "ticks": 70228,
          "time": 73.15416666666667,
          "velocity": 0.36220472440944884
        },
        {
          "duration": 0.2906249999999915,
          "durationTicks": 279,
          "midi": 67,
          "name": "G4",
          "ticks": 70239,
          "time": 73.165625,
          "velocity": 0.6377952755905512
        },
        {
          "duration": 0.37291666666666856,
          "durationTicks": 358,
          "midi": 79,
          "name": "G5",
          "ticks": 70518,
          "time": 73.45625,
          "velocity": 0.44881889763779526
        },
        {
          "duration": 0.3843750000000057,
          "durationTicks": 369,
          "midi": 67,
          "name": "G4",
          "ticks": 70518,
          "time": 73.45625,
          "velocity": 0.5275590551181102
        },
        {
          "duration": 0.3375000000000057,
          "durationTicks": 324,
          "midi": 48,
          "name": "C3",
          "ticks": 70518,
          "time": 73.45625,
          "velocity": 0.49606299212598426
        },
        {
          "duration": 0.4312500000000057,
          "durationTicks": 414,
          "midi": 64,
          "name": "E4",
          "ticks": 70529,
          "time": 73.46770833333333,
          "velocity": 0.6456692913385826
        },
        {
          "duration": 0.4885416666666629,
          "durationTicks": 469,
          "midi": 31,
          "name": "G1",
          "ticks": 70540,
          "time": 73.47916666666667,
          "velocity": 0.5905511811023622
        },
        {
          "duration": 2.776041666666657,
          "durationTicks": 2665,
          "midi": 50,
          "name": "D3",
          "ticks": 70853,
          "time": 73.80520833333334,
          "velocity": 0.4409448818897638
        },
        {
          "duration": 1.4739583333333428,
          "durationTicks": 1415,
          "midi": 83,
          "name": "B5",
          "ticks": 70865,
          "time": 73.81770833333333,
          "velocity": 0.47244094488188976
        },
        {
          "duration": 1.254166666666677,
          "durationTicks": 1204,
          "midi": 69,
          "name": "A4",
          "ticks": 70865,
          "time": 73.81770833333333,
          "velocity": 0.33858267716535434
        },
        {
          "duration": 0.37187500000000284,
          "durationTicks": 357,
          "midi": 57,
          "name": "A3",
          "ticks": 70865,
          "time": 73.81770833333333,
          "velocity": 0.36220472440944884
        },
        {
          "duration": 2.880208333333343,
          "durationTicks": 2765,
          "midi": 38,
          "name": "D2",
          "ticks": 70865,
          "time": 73.81770833333333,
          "velocity": 0.6456692913385826
        },
        {
          "duration": 1.95208333333332,
          "durationTicks": 1874,
          "midi": 77,
          "name": "F5",
          "ticks": 70943,
          "time": 73.89895833333334,
          "velocity": 0.5275590551181102
        },
        {
          "duration": 0.37187500000000284,
          "durationTicks": 357,
          "midi": 65,
          "name": "F4",
          "ticks": 70954,
          "time": 73.91041666666666,
          "velocity": 0.5196850393700787
        },
        {
          "duration": 1.0802083333333314,
          "durationTicks": 1037,
          "midi": 72,
          "name": "C5",
          "ticks": 70965,
          "time": 73.921875,
          "velocity": 0.5826771653543307
        },
        {
          "duration": 1.0218749999999943,
          "durationTicks": 981,
          "midi": 65,
          "name": "F4",
          "ticks": 71310,
          "time": 74.28125,
          "velocity": 0.5433070866141733
        },
        {
          "duration": 0.20937499999999432,
          "durationTicks": 201,
          "midi": 62,
          "name": "D4",
          "ticks": 71589,
          "time": 74.571875,
          "velocity": 0.36220472440944884
        },
        {
          "duration": 0.19687500000000568,
          "durationTicks": 189,
          "midi": 67,
          "name": "G4",
          "ticks": 71745,
          "time": 74.734375,
          "velocity": 0.44881889763779526
        },
        {
          "duration": 0.38333333333332575,
          "durationTicks": 368,
          "midi": 60,
          "name": "C4",
          "ticks": 71923,
          "time": 74.91979166666667,
          "velocity": 0.5196850393700787
        },
        {
          "duration": 0.2666666666666657,
          "durationTicks": 256,
          "midi": 67,
          "name": "G4",
          "ticks": 71935,
          "time": 74.93229166666667,
          "velocity": 0.36220472440944884
        },
        {
          "duration": 0.17395833333333144,
          "durationTicks": 167,
          "midi": 62,
          "name": "D4",
          "ticks": 72113,
          "time": 75.11770833333334,
          "velocity": 0.4566929133858268
        },
        {
          "duration": 0.8718750000000028,
          "durationTicks": 837,
          "midi": 72,
          "name": "C5",
          "ticks": 72169,
          "time": 75.17604166666666,
          "velocity": 0.4881889763779528
        },
        {
          "duration": 0.19687499999999147,
          "durationTicks": 189,
          "midi": 74,
          "name": "D5",
          "ticks": 72280,
          "time": 75.29166666666667,
          "velocity": 0.4094488188976378
        },
        {
          "duration": 0.6510416666666572,
          "durationTicks": 625,
          "midi": 69,
          "name": "A4",
          "ticks": 72280,
          "time": 75.29166666666667,
          "velocity": 0.4645669291338583
        },
        {
          "duration": 0.37291666666666856,
          "durationTicks": 358,
          "midi": 62,
          "name": "D4",
          "ticks": 72280,
          "time": 75.29166666666667,
          "velocity": 0.5118110236220472
        },
        {
          "duration": 1.4645833333333371,
          "durationTicks": 1406,
          "midi": 65,
          "name": "F4",
          "ticks": 72291,
          "time": 75.303125,
          "velocity": 0.5433070866141733
        },
        {
          "duration": 0.17500000000001137,
          "durationTicks": 168,
          "midi": 74,
          "name": "D5",
          "ticks": 72470,
          "time": 75.48958333333333,
          "velocity": 0.5511811023622047
        },
        {
          "duration": 0.2552083333333286,
          "durationTicks": 245,
          "midi": 86,
          "name": "D6",
          "ticks": 72616,
          "time": 75.64166666666667,
          "velocity": 0.3228346456692913
        },
        {
          "duration": 0.18541666666665435,
          "durationTicks": 178,
          "midi": 74,
          "name": "D5",
          "ticks": 72638,
          "time": 75.66458333333334,
          "velocity": 0.5590551181102362
        },
        {
          "duration": 0.17395833333333144,
          "durationTicks": 167,
          "midi": 62,
          "name": "D4",
          "ticks": 72638,
          "time": 75.66458333333334,
          "velocity": 0.4881889763779528
        },
        {
          "duration": 0.7427083333333258,
          "durationTicks": 713,
          "midi": 62,
          "name": "D4",
          "ticks": 72805,
          "time": 75.83854166666667,
          "velocity": 0.44881889763779526
        },
        {
          "duration": 0.18541666666666856,
          "durationTicks": 178,
          "midi": 77,
          "name": "F5",
          "ticks": 72816,
          "time": 75.85,
          "velocity": 0.49606299212598426
        },
        {
          "duration": 0.859375,
          "durationTicks": 825,
          "midi": 74,
          "name": "D5",
          "ticks": 72816,
          "time": 75.85,
          "velocity": 0.4015748031496063
        },
        {
          "duration": 0.6968749999999915,
          "durationTicks": 669,
          "midi": 67,
          "name": "G4",
          "ticks": 72984,
          "time": 76.025,
          "velocity": 0.6220472440944882
        },
        {
          "duration": 0.3604166666666657,
          "durationTicks": 346,
          "midi": 71,
          "name": "B4",
          "ticks": 73017,
          "time": 76.059375,
          "velocity": 0.5826771653543307
        },
        {
          "duration": 0.5687500000000085,
          "durationTicks": 546,
          "midi": 79,
          "name": "G5",
          "ticks": 73039,
          "time": 76.08229166666666,
          "velocity": 0.44881889763779526
        },
        {
          "duration": 0.1510416666666714,
          "durationTicks": 145,
          "midi": 31,
          "name": "G1",
          "ticks": 73162,
          "time": 76.21041666666666,
          "velocity": 0.41732283464566927
        },
        {
          "duration": 0.7197916666666657,
          "durationTicks": 691,
          "midi": 31,
          "name": "G1",
          "ticks": 73318,
          "time": 76.37291666666667,
          "velocity": 0.5590551181102362
        },
        {
          "duration": 0.24375000000000568,
          "durationTicks": 234,
          "midi": 48,
          "name": "C3",
          "ticks": 73340,
          "time": 76.39583333333333,
          "velocity": 0.3937007874015748
        },
        {
          "duration": 0.3947916666666629,
          "durationTicks": 379,
          "midi": 72,
          "name": "C5",
          "ticks": 73362,
          "time": 76.41875,
          "velocity": 0.47244094488188976
        },
        {
          "duration": 0.2552083333333286,
          "durationTicks": 245,
          "midi": 43,
          "name": "G2",
          "ticks": 73374,
          "time": 76.43125,
          "velocity": 0.4251968503937008
        },
        {
          "duration": 0.33645833333333997,
          "durationTicks": 323,
          "midi": 77,
          "name": "F5",
          "ticks": 73396,
          "time": 76.45416666666667,
          "velocity": 0.4094488188976378
        },
        {
          "duration": 0.18541666666666856,
          "durationTicks": 178,
          "midi": 62,
          "name": "D4",
          "ticks": 73518,
          "time": 76.58125,
          "velocity": 0.30708661417322836
        },
        {
          "duration": 0.17395833333333144,
          "durationTicks": 167,
          "midi": 50,
          "name": "D3",
          "ticks": 73518,
          "time": 76.58125,
          "velocity": 0.4409448818897638
        },
        {
          "duration": 0.26666666666667993,
          "durationTicks": 256,
          "midi": 55,
          "name": "G3",
          "ticks": 73597,
          "time": 76.66354166666666,
          "velocity": 0.5039370078740157
        },
        {
          "duration": 0.7093750000000085,
          "durationTicks": 681,
          "midi": 81,
          "name": "A5",
          "ticks": 73697,
          "time": 76.76770833333333,
          "velocity": 0.3937007874015748
        },
        {
          "duration": 0.20937500000000853,
          "durationTicks": 201,
          "midi": 64,
          "name": "E4",
          "ticks": 73697,
          "time": 76.76770833333333,
          "velocity": 0.44881889763779526
        },
        {
          "duration": 0.453125,
          "durationTicks": 435,
          "midi": 62,
          "name": "D4",
          "ticks": 73697,
          "time": 76.76770833333333,
          "velocity": 0.3700787401574803
        },
        {
          "duration": 0.17395833333333144,
          "durationTicks": 167,
          "midi": 43,
          "name": "G2",
          "ticks": 73697,
          "time": 76.76770833333333,
          "velocity": 0.33070866141732286
        },
        {
          "duration": 1.464583333333323,
          "durationTicks": 1406,
          "midi": 76,
          "name": "E5",
          "ticks": 73719,
          "time": 76.790625,
          "velocity": 0.48031496062992124
        },
        {
          "duration": 1.6031249999999915,
          "durationTicks": 1539,
          "midi": 40,
          "name": "E2",
          "ticks": 73719,
          "time": 76.790625,
          "velocity": 0.6220472440944882
        },
        {
          "duration": 1.9979166666666686,
          "durationTicks": 1918,
          "midi": 52,
          "name": "E3",
          "ticks": 73730,
          "time": 76.80208333333333,
          "velocity": 0.5039370078740157
        },
        {
          "duration": 0.7562499999999943,
          "durationTicks": 726,
          "midi": 59,
          "name": "B3",
          "ticks": 73842,
          "time": 76.91875,
          "velocity": 0.3858267716535433
        },
        {
          "duration": 0.38333333333333997,
          "durationTicks": 368,
          "midi": 55,
          "name": "G3",
          "ticks": 73864,
          "time": 76.94166666666666,
          "velocity": 0.6614173228346457
        },
        {
          "duration": 0.16250000000000853,
          "durationTicks": 156,
          "midi": 64,
          "name": "E4",
          "ticks": 73897,
          "time": 76.97604166666666,
          "velocity": 0.5905511811023622
        },
        {
          "duration": 0.33645833333333997,
          "durationTicks": 323,
          "midi": 71,
          "name": "B4",
          "ticks": 73897,
          "time": 76.97604166666666,
          "velocity": 0.4251968503937008
        },
        {
          "duration": 0.3135416666666657,
          "durationTicks": 301,
          "midi": 74,
          "name": "D5",
          "ticks": 73920,
          "time": 77,
          "velocity": 0.3858267716535433
        },
        {
          "duration": 0.37291666666666856,
          "durationTicks": 358,
          "midi": 64,
          "name": "E4",
          "ticks": 74053,
          "time": 77.13854166666667,
          "velocity": 0.5669291338582677
        },
        {
          "duration": 0.36145833333333144,
          "durationTicks": 347,
          "midi": 71,
          "name": "B4",
          "ticks": 74232,
          "time": 77.325,
          "velocity": 0.48031496062992124
        },
        {
          "duration": 0.1875,
          "durationTicks": 180,
          "midi": 67,
          "name": "G4",
          "ticks": 74232,
          "time": 77.325,
          "velocity": 0.3779527559055118
        },
        {
          "duration": 0.22187499999999716,
          "durationTicks": 213,
          "midi": 55,
          "name": "G3",
          "ticks": 74232,
          "time": 77.325,
          "velocity": 0.6456692913385826
        },
        {
          "duration": 0.7541666666666771,
          "durationTicks": 724,
          "midi": 74,
          "name": "D5",
          "ticks": 74389,
          "time": 77.48854166666666,
          "velocity": 0.3937007874015748
        },
        {
          "duration": 0.17395833333333144,
          "durationTicks": 167,
          "midi": 67,
          "name": "G4",
          "ticks": 74411,
          "time": 77.51145833333334,
          "velocity": 0.4251968503937008
        },
        {
          "duration": 0.2666666666666657,
          "durationTicks": 256,
          "midi": 64,
          "name": "E4",
          "ticks": 74411,
          "time": 77.51145833333334,
          "velocity": 0.5905511811023622
        },
        {
          "duration": 0.13958333333333428,
          "durationTicks": 134,
          "midi": 55,
          "name": "G3",
          "ticks": 74445,
          "time": 77.546875,
          "velocity": 0.7637795275590551
        },
        {
          "duration": 0.18541666666666856,
          "durationTicks": 178,
          "midi": 71,
          "name": "B4",
          "ticks": 74579,
          "time": 77.68645833333333,
          "velocity": 0.47244094488188976
        },
        {
          "duration": 0.3135416666666657,
          "durationTicks": 301,
          "midi": 67,
          "name": "G4",
          "ticks": 74579,
          "time": 77.68645833333333,
          "velocity": 0.4566929133858268
        },
        {
          "duration": 0.17395833333333144,
          "durationTicks": 167,
          "midi": 59,
          "name": "B3",
          "ticks": 74579,
          "time": 77.68645833333333,
          "velocity": 0.47244094488188976
        },
        {
          "duration": 0.7427083333333258,
          "durationTicks": 713,
          "midi": 55,
          "name": "G3",
          "ticks": 74579,
          "time": 77.68645833333333,
          "velocity": 0.7165354330708661
        },
        {
          "duration": 0.4645833333333371,
          "durationTicks": 446,
          "midi": 64,
          "name": "E4",
          "ticks": 74668,
          "time": 77.77916666666667,
          "velocity": 0.5511811023622047
        },
        {
          "duration": 0.18541666666666856,
          "durationTicks": 178,
          "midi": 71,
          "name": "B4",
          "ticks": 74757,
          "time": 77.871875,
          "velocity": 0.5984251968503937
        },
        {
          "duration": 0.18541666666666856,
          "durationTicks": 178,
          "midi": 59,
          "name": "B3",
          "ticks": 74757,
          "time": 77.871875,
          "velocity": 0.4094488188976378
        },
        {
          "duration": 0.3604166666666657,
          "durationTicks": 346,
          "midi": 71,
          "name": "B4",
          "ticks": 74935,
          "time": 78.05729166666667,
          "velocity": 0.5039370078740157
        },
        {
          "duration": 0.3604166666666657,
          "durationTicks": 346,
          "midi": 59,
          "name": "B3",
          "ticks": 74935,
          "time": 78.05729166666667,
          "velocity": 0.3700787401574803
        },
        {
          "duration": 0.38333333333332575,
          "durationTicks": 368,
          "midi": 64,
          "name": "E4",
          "ticks": 75114,
          "time": 78.24375,
          "velocity": 0.5748031496062992
        },
        {
          "duration": 0.20937500000000853,
          "durationTicks": 201,
          "midi": 76,
          "name": "E5",
          "ticks": 75125,
          "time": 78.25520833333333,
          "velocity": 0.48031496062992124
        },
        {
          "duration": 1.6270833333333314,
          "durationTicks": 1562,
          "midi": 35,
          "name": "B1",
          "ticks": 75136,
          "time": 78.26666666666667,
          "velocity": 0.5196850393700787
        },
        {
          "duration": 0.5687499999999943,
          "durationTicks": 546,
          "midi": 71,
          "name": "B4",
          "ticks": 75281,
          "time": 78.41770833333334,
          "velocity": 0.4645669291338583
        },
        {
          "duration": 0.48749999999999716,
          "durationTicks": 468,
          "midi": 59,
          "name": "B3",
          "ticks": 75281,
          "time": 78.41770833333334,
          "velocity": 0.3700787401574803
        },
        {
          "duration": 0.2552083333333428,
          "durationTicks": 245,
          "midi": 67,
          "name": "G4",
          "ticks": 75292,
          "time": 78.42916666666666,
          "velocity": 0.4330708661417323
        },
        {
          "duration": 0.37187500000000284,
          "durationTicks": 357,
          "midi": 55,
          "name": "G3",
          "ticks": 75292,
          "time": 78.42916666666666,
          "velocity": 0.6850393700787402
        },
        {
          "duration": 0.33645833333332575,
          "durationTicks": 323,
          "midi": 76,
          "name": "E5",
          "ticks": 75325,
          "time": 78.46354166666667,
          "velocity": 0.5354330708661418
        },
        {
          "duration": 0.17395833333333144,
          "durationTicks": 167,
          "midi": 64,
          "name": "E4",
          "ticks": 75481,
          "time": 78.62604166666667,
          "velocity": 0.6220472440944882
        },
        {
          "duration": 0.18541666666666856,
          "durationTicks": 178,
          "midi": 76,
          "name": "E5",
          "ticks": 75649,
          "time": 78.80104166666666,
          "velocity": 0.4881889763779528
        },
        {
          "duration": 0.5572916666666714,
          "durationTicks": 535,
          "midi": 64,
          "name": "E4",
          "ticks": 75649,
          "time": 78.80104166666666,
          "velocity": 0.5826771653543307
        },
        {
          "duration": 0.3947916666666771,
          "durationTicks": 379,
          "midi": 55,
          "name": "G3",
          "ticks": 75649,
          "time": 78.80104166666666,
          "velocity": 0.7401574803149606
        },
        {
          "duration": 0.5572916666666714,
          "durationTicks": 535,
          "midi": 52,
          "name": "E3",
          "ticks": 75660,
          "time": 78.8125,
          "velocity": 0.6220472440944882
        },
        {
          "duration": 0.4177083333333371,
          "durationTicks": 401,
          "midi": 59,
          "name": "B3",
          "ticks": 75749,
          "time": 78.90520833333333,
          "velocity": 0.4409448818897638
        },
        {
          "duration": 0.2906250000000057,
          "durationTicks": 279,
          "midi": 76,
          "name": "E5",
          "ticks": 75827,
          "time": 78.98645833333333,
          "velocity": 0.5669291338582677
        },
        {
          "duration": 0.453125,
          "durationTicks": 435,
          "midi": 71,
          "name": "B4",
          "ticks": 75827,
          "time": 78.98645833333333,
          "velocity": 0.4330708661417323
        },
        {
          "duration": 0.17395833333334565,
          "durationTicks": 167,
          "midi": 55,
          "name": "G3",
          "ticks": 76027,
          "time": 79.19479166666666,
          "velocity": 0.6771653543307087
        },
        {
          "duration": 1.9052083333333343,
          "durationTicks": 1829,
          "midi": 76,
          "name": "E5",
          "ticks": 76105,
          "time": 79.27604166666667,
          "velocity": 0.4566929133858268
        },
        {
          "duration": 0.3499999999999943,
          "durationTicks": 336,
          "midi": 64,
          "name": "E4",
          "ticks": 76184,
          "time": 79.35833333333333,
          "velocity": 0.5826771653543307
        },
        {
          "duration": 0.8947916666666629,
          "durationTicks": 859,
          "midi": 67,
          "name": "G4",
          "ticks": 76195,
          "time": 79.36979166666667,
          "velocity": 0.4566929133858268
        },
        {
          "duration": 0.3499999999999943,
          "durationTicks": 336,
          "midi": 62,
          "name": "D4",
          "ticks": 76195,
          "time": 79.36979166666667,
          "velocity": 0.5905511811023622
        },
        {
          "duration": 0.9072916666666657,
          "durationTicks": 871,
          "midi": 55,
          "name": "G3",
          "ticks": 76195,
          "time": 79.36979166666667,
          "velocity": 0.5354330708661418
        },
        {
          "duration": 0.2802083333333343,
          "durationTicks": 269,
          "midi": 52,
          "name": "E3",
          "ticks": 76195,
          "time": 79.36979166666667,
          "velocity": 0.5118110236220472
        },
        {
          "duration": 0.32604166666666856,
          "durationTicks": 313,
          "midi": 74,
          "name": "D5",
          "ticks": 76206,
          "time": 79.38125,
          "velocity": 0.36220472440944884
        },
        {
          "duration": 0.2552083333333286,
          "durationTicks": 245,
          "midi": 43,
          "name": "G2",
          "ticks": 76486,
          "time": 79.67291666666667,
          "velocity": 0.3543307086614173
        },
        {
          "duration": 0.27812500000000284,
          "durationTicks": 267,
          "midi": 74,
          "name": "D5",
          "ticks": 76519,
          "time": 79.70729166666666,
          "velocity": 0.44881889763779526
        },
        {
          "duration": 0.40625,
          "durationTicks": 390,
          "midi": 65,
          "name": "F4",
          "ticks": 76519,
          "time": 79.70729166666666,
          "velocity": 0.30708661417322836
        },
        {
          "duration": 0.38333333333333997,
          "durationTicks": 368,
          "midi": 62,
          "name": "D4",
          "ticks": 76530,
          "time": 79.71875,
          "velocity": 0.5669291338582677
        },
        {
          "duration": 0.20937499999999432,
          "durationTicks": 201,
          "midi": 60,
          "name": "C4",
          "ticks": 76530,
          "time": 79.71875,
          "velocity": 0.3700787401574803
        },
        {
          "duration": 1.0802083333333314,
          "durationTicks": 1037,
          "midi": 50,
          "name": "D3",
          "ticks": 76564,
          "time": 79.75416666666666,
          "velocity": 0.41732283464566927
        },
        {
          "duration": 0.38333333333333997,
          "durationTicks": 368,
          "midi": 74,
          "name": "D5",
          "ticks": 76787,
          "time": 79.98645833333333,
          "velocity": 0.5118110236220472
        },
        {
          "duration": 0.8125,
          "durationTicks": 780,
          "midi": 36,
          "name": "C2",
          "ticks": 76865,
          "time": 80.06770833333333,
          "velocity": 0.5354330708661418
        },
        {
          "duration": 0.74270833333334,
          "durationTicks": 713,
          "midi": 43,
          "name": "G2",
          "ticks": 76865,
          "time": 80.06770833333333,
          "velocity": 0.36220472440944884
        },
        {
          "duration": 0.2552083333333286,
          "durationTicks": 245,
          "midi": 53,
          "name": "F3",
          "ticks": 76876,
          "time": 80.07916666666667,
          "velocity": 0.3858267716535433
        },
        {
          "duration": 0.37187499999998863,
          "durationTicks": 357,
          "midi": 62,
          "name": "D4",
          "ticks": 76898,
          "time": 80.10208333333334,
          "velocity": 0.5905511811023622
        },
        {
          "duration": 0.3135416666666657,
          "durationTicks": 301,
          "midi": 48,
          "name": "C3",
          "ticks": 76932,
          "time": 80.1375,
          "velocity": 0.2677165354330709
        },
        {
          "duration": 0.2666666666666657,
          "durationTicks": 256,
          "midi": 64,
          "name": "E4",
          "ticks": 76998,
          "time": 80.20625,
          "velocity": 0.33070866141732286
        },
        {
          "duration": 0.38333333333332575,
          "durationTicks": 368,
          "midi": 67,
          "name": "G4",
          "ticks": 77054,
          "time": 80.26458333333333,
          "velocity": 0.49606299212598426
        },
        {
          "duration": 0.2552083333333286,
          "durationTicks": 245,
          "midi": 57,
          "name": "A3",
          "ticks": 77065,
          "time": 80.27604166666667,
          "velocity": 0.47244094488188976
        },
        {
          "duration": 0.5458333333333343,
          "durationTicks": 524,
          "midi": 55,
          "name": "G3",
          "ticks": 77065,
          "time": 80.27604166666667,
          "velocity": 0.4094488188976378
        },
        {
          "duration": 0.27812499999998863,
          "durationTicks": 267,
          "midi": 74,
          "name": "D5",
          "ticks": 77154,
          "time": 80.36875,
          "velocity": 0.4566929133858268
        },
        {
          "duration": 0.17395833333333144,
          "durationTicks": 167,
          "midi": 72,
          "name": "C5",
          "ticks": 77244,
          "time": 80.4625,
          "velocity": 0.3228346456692913
        },
        {
          "duration": 0.4416666666666629,
          "durationTicks": 424,
          "midi": 48,
          "name": "C3",
          "ticks": 77244,
          "time": 80.4625,
          "velocity": 0.3779527559055118
        },
        {
          "duration": 0.17395833333333144,
          "durationTicks": 167,
          "midi": 62,
          "name": "D4",
          "ticks": 77255,
          "time": 80.47395833333333,
          "velocity": 0.5196850393700787
        },
        {
          "duration": 1.859375,
          "durationTicks": 1785,
          "midi": 31,
          "name": "G1",
          "ticks": 77322,
          "time": 80.54375,
          "velocity": 0.6062992125984252
        },
        {
          "duration": 0.5572916666666572,
          "durationTicks": 535,
          "midi": 72,
          "name": "C5",
          "ticks": 77411,
          "time": 80.63645833333334,
          "velocity": 0.44881889763779526
        },
        {
          "duration": 0.36041666666667993,
          "durationTicks": 346,
          "midi": 74,
          "name": "D5",
          "ticks": 77422,
          "time": 80.64791666666666,
          "velocity": 0.44881889763779526
        },
        {
          "duration": 0.74270833333334,
          "durationTicks": 713,
          "midi": 67,
          "name": "G4",
          "ticks": 77422,
          "time": 80.64791666666666,
          "velocity": 0.5118110236220472
        },
        {
          "duration": 0.5572916666666714,
          "durationTicks": 535,
          "midi": 62,
          "name": "D4",
          "ticks": 77422,
          "time": 80.64791666666666,
          "velocity": 0.41732283464566927
        },
        {
          "duration": 0.38333333333332575,
          "durationTicks": 368,
          "midi": 69,
          "name": "A4",
          "ticks": 77589,
          "time": 80.821875,
          "velocity": 0.3700787401574803
        },
        {
          "duration": 0.13958333333333428,
          "durationTicks": 134,
          "midi": 43,
          "name": "G2",
          "ticks": 77589,
          "time": 80.821875,
          "velocity": 0.3937007874015748
        },
        {
          "duration": 0.3479166666666629,
          "durationTicks": 334,
          "midi": 50,
          "name": "D3",
          "ticks": 77611,
          "time": 80.84479166666667,
          "velocity": 0.49606299212598426
        },
        {
          "duration": 0.19687500000000568,
          "durationTicks": 189,
          "midi": 74,
          "name": "D5",
          "ticks": 77767,
          "time": 81.00729166666666,
          "velocity": 0.36220472440944884
        },
        {
          "duration": 0.18541666666666856,
          "durationTicks": 178,
          "midi": 65,
          "name": "F4",
          "ticks": 77767,
          "time": 81.00729166666666,
          "velocity": 0.3779527559055118
        },
        {
          "duration": 0.6750000000000114,
          "durationTicks": 648,
          "midi": 71,
          "name": "B4",
          "ticks": 77946,
          "time": 81.19375,
          "velocity": 0.47244094488188976
        },
        {
          "duration": 0.4072916666666657,
          "durationTicks": 391,
          "midi": 65,
          "name": "F4",
          "ticks": 77946,
          "time": 81.19375,
          "velocity": 0.4251968503937008
        },
        {
          "duration": 1.4760416666666742,
          "durationTicks": 1417,
          "midi": 77,
          "name": "F5",
          "ticks": 77957,
          "time": 81.20520833333333,
          "velocity": 0.4645669291338583
        },
        {
          "duration": 0.18541666666666856,
          "durationTicks": 178,
          "midi": 74,
          "name": "D5",
          "ticks": 77957,
          "time": 81.20520833333333,
          "velocity": 0.4251968503937008
        },
        {
          "duration": 0.18541666666666856,
          "durationTicks": 178,
          "midi": 62,
          "name": "D4",
          "ticks": 77957,
          "time": 81.20520833333333,
          "velocity": 0.5433070866141733
        },
        {
          "duration": 1.0812499999999972,
          "durationTicks": 1038,
          "midi": 43,
          "name": "G2",
          "ticks": 77957,
          "time": 81.20520833333333,
          "velocity": 0.5039370078740157
        },
        {
          "duration": 0.2916666666666714,
          "durationTicks": 280,
          "midi": 60,
          "name": "C4",
          "ticks": 78001,
          "time": 81.25104166666667,
          "velocity": 0.3779527559055118
        },
        {
          "duration": 0.47708333333333997,
          "durationTicks": 458,
          "midi": 74,
          "name": "D5",
          "ticks": 78135,
          "time": 81.390625,
          "velocity": 0.4645669291338583
        },
        {
          "duration": 0.17499999999999716,
          "durationTicks": 168,
          "midi": 67,
          "name": "G4",
          "ticks": 78135,
          "time": 81.390625,
          "velocity": 0.5118110236220472
        },
        {
          "duration": 0.17499999999999716,
          "durationTicks": 168,
          "midi": 62,
          "name": "D4",
          "ticks": 78135,
          "time": 81.390625,
          "velocity": 0.4881889763779528
        },
        {
          "duration": 0.19687499999999147,
          "durationTicks": 189,
          "midi": 55,
          "name": "G3",
          "ticks": 78192,
          "time": 81.45,
          "velocity": 0.29133858267716534
        },
        {
          "duration": 0.38333333333333997,
          "durationTicks": 368,
          "midi": 60,
          "name": "C4",
          "ticks": 78292,
          "time": 81.55416666666666,
          "velocity": 0.3700787401574803
        },
        {
          "duration": 0.3604166666666657,
          "durationTicks": 346,
          "midi": 67,
          "name": "G4",
          "ticks": 78304,
          "time": 81.56666666666666,
          "velocity": 0.5275590551181102
        },
        {
          "duration": 0.74270833333334,
          "durationTicks": 713,
          "midi": 62,
          "name": "D4",
          "ticks": 78304,
          "time": 81.56666666666666,
          "velocity": 0.5039370078740157
        },
        {
          "duration": 0.18541666666666856,
          "durationTicks": 178,
          "midi": 89,
          "name": "F6",
          "ticks": 78482,
          "time": 81.75208333333333,
          "velocity": 0.36220472440944884
        },
        {
          "duration": 0.4416666666666629,
          "durationTicks": 424,
          "midi": 74,
          "name": "D5",
          "ticks": 78593,
          "time": 81.86770833333334,
          "velocity": 0.44881889763779526
        },
        {
          "duration": 0.19687500000000568,
          "durationTicks": 189,
          "midi": 67,
          "name": "G4",
          "ticks": 78649,
          "time": 81.92604166666666,
          "velocity": 0.6771653543307087
        },
        {
          "duration": 0.5687500000000085,
          "durationTicks": 546,
          "midi": 55,
          "name": "G3",
          "ticks": 78649,
          "time": 81.92604166666666,
          "velocity": 0.44881889763779526
        },
        {
          "duration": 0.13958333333333428,
          "durationTicks": 134,
          "midi": 59,
          "name": "B3",
          "ticks": 78705,
          "time": 81.984375,
          "velocity": 0.4015748031496063
        },
        {
          "duration": 0.5916666666666686,
          "durationTicks": 568,
          "midi": 67,
          "name": "G4",
          "ticks": 78839,
          "time": 82.12395833333333,
          "velocity": 0.5669291338582677
        },
        {
          "duration": 0.19687499999999147,
          "durationTicks": 189,
          "midi": 74,
          "name": "D5",
          "ticks": 79017,
          "time": 82.309375,
          "velocity": 0.4094488188976378
        },
        {
          "duration": 0.33645833333332575,
          "durationTicks": 323,
          "midi": 62,
          "name": "D4",
          "ticks": 79017,
          "time": 82.309375,
          "velocity": 0.48031496062992124
        },
        {
          "duration": 0.24375000000000568,
          "durationTicks": 234,
          "midi": 59,
          "name": "B3",
          "ticks": 79050,
          "time": 82.34375,
          "velocity": 0.4015748031496063
        },
        {
          "duration": 1.2666666666666657,
          "durationTicks": 1216,
          "midi": 75,
          "name": "D#5",
          "ticks": 79385,
          "time": 82.69270833333333,
          "velocity": 0.4566929133858268
        },
        {
          "duration": 0.3947916666666629,
          "durationTicks": 379,
          "midi": 44,
          "name": "G#2",
          "ticks": 79396,
          "time": 82.70416666666667,
          "velocity": 0.5433070866141733
        },
        {
          "duration": 0.8260416666666544,
          "durationTicks": 793,
          "midi": 56,
          "name": "G#3",
          "ticks": 79418,
          "time": 82.72708333333334,
          "velocity": 0.7244094488188977
        },
        {
          "duration": 0.17395833333334565,
          "durationTicks": 167,
          "midi": 51,
          "name": "D#3",
          "ticks": 79552,
          "time": 82.86666666666666,
          "velocity": 0.3700787401574803
        },
        {
          "duration": 0.2666666666666657,
          "durationTicks": 256,
          "midi": 60,
          "name": "C4",
          "ticks": 79730,
          "time": 83.05208333333333,
          "velocity": 0.3858267716535433
        },
        {
          "duration": 0.36145833333334565,
          "durationTicks": 347,
          "midi": 63,
          "name": "D#4",
          "ticks": 79897,
          "time": 83.22604166666666,
          "velocity": 0.5039370078740157
        },
        {
          "duration": 0.8020833333333286,
          "durationTicks": 770,
          "midi": 58,
          "name": "A#3",
          "ticks": 80098,
          "time": 83.43541666666667,
          "velocity": 0.6614173228346457
        },
        {
          "duration": 0.5343749999999972,
          "durationTicks": 513,
          "midi": 63,
          "name": "D#4",
          "ticks": 80244,
          "time": 83.5875,
          "velocity": 0.5590551181102362
        },
        {
          "duration": 0.27812500000000284,
          "durationTicks": 267,
          "midi": 72,
          "name": "C5",
          "ticks": 80434,
          "time": 83.78541666666666,
          "velocity": 0.4409448818897638
        },
        {
          "duration": 1.3000000000000114,
          "durationTicks": 1248,
          "midi": 75,
          "name": "D#5",
          "ticks": 80601,
          "time": 83.959375,
          "velocity": 0.5196850393700787
        },
        {
          "duration": 1.3364583333333258,
          "durationTicks": 1283,
          "midi": 60,
          "name": "C4",
          "ticks": 80801,
          "time": 84.16770833333334,
          "velocity": 0.7244094488188977
        },
        {
          "duration": 0.37187500000000284,
          "durationTicks": 357,
          "midi": 63,
          "name": "D#4",
          "ticks": 80958,
          "time": 84.33125,
          "velocity": 0.48031496062992124
        },
        {
          "duration": 0.5458333333333343,
          "durationTicks": 524,
          "midi": 53,
          "name": "F3",
          "ticks": 81058,
          "time": 84.43541666666667,
          "velocity": 0.4881889763779528
        },
        {
          "duration": 0.22083333333333144,
          "durationTicks": 212,
          "midi": 56,
          "name": "G#3",
          "ticks": 81147,
          "time": 84.528125,
          "velocity": 0.4251968503937008
        },
        {
          "duration": 0.13958333333333428,
          "durationTicks": 134,
          "midi": 63,
          "name": "D#4",
          "ticks": 81314,
          "time": 84.70208333333333,
          "velocity": 0.4015748031496063
        },
        {
          "duration": 0.20937500000000853,
          "durationTicks": 201,
          "midi": 51,
          "name": "D#3",
          "ticks": 81470,
          "time": 84.86458333333333,
          "velocity": 0.4094488188976378
        },
        {
          "duration": 0.3500000000000085,
          "durationTicks": 336,
          "midi": 51,
          "name": "D#3",
          "ticks": 81682,
          "time": 85.08541666666666,
          "velocity": 0.44881889763779526
        },
        {
          "duration": 1.1624999999999943,
          "durationTicks": 1116,
          "midi": 62,
          "name": "D4",
          "ticks": 81871,
          "time": 85.28229166666667,
          "velocity": 0.7401574803149606
        },
        {
          "duration": 0.18541666666666856,
          "durationTicks": 178,
          "midi": 51,
          "name": "D#3",
          "ticks": 82018,
          "time": 85.43541666666667,
          "velocity": 0.4881889763779528
        },
        {
          "duration": 0.7666666666666657,
          "durationTicks": 736,
          "midi": 53,
          "name": "F3",
          "ticks": 82196,
          "time": 85.62083333333334,
          "velocity": 0.49606299212598426
        },
        {
          "duration": 0.2552083333333286,
          "durationTicks": 245,
          "midi": 46,
          "name": "A#2",
          "ticks": 82196,
          "time": 85.62083333333334,
          "velocity": 0.47244094488188976
        },
        {
          "duration": 0.17395833333334565,
          "durationTicks": 167,
          "midi": 65,
          "name": "F4",
          "ticks": 82731,
          "time": 86.178125,
          "velocity": 0.4094488188976378
        },
        {
          "duration": 0.4177083333333371,
          "durationTicks": 401,
          "midi": 51,
          "name": "D#3",
          "ticks": 82965,
          "time": 86.421875,
          "velocity": 0.3700787401574803
        },
        {
          "duration": 0.40625,
          "durationTicks": 390,
          "midi": 63,
          "name": "D#4",
          "ticks": 82987,
          "time": 86.44479166666666,
          "velocity": 0.7086614173228346
        },
        {
          "duration": 0.4416666666666771,
          "durationTicks": 424,
          "midi": 62,
          "name": "D4",
          "ticks": 83377,
          "time": 86.85104166666666,
          "velocity": 0.6692913385826772
        },
        {
          "duration": 0.17395833333333144,
          "durationTicks": 167,
          "midi": 77,
          "name": "F5",
          "ticks": 83444,
          "time": 86.92083333333333,
          "velocity": 0.3464566929133858
        },
        {
          "duration": 0.7447916666666714,
          "durationTicks": 715,
          "midi": 53,
          "name": "F3",
          "ticks": 83623,
          "time": 87.10729166666667,
          "velocity": 0.5039370078740157
        },
        {
          "duration": 0.8718750000000028,
          "durationTicks": 837,
          "midi": 60,
          "name": "C4",
          "ticks": 83656,
          "time": 87.14166666666667,
          "velocity": 0.6771653543307087
        },
        {
          "duration": 0.7093750000000085,
          "durationTicks": 681,
          "midi": 65,
          "name": "F4",
          "ticks": 83812,
          "time": 87.30416666666666,
          "velocity": 0.3464566929133858
        },
        {
          "duration": 0.7781250000000028,
          "durationTicks": 747,
          "midi": 58,
          "name": "A#3",
          "ticks": 84371,
          "time": 87.88645833333334,
          "velocity": 0.6692913385826772
        },
        {
          "duration": 0.6385416666666686,
          "durationTicks": 613,
          "midi": 43,
          "name": "G2",
          "ticks": 84382,
          "time": 87.89791666666666,
          "velocity": 0.47244094488188976
        },
        {
          "duration": 0.18541666666666856,
          "durationTicks": 178,
          "midi": 55,
          "name": "G3",
          "ticks": 84660,
          "time": 88.1875,
          "velocity": 0.4094488188976378
        },
        {
          "duration": 0.2906249999999915,
          "durationTicks": 279,
          "midi": 46,
          "name": "A#2",
          "ticks": 84683,
          "time": 88.21145833333334,
          "velocity": 0.5826771653543307
        },
        {
          "duration": 0.19687500000000568,
          "durationTicks": 189,
          "midi": 53,
          "name": "F3",
          "ticks": 85050,
          "time": 88.59375,
          "velocity": 0.4015748031496063
        },
        {
          "duration": 0.7781250000000028,
          "durationTicks": 747,
          "midi": 45,
          "name": "A2",
          "ticks": 85062,
          "time": 88.60625,
          "velocity": 0.5118110236220472
        },
        {
          "duration": 1.42916666666666,
          "durationTicks": 1372,
          "midi": 60,
          "name": "C4",
          "ticks": 85073,
          "time": 88.61770833333334,
          "velocity": 0.6377952755905512
        },
        {
          "duration": 0.6395833333333343,
          "durationTicks": 614,
          "midi": 41,
          "name": "F2",
          "ticks": 85229,
          "time": 88.78020833333333,
          "velocity": 0.5039370078740157
        },
        {
          "duration": 0.47708333333332575,
          "durationTicks": 458,
          "midi": 48,
          "name": "C3",
          "ticks": 85574,
          "time": 89.13958333333333,
          "velocity": 0.5826771653543307
        },
        {
          "duration": 0.3958333333333286,
          "durationTicks": 380,
          "midi": 53,
          "name": "F3",
          "ticks": 85753,
          "time": 89.32604166666667,
          "velocity": 0.5039370078740157
        },
        {
          "duration": 0.6395833333333201,
          "durationTicks": 614,
          "midi": 46,
          "name": "A#2",
          "ticks": 85808,
          "time": 89.38333333333334,
          "velocity": 0.3779527559055118
        },
        {
          "duration": 0.13958333333333428,
          "durationTicks": 134,
          "midi": 57,
          "name": "A3",
          "ticks": 85921,
          "time": 89.50104166666667,
          "velocity": 0.3464566929133858
        },
        {
          "duration": 0.16250000000000853,
          "durationTicks": 156,
          "midi": 53,
          "name": "F3",
          "ticks": 86133,
          "time": 89.721875,
          "velocity": 0.6456692913385826
        },
        {
          "duration": 1.4739583333333286,
          "durationTicks": 1415,
          "midi": 53,
          "name": "F3",
          "ticks": 86289,
          "time": 89.884375,
          "velocity": 0.7559055118110236
        },
        {
          "duration": 0.40625,
          "durationTicks": 390,
          "midi": 60,
          "name": "C4",
          "ticks": 86445,
          "time": 90.046875,
          "velocity": 0.4409448818897638
        },
        {
          "duration": 0.8937499999999972,
          "durationTicks": 858,
          "midi": 48,
          "name": "C3",
          "ticks": 86445,
          "time": 90.046875,
          "velocity": 0.5984251968503937
        },
        {
          "duration": 0.2666666666666657,
          "durationTicks": 256,
          "midi": 65,
          "name": "F4",
          "ticks": 86634,
          "time": 90.24375,
          "velocity": 0.33858267716535434
        },
        {
          "duration": 0.20937500000000853,
          "durationTicks": 201,
          "midi": 60,
          "name": "C4",
          "ticks": 86991,
          "time": 90.615625,
          "velocity": 0.3779527559055118
        },
        {
          "duration": 0.3020833333333286,
          "durationTicks": 290,
          "midi": 69,
          "name": "A4",
          "ticks": 87158,
          "time": 90.78958333333334,
          "velocity": 0.3858267716535433
        },
        {
          "duration": 0.3500000000000085,
          "durationTicks": 336,
          "midi": 60,
          "name": "C4",
          "ticks": 87515,
          "time": 91.16145833333333,
          "velocity": 0.5748031496062992
        },
        {
          "duration": 0.36145833333333144,
          "durationTicks": 347,
          "midi": 65,
          "name": "F4",
          "ticks": 87526,
          "time": 91.17291666666667,
          "velocity": 0.33070866141732286
        },
        {
          "duration": 1.0927083333333343,
          "durationTicks": 1049,
          "midi": 53,
          "name": "F3",
          "ticks": 87704,
          "time": 91.35833333333333,
          "velocity": 0.7952755905511811
        },
        {
          "duration": 0.4645833333333371,
          "durationTicks": 446,
          "midi": 46,
          "name": "A#2",
          "ticks": 87873,
          "time": 91.534375,
          "velocity": 0.5275590551181102
        },
        {
          "duration": 0.13958333333333428,
          "durationTicks": 134,
          "midi": 49,
          "name": "C#3",
          "ticks": 88486,
          "time": 92.17291666666667,
          "velocity": 0.49606299212598426
        },
        {
          "duration": 0.17395833333333144,
          "durationTicks": 167,
          "midi": 58,
          "name": "A#3",
          "ticks": 88586,
          "time": 92.27708333333334,
          "velocity": 0.48031496062992124
        },
        {
          "duration": 0.5343750000000114,
          "durationTicks": 513,
          "midi": 61,
          "name": "C#4",
          "ticks": 88597,
          "time": 92.28854166666666,
          "velocity": 0.41732283464566927
        },
        {
          "duration": 0.19687499999999147,
          "durationTicks": 189,
          "midi": 49,
          "name": "C#3",
          "ticks": 88631,
          "time": 92.32395833333334,
          "velocity": 0.6377952755905512
        },
        {
          "duration": 2.0447916666666686,
          "durationTicks": 1963,
          "midi": 53,
          "name": "F3",
          "ticks": 88753,
          "time": 92.45104166666667,
          "velocity": 0.7322834645669292
        },
        {
          "duration": 0.6500000000000057,
          "durationTicks": 624,
          "midi": 49,
          "name": "C#3",
          "ticks": 88820,
          "time": 92.52083333333333,
          "velocity": 0.5669291338582677
        },
        {
          "duration": 0.37187500000000284,
          "durationTicks": 357,
          "midi": 70,
          "name": "A#4",
          "ticks": 88932,
          "time": 92.6375,
          "velocity": 0.4409448818897638
        },
        {
          "duration": 0.1510416666666572,
          "durationTicks": 145,
          "midi": 73,
          "name": "C#5",
          "ticks": 89110,
          "time": 92.82291666666667,
          "velocity": 0.3937007874015748
        },
        {
          "duration": 0.2666666666666657,
          "durationTicks": 256,
          "midi": 61,
          "name": "C#4",
          "ticks": 89110,
          "time": 92.82291666666667,
          "velocity": 0.36220472440944884
        },
        {
          "duration": 0.13958333333332007,
          "durationTicks": 134,
          "midi": 70,
          "name": "A#4",
          "ticks": 89288,
          "time": 93.00833333333334,
          "velocity": 0.4409448818897638
        },
        {
          "duration": 0.9072916666666657,
          "durationTicks": 871,
          "midi": 46,
          "name": "A#2",
          "ticks": 89288,
          "time": 93.00833333333334,
          "velocity": 0.5748031496062992
        },
        {
          "duration": 0.3020833333333286,
          "durationTicks": 290,
          "midi": 58,
          "name": "A#3",
          "ticks": 89635,
          "time": 93.36979166666667,
          "velocity": 0.36220472440944884
        },
        {
          "duration": 0.7312499999999886,
          "durationTicks": 702,
          "midi": 49,
          "name": "C#3",
          "ticks": 90025,
          "time": 93.77604166666667,
          "velocity": 0.6771653543307087
        },
        {
          "duration": 0.13958333333333428,
          "durationTicks": 134,
          "midi": 61,
          "name": "C#4",
          "ticks": 90226,
          "time": 93.98541666666667,
          "velocity": 0.33070866141732286
        },
        {
          "duration": 0.27812500000000284,
          "durationTicks": 267,
          "midi": 46,
          "name": "A#2",
          "ticks": 90348,
          "time": 94.1125,
          "velocity": 0.44881889763779526
        },
        {
          "duration": 0.47604166666666003,
          "durationTicks": 457,
          "midi": 44,
          "name": "G#2",
          "ticks": 90716,
          "time": 94.49583333333334,
          "velocity": 0.5275590551181102
        },
        {
          "duration": 0.7781250000000028,
          "durationTicks": 747,
          "midi": 48,
          "name": "C3",
          "ticks": 90727,
          "time": 94.50729166666666,
          "velocity": 0.5826771653543307
        },
        {
          "duration": 0.9187500000000028,
          "durationTicks": 882,
          "midi": 56,
          "name": "G#3",
          "ticks": 90761,
          "time": 94.54270833333334,
          "velocity": 0.6771653543307087
        },
        {
          "duration": 0.19687499999999147,
          "durationTicks": 189,
          "midi": 63,
          "name": "D#4",
          "ticks": 91240,
          "time": 95.04166666666667,
          "velocity": 0.5196850393700787
        },
        {
          "duration": 0.6864583333333343,
          "durationTicks": 659,
          "midi": 46,
          "name": "A#2",
          "ticks": 91429,
          "time": 95.23854166666666,
          "velocity": 0.47244094488188976
        },
        {
          "duration": 0.5354166666666629,
          "durationTicks": 514,
          "midi": 58,
          "name": "A#3",
          "ticks": 91441,
          "time": 95.25104166666667,
          "velocity": 0.6771653543307087
        },
        {
          "duration": 0.13958333333332007,
          "durationTicks": 134,
          "midi": 75,
          "name": "D#5",
          "ticks": 91943,
          "time": 95.77395833333334,
          "velocity": 0.4015748031496063
        },
        {
          "duration": 0.27812500000000284,
          "durationTicks": 267,
          "midi": 58,
          "name": "A#3",
          "ticks": 91954,
          "time": 95.78541666666666,
          "velocity": 0.6220472440944882
        },
        {
          "duration": 0.8708333333333371,
          "durationTicks": 836,
          "midi": 44,
          "name": "G#2",
          "ticks": 92133,
          "time": 95.971875,
          "velocity": 0.5669291338582677
        },
        {
          "duration": 1.1145833333333286,
          "durationTicks": 1070,
          "midi": 60,
          "name": "C4",
          "ticks": 92144,
          "time": 95.98333333333333,
          "velocity": 0.6850393700787402
        },
        {
          "duration": 0.2906250000000057,
          "durationTicks": 279,
          "midi": 63,
          "name": "D#4",
          "ticks": 92300,
          "time": 96.14583333333333,
          "velocity": 0.3779527559055118
        },
        {
          "duration": 1.0697916666666742,
          "durationTicks": 1027,
          "midi": 46,
          "name": "A#2",
          "ticks": 92824,
          "time": 96.69166666666666,
          "velocity": 0.44881889763779526
        },
        {
          "duration": 0.13958333333333428,
          "durationTicks": 134,
          "midi": 51,
          "name": "D#3",
          "ticks": 93024,
          "time": 96.9,
          "velocity": 0.3464566929133858
        },
        {
          "duration": 0.36145833333333144,
          "durationTicks": 347,
          "midi": 62,
          "name": "D4",
          "ticks": 93214,
          "time": 97.09791666666666,
          "velocity": 0.7322834645669292
        },
        {
          "duration": 0.8708333333333371,
          "durationTicks": 836,
          "midi": 63,
          "name": "D#4",
          "ticks": 93561,
          "time": 97.459375,
          "velocity": 0.6850393700787402
        },
        {
          "duration": 0.38333333333332575,
          "durationTicks": 368,
          "midi": 46,
          "name": "A#2",
          "ticks": 93850,
          "time": 97.76041666666667,
          "velocity": 0.5669291338582677
        },
        {
          "duration": 0.20937499999999432,
          "durationTicks": 201,
          "midi": 53,
          "name": "F3",
          "ticks": 94073,
          "time": 97.99270833333334,
          "velocity": 0.6220472440944882
        },
        {
          "duration": 0.3604166666666657,
          "durationTicks": 346,
          "midi": 65,
          "name": "F4",
          "ticks": 94263,
          "time": 98.190625,
          "velocity": 0.7007874015748031
        },
        {
          "duration": 0.32500000000000284,
          "durationTicks": 312,
          "midi": 58,
          "name": "A#3",
          "ticks": 94263,
          "time": 98.190625,
          "velocity": 0.47244094488188976
        },
        {
          "duration": 0.7541666666666629,
          "durationTicks": 724,
          "midi": 50,
          "name": "D3",
          "ticks": 94263,
          "time": 98.190625,
          "velocity": 0.5196850393700787
        },
        {
          "duration": 0.3020833333333286,
          "durationTicks": 290,
          "midi": 53,
          "name": "F3",
          "ticks": 94274,
          "time": 98.20208333333333,
          "velocity": 0.4881889763779528
        },
        {
          "duration": 0.52291666666666,
          "durationTicks": 502,
          "midi": 62,
          "name": "D4",
          "ticks": 94419,
          "time": 98.353125,
          "velocity": 0.4330708661417323
        },
        {
          "duration": 0.37187500000000284,
          "durationTicks": 357,
          "midi": 65,
          "name": "F4",
          "ticks": 94608,
          "time": 98.55,
          "velocity": 0.7401574803149606
        },
        {
          "duration": 0.20937500000000853,
          "durationTicks": 201,
          "midi": 58,
          "name": "A#3",
          "ticks": 94787,
          "time": 98.73645833333333,
          "velocity": 0.6456692913385826
        },
        {
          "duration": 0.13958333333333428,
          "durationTicks": 134,
          "midi": 46,
          "name": "A#2",
          "ticks": 94820,
          "time": 98.77083333333333,
          "velocity": 0.4094488188976378
        },
        {
          "duration": 0.22083333333333144,
          "durationTicks": 212,
          "midi": 65,
          "name": "F4",
          "ticks": 94965,
          "time": 98.921875,
          "velocity": 0.4645669291338583
        },
        {
          "duration": 0.8020833333333286,
          "durationTicks": 770,
          "midi": 46,
          "name": "A#2",
          "ticks": 94965,
          "time": 98.921875,
          "velocity": 0.6141732283464567
        },
        {
          "duration": 0.7322916666666686,
          "durationTicks": 703,
          "midi": 63,
          "name": "D#4",
          "ticks": 94987,
          "time": 98.94479166666666,
          "velocity": 0.7086614173228346
        },
        {
          "duration": 0.7427083333333258,
          "durationTicks": 713,
          "midi": 48,
          "name": "C3",
          "ticks": 95668,
          "time": 99.65416666666667,
          "velocity": 0.47244094488188976
        },
        {
          "duration": 0.8239583333333371,
          "durationTicks": 791,
          "midi": 62,
          "name": "D4",
          "ticks": 95691,
          "time": 99.678125,
          "velocity": 0.6771653543307087
        },
        {
          "duration": 1.1854166666666686,
          "durationTicks": 1138,
          "midi": 48,
          "name": "C3",
          "ticks": 96382,
          "time": 100.39791666666666,
          "velocity": 0.5354330708661418
        },
        {
          "duration": 0.4645833333333229,
          "durationTicks": 446,
          "midi": 64,
          "name": "E4",
          "ticks": 96460,
          "time": 100.47916666666667,
          "velocity": 0.7637795275590551
        },
        {
          "duration": 0.24375000000000568,
          "durationTicks": 234,
          "midi": 55,
          "name": "G3",
          "ticks": 96527,
          "time": 100.54895833333333,
          "velocity": 0.4094488188976378
        },
        {
          "duration": 0.9187500000000028,
          "durationTicks": 882,
          "midi": 64,
          "name": "E4",
          "ticks": 96906,
          "time": 100.94375,
          "velocity": 0.7559055118110236
        },
        {
          "duration": 0.18541666666666856,
          "durationTicks": 178,
          "midi": 67,
          "name": "G4",
          "ticks": 97084,
          "time": 101.12916666666666,
          "velocity": 0.5275590551181102
        },
        {
          "duration": 0.17499999999999716,
          "durationTicks": 168,
          "midi": 67,
          "name": "G4",
          "ticks": 97262,
          "time": 101.31458333333333,
          "velocity": 0.41732283464566927
        },
        {
          "duration": 0.19895833333333712,
          "durationTicks": 191,
          "midi": 60,
          "name": "C4",
          "ticks": 97262,
          "time": 101.31458333333333,
          "velocity": 0.49606299212598426
        },
        {
          "duration": 0.19687500000000568,
          "durationTicks": 189,
          "midi": 67,
          "name": "G4",
          "ticks": 97431,
          "time": 101.490625,
          "velocity": 0.5984251968503937
        },
        {
          "duration": 0.4177083333333371,
          "durationTicks": 401,
          "midi": 74,
          "name": "D5",
          "ticks": 97620,
          "time": 101.6875,
          "velocity": 0.3858267716535433
        },
        {
          "duration": 0.20937499999999432,
          "durationTicks": 201,
          "midi": 67,
          "name": "G4",
          "ticks": 97620,
          "time": 101.6875,
          "velocity": 0.48031496062992124
        },
        {
          "duration": 1.6270833333333314,
          "durationTicks": 1562,
          "midi": 50,
          "name": "D3",
          "ticks": 97620,
          "time": 101.6875,
          "velocity": 0.5118110236220472
        },
        {
          "duration": 1.2999999999999972,
          "durationTicks": 1248,
          "midi": 64,
          "name": "E4",
          "ticks": 97787,
          "time": 101.86145833333333,
          "velocity": 0.7007874015748031
        },
        {
          "duration": 0.37187500000000284,
          "durationTicks": 357,
          "midi": 67,
          "name": "G4",
          "ticks": 98501,
          "time": 102.60520833333334,
          "velocity": 0.4251968503937008
        },
        {
          "duration": 0.5583333333333371,
          "durationTicks": 536,
          "midi": 67,
          "name": "G4",
          "ticks": 98857,
          "time": 102.97604166666666,
          "velocity": 0.6929133858267716
        },
        {
          "duration": 0.19687500000000568,
          "durationTicks": 189,
          "midi": 62,
          "name": "D4",
          "ticks": 98958,
          "time": 103.08125,
          "velocity": 0.2992125984251969
        },
        {
          "duration": 0.26875000000001137,
          "durationTicks": 258,
          "midi": 64,
          "name": "E4",
          "ticks": 99036,
          "time": 103.1625,
          "velocity": 0.4409448818897638
        },
        {
          "duration": 0.3135416666666657,
          "durationTicks": 301,
          "midi": 60,
          "name": "C4",
          "ticks": 99204,
          "time": 103.3375,
          "velocity": 0.4645669291338583
        },
        {
          "duration": 1.4979166666666686,
          "durationTicks": 1438,
          "midi": 53,
          "name": "F3",
          "ticks": 99215,
          "time": 103.34895833333333,
          "velocity": 0.4645669291338583
        },
        {
          "duration": 0.5458333333333343,
          "durationTicks": 524,
          "midi": 67,
          "name": "G4",
          "ticks": 99393,
          "time": 103.534375,
          "velocity": 0.7244094488188977
        },
        {
          "duration": 0.27812500000000284,
          "durationTicks": 267,
          "midi": 62,
          "name": "D4",
          "ticks": 99739,
          "time": 103.89479166666666,
          "velocity": 0.5039370078740157
        },
        {
          "duration": 0.27812500000000284,
          "durationTicks": 267,
          "midi": 67,
          "name": "G4",
          "ticks": 99917,
          "time": 104.08020833333333,
          "velocity": 0.5039370078740157
        },
        {
          "duration": 0.23229166666666856,
          "durationTicks": 223,
          "midi": 60,
          "name": "C4",
          "ticks": 99917,
          "time": 104.08020833333333,
          "velocity": 0.44881889763779526
        },
        {
          "duration": 0.19687499999999147,
          "durationTicks": 189,
          "midi": 65,
          "name": "F4",
          "ticks": 100029,
          "time": 104.196875,
          "velocity": 0.4015748031496063
        },
        {
          "duration": 0.19687500000000568,
          "durationTicks": 189,
          "midi": 55,
          "name": "G3",
          "ticks": 100096,
          "time": 104.26666666666667,
          "velocity": 0.8110236220472441
        },
        {
          "duration": 0.19687500000000568,
          "durationTicks": 189,
          "midi": 48,
          "name": "C3",
          "ticks": 100274,
          "time": 104.45208333333333,
          "velocity": 0.7716535433070866
        },
        {
          "duration": 0.17395833333333144,
          "durationTicks": 167,
          "midi": 55,
          "name": "G3",
          "ticks": 100285,
          "time": 104.46354166666667,
          "velocity": 0.6535433070866141
        },
        {
          "duration": 0.27812500000000284,
          "durationTicks": 267,
          "midi": 55,
          "name": "G3",
          "ticks": 100452,
          "time": 104.6375,
          "velocity": 0.7716535433070866
        },
        {
          "duration": 0.453125,
          "durationTicks": 435,
          "midi": 48,
          "name": "C3",
          "ticks": 100463,
          "time": 104.64895833333334,
          "velocity": 0.4881889763779528
        },
        {
          "duration": 0.18541666666666856,
          "durationTicks": 178,
          "midi": 60,
          "name": "C4",
          "ticks": 100619,
          "time": 104.81145833333333,
          "velocity": 0.3779527559055118
        },
        {
          "duration": 0.2666666666666657,
          "durationTicks": 256,
          "midi": 55,
          "name": "G3",
          "ticks": 100720,
          "time": 104.91666666666667,
          "velocity": 0.7716535433070866
        },
        {
          "duration": 0.2552083333333428,
          "durationTicks": 245,
          "midi": 67,
          "name": "G4",
          "ticks": 100731,
          "time": 104.928125,
          "velocity": 0.5275590551181102
        },
        {
          "duration": 0.46562499999998863,
          "durationTicks": 447,
          "midi": 62,
          "name": "D4",
          "ticks": 100809,
          "time": 105.009375,
          "velocity": 0.5039370078740157
        },
        {
          "duration": 0.3843749999999915,
          "durationTicks": 369,
          "midi": 55,
          "name": "G3",
          "ticks": 100976,
          "time": 105.18333333333334,
          "velocity": 0.7244094488188977
        },
        {
          "duration": 0.37291666666666856,
          "durationTicks": 358,
          "midi": 67,
          "name": "G4",
          "ticks": 100987,
          "time": 105.19479166666666,
          "velocity": 0.6377952755905512
        },
        {
          "duration": 0.17500000000001137,
          "durationTicks": 168,
          "midi": 64,
          "name": "E4",
          "ticks": 100987,
          "time": 105.19479166666666,
          "velocity": 0.5669291338582677
        },
        {
          "duration": 0.19687499999999147,
          "durationTicks": 189,
          "midi": 64,
          "name": "E4",
          "ticks": 101156,
          "time": 105.37083333333334,
          "velocity": 0.4881889763779528
        }
      ],
      "endOfTrackTicks": 101356
    }
  ]
}
